G75*
G70*
%OFA0B0*%
%FSLAX24Y24*%
%IPPOS*%
%LPD*%
%AMOC8*
5,1,8,0,0,1.08239X$1,22.5*
%
%ADD10C,0.0040*%
%ADD11C,0.0709*%
%ADD12R,0.0866X0.3150*%
%ADD13R,0.0710X0.0630*%
%ADD14R,0.0591X0.0512*%
%ADD15R,0.3150X0.0866*%
%ADD16R,0.0630X0.0710*%
%ADD17R,0.0512X0.0591*%
%ADD18C,0.0100*%
%ADD19C,0.0396*%
%ADD20C,0.0500*%
D10*
X008593Y007535D02*
X008699Y007429D01*
X008699Y007402D01*
X008777Y007402D02*
X008884Y007402D01*
X008830Y007402D02*
X008830Y007562D01*
X008884Y007509D01*
X008961Y007482D02*
X009068Y007482D01*
X008988Y007562D01*
X008988Y007402D01*
X009145Y007429D02*
X009172Y007402D01*
X009225Y007402D01*
X009252Y007429D01*
X009145Y007535D01*
X009145Y007429D01*
X009145Y007535D02*
X009172Y007562D01*
X009225Y007562D01*
X009252Y007535D01*
X009252Y007429D01*
X009329Y007429D02*
X009356Y007402D01*
X009409Y007402D01*
X009436Y007429D01*
X009383Y007482D02*
X009356Y007482D01*
X009329Y007455D01*
X009329Y007429D01*
X009356Y007482D02*
X009329Y007509D01*
X009329Y007535D01*
X009356Y007562D01*
X009409Y007562D01*
X009436Y007535D01*
X009567Y007562D02*
X009567Y007402D01*
X009620Y007402D02*
X009513Y007402D01*
X009497Y007262D02*
X009391Y007262D01*
X009313Y007262D02*
X009233Y007262D01*
X009206Y007235D01*
X009206Y007182D01*
X009233Y007155D01*
X009313Y007155D01*
X009260Y007155D02*
X009206Y007102D01*
X009313Y007102D02*
X009313Y007262D01*
X009444Y007182D02*
X009497Y007182D01*
X009497Y007262D02*
X009497Y007102D01*
X009391Y007102D01*
X009575Y007155D02*
X009575Y007262D01*
X009682Y007262D02*
X009682Y007155D01*
X009628Y007102D01*
X009575Y007155D01*
X009751Y007102D02*
X009804Y007102D01*
X009778Y007102D02*
X009778Y007262D01*
X009804Y007262D02*
X009751Y007262D01*
X009882Y007235D02*
X009882Y007182D01*
X009908Y007155D01*
X009988Y007155D01*
X009935Y007155D02*
X009882Y007102D01*
X009988Y007102D02*
X009988Y007262D01*
X009908Y007262D01*
X009882Y007235D01*
X009882Y007402D02*
X009988Y007402D01*
X009882Y007509D01*
X009882Y007535D01*
X009908Y007562D01*
X009962Y007562D01*
X009988Y007535D01*
X009804Y007535D02*
X009778Y007562D01*
X009724Y007562D01*
X009698Y007535D01*
X009804Y007429D01*
X009778Y007402D01*
X009724Y007402D01*
X009698Y007429D01*
X009698Y007535D01*
X009620Y007509D02*
X009567Y007562D01*
X009804Y007535D02*
X009804Y007429D01*
X010066Y007235D02*
X010093Y007262D01*
X010173Y007262D01*
X010173Y007102D01*
X010093Y007102D01*
X010066Y007129D01*
X010066Y007235D01*
X010250Y007402D02*
X010250Y007562D01*
X010303Y007509D01*
X010357Y007562D01*
X010357Y007402D01*
X010434Y007402D02*
X010434Y007562D01*
X010541Y007562D02*
X010541Y007402D01*
X010488Y007455D01*
X010434Y007402D01*
X010434Y007262D02*
X010541Y007262D01*
X010488Y007262D02*
X010488Y007102D01*
X010618Y007102D02*
X010618Y007209D01*
X010672Y007262D01*
X010725Y007209D01*
X010725Y007102D01*
X010725Y007182D02*
X010618Y007182D01*
X010618Y007402D02*
X010725Y007402D01*
X010725Y007562D01*
X010618Y007562D01*
X010672Y007482D02*
X010725Y007482D01*
X008699Y007562D02*
X008593Y007562D01*
X008593Y007535D01*
X009206Y013598D02*
X009260Y013651D01*
X009233Y013651D02*
X009313Y013651D01*
X009313Y013598D02*
X009313Y013758D01*
X009233Y013758D01*
X009206Y013731D01*
X009206Y013678D01*
X009233Y013651D01*
X009391Y013598D02*
X009497Y013598D01*
X009497Y013758D01*
X009391Y013758D01*
X009444Y013678D02*
X009497Y013678D01*
X009575Y013651D02*
X009575Y013758D01*
X009682Y013758D02*
X009682Y013651D01*
X009628Y013598D01*
X009575Y013651D01*
X009751Y013598D02*
X009804Y013598D01*
X009778Y013598D02*
X009778Y013758D01*
X009804Y013758D02*
X009751Y013758D01*
X009882Y013731D02*
X009882Y013678D01*
X009908Y013651D01*
X009988Y013651D01*
X009935Y013651D02*
X009882Y013598D01*
X009988Y013598D02*
X009988Y013758D01*
X009908Y013758D01*
X009882Y013731D01*
X009882Y013898D02*
X009988Y013898D01*
X009882Y014005D01*
X009882Y014031D01*
X009908Y014058D01*
X009962Y014058D01*
X009988Y014031D01*
X009804Y014031D02*
X009778Y014058D01*
X009724Y014058D01*
X009698Y014031D01*
X009804Y013925D01*
X009778Y013898D01*
X009724Y013898D01*
X009698Y013925D01*
X009698Y014031D01*
X009620Y014005D02*
X009567Y014058D01*
X009567Y013898D01*
X009620Y013898D02*
X009513Y013898D01*
X009436Y013925D02*
X009409Y013898D01*
X009356Y013898D01*
X009329Y013925D01*
X009329Y013951D01*
X009356Y013978D01*
X009383Y013978D01*
X009356Y013978D02*
X009329Y014005D01*
X009329Y014031D01*
X009356Y014058D01*
X009409Y014058D01*
X009436Y014031D01*
X009252Y014031D02*
X009252Y013925D01*
X009145Y014031D01*
X009145Y013925D01*
X009172Y013898D01*
X009225Y013898D01*
X009252Y013925D01*
X009252Y014031D02*
X009225Y014058D01*
X009172Y014058D01*
X009145Y014031D01*
X009068Y013978D02*
X008961Y013978D01*
X008884Y014005D02*
X008830Y014058D01*
X008830Y013898D01*
X008777Y013898D02*
X008884Y013898D01*
X008988Y013898D02*
X008988Y014058D01*
X009068Y013978D01*
X008699Y013925D02*
X008699Y013898D01*
X008699Y013925D02*
X008593Y014031D01*
X008593Y014058D01*
X008699Y014058D01*
X009804Y014031D02*
X009804Y013925D01*
X010066Y013731D02*
X010093Y013758D01*
X010173Y013758D01*
X010173Y013598D01*
X010093Y013598D01*
X010066Y013625D01*
X010066Y013731D01*
X010250Y013898D02*
X010250Y014058D01*
X010303Y014005D01*
X010357Y014058D01*
X010357Y013898D01*
X010434Y013898D02*
X010434Y014058D01*
X010541Y014058D02*
X010541Y013898D01*
X010488Y013951D01*
X010434Y013898D01*
X010434Y013758D02*
X010541Y013758D01*
X010488Y013758D02*
X010488Y013598D01*
X010618Y013598D02*
X010618Y013705D01*
X010672Y013758D01*
X010725Y013705D01*
X010725Y013598D01*
X010725Y013678D02*
X010618Y013678D01*
X010618Y013898D02*
X010725Y013898D01*
X010725Y014058D01*
X010618Y014058D01*
X010672Y013978D02*
X010725Y013978D01*
X018407Y013893D02*
X018461Y013839D01*
X018461Y013866D02*
X018461Y013786D01*
X018407Y013786D02*
X018568Y013786D01*
X018568Y013866D01*
X018541Y013893D01*
X018488Y013893D01*
X018461Y013866D01*
X018407Y013709D02*
X018407Y013602D01*
X018568Y013602D01*
X018568Y013709D01*
X018488Y013655D02*
X018488Y013602D01*
X018461Y013524D02*
X018568Y013524D01*
X018568Y013418D02*
X018461Y013418D01*
X018407Y013471D01*
X018461Y013524D01*
X018407Y013348D02*
X018407Y013295D01*
X018407Y013322D02*
X018568Y013322D01*
X018568Y013348D02*
X018568Y013295D01*
X018541Y013218D02*
X018488Y013218D01*
X018461Y013191D01*
X018461Y013111D01*
X018461Y013164D02*
X018407Y013218D01*
X018407Y013111D02*
X018568Y013111D01*
X018568Y013191D01*
X018541Y013218D01*
X018707Y013218D02*
X018707Y013111D01*
X018814Y013218D01*
X018841Y013218D01*
X018868Y013191D01*
X018868Y013137D01*
X018841Y013111D01*
X018841Y013295D02*
X018734Y013295D01*
X018841Y013402D01*
X018734Y013402D01*
X018707Y013375D01*
X018707Y013322D01*
X018734Y013295D01*
X018841Y013295D02*
X018868Y013322D01*
X018868Y013375D01*
X018841Y013402D01*
X018814Y013479D02*
X018868Y013532D01*
X018707Y013532D01*
X018707Y013479D02*
X018707Y013586D01*
X018734Y013663D02*
X018707Y013690D01*
X018707Y013743D01*
X018734Y013770D01*
X018761Y013770D01*
X018788Y013743D01*
X018788Y013717D01*
X018788Y013743D02*
X018814Y013770D01*
X018841Y013770D01*
X018868Y013743D01*
X018868Y013690D01*
X018841Y013663D01*
X018841Y013847D02*
X018734Y013847D01*
X018841Y013954D01*
X018734Y013954D01*
X018707Y013927D01*
X018707Y013874D01*
X018734Y013847D01*
X018841Y013847D02*
X018868Y013874D01*
X018868Y013927D01*
X018841Y013954D01*
X018788Y014032D02*
X018788Y014138D01*
X018814Y014216D02*
X018868Y014269D01*
X018707Y014269D01*
X018707Y014216D02*
X018707Y014322D01*
X018707Y014400D02*
X018734Y014400D01*
X018841Y014507D01*
X018868Y014507D01*
X018868Y014400D01*
X018868Y014112D02*
X018707Y014112D01*
X018788Y014032D02*
X018868Y014112D01*
X018541Y013033D02*
X018568Y013007D01*
X018568Y012927D01*
X018407Y012927D01*
X018407Y013007D01*
X018434Y013033D01*
X018541Y013033D01*
X018707Y012849D02*
X018868Y012849D01*
X018814Y012796D01*
X018868Y012742D01*
X018707Y012742D01*
X018707Y012665D02*
X018868Y012665D01*
X018868Y012558D02*
X018707Y012558D01*
X018761Y012612D01*
X018707Y012665D01*
X018568Y012665D02*
X018568Y012558D01*
X018568Y012612D02*
X018407Y012612D01*
X018407Y012481D02*
X018514Y012481D01*
X018568Y012428D01*
X018514Y012374D01*
X018407Y012374D01*
X018488Y012374D02*
X018488Y012481D01*
X018707Y012481D02*
X018707Y012374D01*
X018868Y012374D01*
X018868Y012481D01*
X018788Y012428D02*
X018788Y012374D01*
X010764Y001184D02*
X010764Y001024D01*
X010658Y001024D01*
X010580Y001024D02*
X010527Y001077D01*
X010474Y001024D01*
X010474Y001184D01*
X010396Y001184D02*
X010343Y001131D01*
X010289Y001184D01*
X010289Y001024D01*
X010396Y001024D02*
X010396Y001184D01*
X010580Y001184D02*
X010580Y001024D01*
X010580Y000884D02*
X010474Y000884D01*
X010527Y000884D02*
X010527Y000724D01*
X010658Y000724D02*
X010658Y000831D01*
X010711Y000884D01*
X010764Y000831D01*
X010764Y000724D01*
X010764Y000804D02*
X010658Y000804D01*
X010711Y001104D02*
X010764Y001104D01*
X010764Y001184D02*
X010658Y001184D01*
X010212Y000884D02*
X010212Y000724D01*
X010132Y000724D01*
X010105Y000751D01*
X010105Y000857D01*
X010132Y000884D01*
X010212Y000884D01*
X010028Y000884D02*
X010028Y000724D01*
X010028Y000777D02*
X009948Y000777D01*
X009921Y000804D01*
X009921Y000857D01*
X009948Y000884D01*
X010028Y000884D01*
X009974Y000777D02*
X009921Y000724D01*
X009844Y000724D02*
X009790Y000724D01*
X009817Y000724D02*
X009817Y000884D01*
X009844Y000884D02*
X009790Y000884D01*
X009721Y000884D02*
X009721Y000777D01*
X009668Y000724D01*
X009614Y000777D01*
X009614Y000884D01*
X009537Y000884D02*
X009537Y000724D01*
X009430Y000724D01*
X009353Y000724D02*
X009353Y000884D01*
X009273Y000884D01*
X009246Y000857D01*
X009246Y000804D01*
X009273Y000777D01*
X009353Y000777D01*
X009299Y000777D02*
X009246Y000724D01*
X009430Y000884D02*
X009537Y000884D01*
X009537Y000804D02*
X009483Y000804D01*
X009449Y001024D02*
X009475Y001051D01*
X009449Y001024D02*
X009395Y001024D01*
X009369Y001051D01*
X009369Y001077D01*
X009395Y001104D01*
X009422Y001104D01*
X009395Y001104D02*
X009369Y001131D01*
X009369Y001157D01*
X009395Y001184D01*
X009449Y001184D01*
X009475Y001157D01*
X009606Y001184D02*
X009606Y001024D01*
X009553Y001024D02*
X009660Y001024D01*
X009737Y001051D02*
X009764Y001024D01*
X009817Y001024D01*
X009844Y001051D01*
X009737Y001157D01*
X009737Y001051D01*
X009737Y001157D02*
X009764Y001184D01*
X009817Y001184D01*
X009844Y001157D01*
X009844Y001051D01*
X009921Y001024D02*
X010028Y001024D01*
X009921Y001131D01*
X009921Y001157D01*
X009948Y001184D01*
X010001Y001184D01*
X010028Y001157D01*
X009660Y001131D02*
X009606Y001184D01*
X009291Y001157D02*
X009265Y001184D01*
X009211Y001184D01*
X009184Y001157D01*
X009291Y001051D01*
X009265Y001024D01*
X009211Y001024D01*
X009184Y001051D01*
X009184Y001157D01*
X009107Y001104D02*
X009000Y001104D01*
X008923Y001131D02*
X008870Y001184D01*
X008870Y001024D01*
X008923Y001024D02*
X008816Y001024D01*
X008739Y001024D02*
X008739Y001051D01*
X008632Y001157D01*
X008632Y001184D01*
X008739Y001184D01*
X009027Y001184D02*
X009107Y001104D01*
X009027Y001024D02*
X009027Y001184D01*
X009291Y001157D02*
X009291Y001051D01*
D11*
X010630Y004004D02*
X011339Y004004D01*
X011339Y005004D02*
X010630Y005004D01*
X015087Y004910D02*
X015087Y005618D01*
X016087Y005618D02*
X016087Y004910D01*
X017087Y004910D02*
X017087Y005618D01*
X011299Y010382D02*
X010591Y010382D01*
X010591Y011382D02*
X011299Y011382D01*
X014587Y014410D02*
X014587Y015118D01*
X015587Y015118D02*
X015587Y014410D01*
X011299Y016878D02*
X010591Y016878D01*
X010591Y017878D02*
X011299Y017878D01*
X001799Y017378D02*
X001091Y017378D01*
X001091Y016378D02*
X001799Y016378D01*
X001799Y015378D02*
X001091Y015378D01*
X001091Y010882D02*
X001799Y010882D01*
X001799Y009882D02*
X001091Y009882D01*
X001091Y008882D02*
X001799Y008882D01*
X001839Y004504D02*
X001130Y004504D01*
X001130Y003504D02*
X001839Y003504D01*
X001839Y002504D02*
X001130Y002504D01*
D12*
X004973Y003504D03*
X008596Y003504D03*
X008556Y009882D03*
X004934Y009882D03*
X004934Y016378D03*
X008556Y016378D03*
D13*
X003121Y015438D03*
X003121Y014318D03*
X003121Y008942D03*
X003121Y007822D03*
X003160Y002564D03*
X003160Y001444D03*
D14*
X003160Y003569D03*
X003160Y004239D03*
X003121Y009947D03*
X003121Y010616D03*
X003121Y016443D03*
X003121Y017113D03*
D15*
X016087Y012375D03*
X016087Y008753D03*
D16*
X017028Y006940D03*
X018147Y006940D03*
D17*
X016022Y006940D03*
X015353Y006940D03*
D18*
X000739Y002260D02*
X000739Y000759D01*
X009126Y000759D01*
X009126Y000907D01*
X009142Y000923D01*
X009119Y000946D01*
X009077Y000904D01*
X008977Y000904D01*
X008975Y000906D01*
X008973Y000904D01*
X008689Y000904D01*
X008619Y000974D01*
X008619Y001001D01*
X008512Y001108D01*
X008512Y001234D01*
X008582Y001304D01*
X008788Y001304D01*
X008804Y001288D01*
X008820Y001304D01*
X008919Y001304D01*
X008948Y001275D01*
X008977Y001304D01*
X009077Y001304D01*
X009119Y001262D01*
X009135Y001277D01*
X009161Y001304D01*
X009314Y001304D01*
X009330Y001288D01*
X009346Y001304D01*
X009498Y001304D01*
X009527Y001275D01*
X009556Y001304D01*
X009656Y001304D01*
X009685Y001275D01*
X009687Y001277D01*
X009714Y001304D01*
X009867Y001304D01*
X009882Y001288D01*
X009898Y001304D01*
X010051Y001304D01*
X010148Y001207D01*
X010148Y001108D01*
X010131Y001091D01*
X010148Y001074D01*
X010148Y001004D01*
X010169Y001004D01*
X010169Y001234D01*
X010204Y001268D01*
X010240Y001304D01*
X010339Y001304D01*
X010343Y001300D01*
X010346Y001304D01*
X010523Y001304D01*
X010527Y001300D01*
X010531Y001304D01*
X010814Y001304D01*
X010819Y001300D01*
X010943Y001600D01*
X011189Y001846D01*
X011510Y001979D01*
X011859Y001979D01*
X012041Y001903D01*
X012041Y006154D01*
X001886Y006154D01*
X001959Y005978D01*
X001959Y005630D01*
X001826Y005308D01*
X001580Y005062D01*
X001329Y004958D01*
X001929Y004958D01*
X002096Y004889D01*
X002224Y004761D01*
X002293Y004594D01*
X002293Y004413D01*
X002224Y004246D01*
X002096Y004119D01*
X001929Y004050D01*
X001040Y004050D01*
X000873Y004119D01*
X000745Y004246D01*
X000739Y004260D01*
X000739Y003824D01*
X000745Y003832D01*
X000802Y003889D01*
X000866Y003935D01*
X000937Y003971D01*
X001012Y003996D01*
X001090Y004008D01*
X001434Y004008D01*
X001434Y003554D01*
X001534Y003554D01*
X001534Y004008D01*
X001879Y004008D01*
X001957Y003996D01*
X002032Y003971D01*
X002103Y003935D01*
X002167Y003889D01*
X002224Y003832D01*
X002270Y003768D01*
X002306Y003697D01*
X002331Y003622D01*
X002342Y003554D01*
X001534Y003554D01*
X001534Y003454D01*
X001534Y003000D01*
X001879Y003000D01*
X001957Y003012D01*
X002032Y003036D01*
X002103Y003073D01*
X002167Y003119D01*
X002224Y003175D01*
X002270Y003240D01*
X002306Y003310D01*
X002331Y003386D01*
X002342Y003454D01*
X001534Y003454D01*
X001434Y003454D01*
X001434Y003000D01*
X001090Y003000D01*
X001012Y003012D01*
X000937Y003036D01*
X000866Y003073D01*
X000802Y003119D01*
X000745Y003175D01*
X000739Y003184D01*
X000739Y002748D01*
X000745Y002761D01*
X000873Y002889D01*
X001040Y002958D01*
X001929Y002958D01*
X002096Y002889D01*
X002224Y002761D01*
X002293Y002594D01*
X002293Y002413D01*
X002224Y002246D01*
X002096Y002119D01*
X001929Y002050D01*
X001040Y002050D01*
X000873Y002119D01*
X000745Y002246D01*
X000739Y002260D01*
X000739Y002219D02*
X000773Y002219D01*
X000739Y002120D02*
X000871Y002120D01*
X000739Y002022D02*
X004440Y002022D01*
X004440Y002120D02*
X002097Y002120D01*
X002196Y002219D02*
X002705Y002219D01*
X002705Y002207D02*
X002764Y002149D01*
X003556Y002149D01*
X003615Y002207D01*
X003615Y002920D01*
X003556Y002979D01*
X002764Y002979D01*
X002705Y002920D01*
X002705Y002207D01*
X002705Y002317D02*
X002253Y002317D01*
X002293Y002416D02*
X002705Y002416D01*
X002705Y002514D02*
X002293Y002514D01*
X002286Y002613D02*
X002705Y002613D01*
X002705Y002711D02*
X002245Y002711D01*
X002176Y002810D02*
X002705Y002810D01*
X002705Y002908D02*
X002050Y002908D01*
X001923Y003007D02*
X004440Y003007D01*
X004440Y003105D02*
X002148Y003105D01*
X002244Y003204D02*
X004440Y003204D01*
X004440Y003219D02*
X004440Y001888D01*
X004499Y001829D01*
X004634Y001829D01*
X004634Y001534D01*
X004688Y001406D01*
X004786Y001307D01*
X005027Y001066D01*
X005156Y001013D01*
X006580Y001013D01*
X006686Y000907D01*
X006815Y000854D01*
X006954Y000854D01*
X007083Y000907D01*
X007181Y001006D01*
X007234Y001134D01*
X007234Y001273D01*
X007181Y001402D01*
X007022Y001561D01*
X007022Y001561D01*
X006924Y001660D01*
X006795Y001713D01*
X005370Y001713D01*
X005334Y001749D01*
X005334Y001829D01*
X005448Y001829D01*
X005507Y001888D01*
X005507Y005120D01*
X005448Y005179D01*
X004499Y005179D01*
X004440Y005120D01*
X004440Y003919D01*
X003592Y003919D01*
X003595Y003925D01*
X003605Y003963D01*
X003605Y004189D01*
X003210Y004189D01*
X004440Y004189D01*
X004440Y004287D02*
X003210Y004287D01*
X003210Y004289D02*
X003605Y004289D01*
X003605Y004514D01*
X003595Y004552D01*
X003575Y004587D01*
X003547Y004614D01*
X003513Y004634D01*
X003475Y004644D01*
X003210Y004644D01*
X003210Y004289D01*
X003110Y004289D01*
X003110Y004644D01*
X002845Y004644D01*
X002807Y004634D01*
X002773Y004614D01*
X002745Y004587D01*
X002725Y004552D01*
X002715Y004514D01*
X002715Y004289D01*
X003110Y004289D01*
X003110Y004189D01*
X002166Y004189D01*
X002241Y004287D02*
X003110Y004287D01*
X003110Y004189D02*
X002715Y004189D01*
X002715Y003963D01*
X002725Y003925D01*
X002745Y003890D01*
X002767Y003869D01*
X002765Y003867D01*
X002765Y003272D01*
X002823Y003213D01*
X003497Y003213D01*
X003503Y003219D01*
X004440Y003219D01*
X004440Y002908D02*
X003615Y002908D01*
X003615Y002810D02*
X004440Y002810D01*
X004440Y002711D02*
X003615Y002711D01*
X003615Y002613D02*
X004440Y002613D01*
X004440Y002514D02*
X003615Y002514D01*
X003615Y002416D02*
X004440Y002416D01*
X004440Y002317D02*
X003615Y002317D01*
X003615Y002219D02*
X004440Y002219D01*
X004440Y001923D02*
X000739Y001923D01*
X000739Y001825D02*
X002670Y001825D01*
X002665Y001817D02*
X002655Y001779D01*
X002655Y001494D01*
X003110Y001494D01*
X003110Y001394D01*
X002655Y001394D01*
X002655Y001109D01*
X002665Y001071D01*
X002685Y001037D01*
X002713Y001009D01*
X002747Y000989D01*
X002785Y000979D01*
X003110Y000979D01*
X003110Y001394D01*
X003210Y001394D01*
X003210Y000979D01*
X003535Y000979D01*
X003573Y000989D01*
X003607Y001009D01*
X003635Y001037D01*
X003655Y001071D01*
X003665Y001109D01*
X003665Y001394D01*
X003210Y001394D01*
X003210Y001494D01*
X003110Y001494D01*
X003110Y001909D01*
X002785Y001909D01*
X002747Y001899D01*
X002713Y001879D01*
X002685Y001851D01*
X002665Y001817D01*
X002655Y001726D02*
X000739Y001726D01*
X000739Y001628D02*
X002655Y001628D01*
X002655Y001529D02*
X000739Y001529D01*
X000739Y001431D02*
X003110Y001431D01*
X003110Y001529D02*
X003210Y001529D01*
X003210Y001494D02*
X003210Y001909D01*
X003535Y001909D01*
X003573Y001899D01*
X003607Y001879D01*
X003635Y001851D01*
X003655Y001817D01*
X003665Y001779D01*
X003665Y001494D01*
X003210Y001494D01*
X003210Y001431D02*
X004677Y001431D01*
X004637Y001529D02*
X003665Y001529D01*
X003665Y001628D02*
X004634Y001628D01*
X004634Y001726D02*
X003665Y001726D01*
X003650Y001825D02*
X004634Y001825D01*
X004761Y001332D02*
X003665Y001332D01*
X003665Y001234D02*
X004860Y001234D01*
X004958Y001135D02*
X003665Y001135D01*
X003635Y001037D02*
X005099Y001037D01*
X005357Y001726D02*
X011069Y001726D01*
X010971Y001628D02*
X006956Y001628D01*
X007054Y001529D02*
X010913Y001529D01*
X010873Y001431D02*
X007153Y001431D01*
X007210Y001332D02*
X010832Y001332D01*
X011168Y001825D02*
X005334Y001825D01*
X005507Y001923D02*
X008062Y001923D01*
X008062Y001888D02*
X008121Y001829D01*
X009070Y001829D01*
X009129Y001888D01*
X009129Y003154D01*
X009754Y003154D01*
X009883Y003207D01*
X009981Y003306D01*
X010329Y003654D01*
X010338Y003654D01*
X010373Y003619D01*
X010540Y003550D01*
X011429Y003550D01*
X011596Y003619D01*
X011724Y003746D01*
X011793Y003913D01*
X011793Y004094D01*
X011724Y004261D01*
X011596Y004389D01*
X011429Y004458D01*
X010540Y004458D01*
X010373Y004389D01*
X010338Y004354D01*
X010115Y004354D01*
X009986Y004301D01*
X009540Y003854D01*
X009129Y003854D01*
X009129Y005120D01*
X009070Y005179D01*
X008121Y005179D01*
X008062Y005120D01*
X008062Y001888D01*
X008062Y002022D02*
X005507Y002022D01*
X005507Y002120D02*
X008062Y002120D01*
X008062Y002219D02*
X005507Y002219D01*
X005507Y002317D02*
X008062Y002317D01*
X008062Y002416D02*
X005507Y002416D01*
X005507Y002514D02*
X008062Y002514D01*
X008062Y002613D02*
X005507Y002613D01*
X005507Y002711D02*
X008062Y002711D01*
X008062Y002810D02*
X005507Y002810D01*
X005507Y002908D02*
X008062Y002908D01*
X008062Y003007D02*
X005507Y003007D01*
X005507Y003105D02*
X008062Y003105D01*
X008062Y003204D02*
X005507Y003204D01*
X005507Y003302D02*
X008062Y003302D01*
X008062Y003401D02*
X005507Y003401D01*
X005507Y003499D02*
X008062Y003499D01*
X008062Y003598D02*
X005507Y003598D01*
X005507Y003696D02*
X008062Y003696D01*
X008062Y003795D02*
X005507Y003795D01*
X005507Y003893D02*
X008062Y003893D01*
X008062Y003992D02*
X005507Y003992D01*
X005507Y004090D02*
X008062Y004090D01*
X008062Y004189D02*
X005507Y004189D01*
X005507Y004287D02*
X008062Y004287D01*
X008062Y004386D02*
X005507Y004386D01*
X005507Y004484D02*
X008062Y004484D01*
X008062Y004583D02*
X005507Y004583D01*
X005507Y004681D02*
X008062Y004681D01*
X008062Y004780D02*
X005507Y004780D01*
X005507Y004878D02*
X008062Y004878D01*
X008062Y004977D02*
X005507Y004977D01*
X005507Y005075D02*
X008062Y005075D01*
X008116Y005174D02*
X005453Y005174D01*
X004494Y005174D02*
X001692Y005174D01*
X001790Y005272D02*
X010256Y005272D01*
X010245Y005261D02*
X010176Y005094D01*
X010176Y004913D01*
X010245Y004746D01*
X010373Y004619D01*
X010540Y004550D01*
X011429Y004550D01*
X011596Y004619D01*
X011724Y004746D01*
X011793Y004913D01*
X011793Y005094D01*
X011724Y005261D01*
X011596Y005389D01*
X011429Y005458D01*
X010540Y005458D01*
X010373Y005389D01*
X010245Y005261D01*
X010209Y005174D02*
X009075Y005174D01*
X009129Y005075D02*
X010176Y005075D01*
X010176Y004977D02*
X009129Y004977D01*
X009129Y004878D02*
X010191Y004878D01*
X010231Y004780D02*
X009129Y004780D01*
X009129Y004681D02*
X010310Y004681D01*
X010460Y004583D02*
X009129Y004583D01*
X009129Y004484D02*
X012041Y004484D01*
X012041Y004386D02*
X011600Y004386D01*
X011698Y004287D02*
X012041Y004287D01*
X012041Y004189D02*
X011754Y004189D01*
X011793Y004090D02*
X012041Y004090D01*
X012041Y003992D02*
X011793Y003992D01*
X011785Y003893D02*
X012041Y003893D01*
X012041Y003795D02*
X011744Y003795D01*
X011673Y003696D02*
X012041Y003696D01*
X012041Y003598D02*
X011545Y003598D01*
X012041Y003499D02*
X010175Y003499D01*
X010273Y003598D02*
X010424Y003598D01*
X010076Y003401D02*
X012041Y003401D01*
X012041Y003302D02*
X009978Y003302D01*
X009874Y003204D02*
X012041Y003204D01*
X012041Y003105D02*
X009129Y003105D01*
X009129Y003007D02*
X012041Y003007D01*
X012041Y002908D02*
X009129Y002908D01*
X009129Y002810D02*
X012041Y002810D01*
X012041Y002711D02*
X009129Y002711D01*
X009129Y002613D02*
X012041Y002613D01*
X012041Y002514D02*
X009129Y002514D01*
X009129Y002416D02*
X012041Y002416D01*
X012041Y002317D02*
X009129Y002317D01*
X009129Y002219D02*
X012041Y002219D01*
X012041Y002120D02*
X009129Y002120D01*
X009129Y002022D02*
X012041Y002022D01*
X012041Y001923D02*
X011993Y001923D01*
X011376Y001923D02*
X009129Y001923D01*
X008512Y001234D02*
X007234Y001234D01*
X007234Y001135D02*
X008512Y001135D01*
X008583Y001037D02*
X007194Y001037D01*
X007114Y000938D02*
X008655Y000938D01*
X009111Y000938D02*
X009127Y000938D01*
X009126Y000840D02*
X000739Y000840D01*
X000739Y000938D02*
X006655Y000938D01*
X004440Y003992D02*
X003605Y003992D01*
X003605Y004090D02*
X004440Y004090D01*
X004440Y004386D02*
X003605Y004386D01*
X003605Y004484D02*
X004440Y004484D01*
X004440Y004583D02*
X003578Y004583D01*
X003210Y004583D02*
X003110Y004583D01*
X003110Y004484D02*
X003210Y004484D01*
X003210Y004386D02*
X003110Y004386D01*
X003210Y004289D02*
X003210Y004189D01*
X002715Y004090D02*
X002027Y004090D01*
X001970Y003992D02*
X002715Y003992D01*
X002743Y003893D02*
X002161Y003893D01*
X002251Y003795D02*
X002765Y003795D01*
X002765Y003696D02*
X002307Y003696D01*
X002335Y003598D02*
X002765Y003598D01*
X002765Y003499D02*
X001534Y003499D01*
X001534Y003401D02*
X001434Y003401D01*
X001434Y003302D02*
X001534Y003302D01*
X001534Y003204D02*
X001434Y003204D01*
X001434Y003105D02*
X001534Y003105D01*
X001534Y003007D02*
X001434Y003007D01*
X001046Y003007D02*
X000739Y003007D01*
X000739Y003105D02*
X000821Y003105D01*
X000739Y002908D02*
X000919Y002908D01*
X000793Y002810D02*
X000739Y002810D01*
X001434Y003598D02*
X001534Y003598D01*
X001534Y003696D02*
X001434Y003696D01*
X001434Y003795D02*
X001534Y003795D01*
X001534Y003893D02*
X001434Y003893D01*
X001434Y003992D02*
X001534Y003992D01*
X000999Y003992D02*
X000739Y003992D01*
X000739Y004090D02*
X000942Y004090D01*
X000803Y004189D02*
X000739Y004189D01*
X000739Y003893D02*
X000808Y003893D01*
X001374Y004977D02*
X004440Y004977D01*
X004440Y005075D02*
X001593Y005075D01*
X001852Y005371D02*
X010354Y005371D01*
X010369Y004386D02*
X009129Y004386D01*
X009129Y004287D02*
X009973Y004287D01*
X009874Y004189D02*
X009129Y004189D01*
X009129Y004090D02*
X009776Y004090D01*
X009677Y003992D02*
X009129Y003992D01*
X009129Y003893D02*
X009579Y003893D01*
X011509Y004583D02*
X012041Y004583D01*
X012041Y004681D02*
X011658Y004681D01*
X011738Y004780D02*
X012041Y004780D01*
X012041Y004878D02*
X011778Y004878D01*
X011793Y004977D02*
X012041Y004977D01*
X012041Y005075D02*
X011793Y005075D01*
X011760Y005174D02*
X012041Y005174D01*
X012041Y005272D02*
X011713Y005272D01*
X011615Y005371D02*
X012041Y005371D01*
X012041Y005469D02*
X001893Y005469D01*
X001934Y005568D02*
X012041Y005568D01*
X012041Y005666D02*
X001959Y005666D01*
X001959Y005765D02*
X012041Y005765D01*
X012041Y005863D02*
X001959Y005863D01*
X001959Y005962D02*
X012041Y005962D01*
X012041Y006060D02*
X001925Y006060D01*
X002107Y004878D02*
X004440Y004878D01*
X004440Y004780D02*
X002206Y004780D01*
X002257Y004681D02*
X004440Y004681D01*
X002742Y004583D02*
X002293Y004583D01*
X002293Y004484D02*
X002715Y004484D01*
X002715Y004386D02*
X002282Y004386D01*
X002333Y003401D02*
X002765Y003401D01*
X002765Y003302D02*
X002302Y003302D01*
X003110Y001825D02*
X003210Y001825D01*
X003210Y001726D02*
X003110Y001726D01*
X003110Y001628D02*
X003210Y001628D01*
X003210Y001332D02*
X003110Y001332D01*
X003110Y001234D02*
X003210Y001234D01*
X003210Y001135D02*
X003110Y001135D01*
X003110Y001037D02*
X003210Y001037D01*
X002686Y001037D02*
X000739Y001037D01*
X000739Y001135D02*
X002655Y001135D01*
X002655Y001234D02*
X000739Y001234D01*
X000739Y001332D02*
X002655Y001332D01*
X000700Y007137D02*
X000700Y008638D01*
X000706Y008624D01*
X000833Y008497D01*
X001000Y008427D01*
X001890Y008427D01*
X002057Y008497D01*
X002185Y008624D01*
X002254Y008791D01*
X002254Y008972D01*
X002185Y009139D01*
X002057Y009267D01*
X001890Y009336D01*
X001000Y009336D01*
X000833Y009267D01*
X000706Y009139D01*
X000700Y009126D01*
X000700Y009562D01*
X000706Y009553D01*
X000762Y009497D01*
X000826Y009450D01*
X000897Y009414D01*
X000973Y009390D01*
X001051Y009377D01*
X001395Y009377D01*
X001395Y009832D01*
X001495Y009832D01*
X001495Y009932D01*
X001395Y009932D01*
X001395Y010386D01*
X001051Y010386D01*
X000973Y010374D01*
X000897Y010349D01*
X000826Y010313D01*
X000762Y010266D01*
X000706Y010210D01*
X000700Y010202D01*
X000700Y010638D01*
X000706Y010624D01*
X000833Y010497D01*
X001000Y010427D01*
X001890Y010427D01*
X002057Y010497D01*
X002185Y010624D01*
X002254Y010791D01*
X002254Y010972D01*
X002185Y011139D01*
X002057Y011267D01*
X001890Y011336D01*
X001290Y011336D01*
X001541Y011440D01*
X001787Y011686D01*
X001920Y012008D01*
X001920Y012356D01*
X001847Y012532D01*
X012001Y012532D01*
X012001Y008281D01*
X011819Y008357D01*
X011471Y008357D01*
X011149Y008224D01*
X010903Y007977D01*
X010779Y007678D01*
X010775Y007682D01*
X010491Y007682D01*
X010488Y007678D01*
X010484Y007682D01*
X010307Y007682D01*
X010303Y007678D01*
X010300Y007682D01*
X010200Y007682D01*
X010165Y007646D01*
X010130Y007612D01*
X010130Y007382D01*
X010108Y007382D01*
X010108Y007452D01*
X010091Y007469D01*
X010108Y007486D01*
X010108Y007585D01*
X010012Y007682D01*
X009859Y007682D01*
X009843Y007666D01*
X009827Y007682D01*
X009675Y007682D01*
X009648Y007655D01*
X009646Y007653D01*
X009617Y007682D01*
X009517Y007682D01*
X009488Y007653D01*
X009459Y007682D01*
X009306Y007682D01*
X009291Y007666D01*
X009275Y007682D01*
X009122Y007682D01*
X009095Y007655D01*
X009080Y007640D01*
X009037Y007682D01*
X008938Y007682D01*
X008909Y007653D01*
X008880Y007682D01*
X008780Y007682D01*
X008765Y007666D01*
X008749Y007682D01*
X008543Y007682D01*
X008473Y007612D01*
X008473Y007486D01*
X008579Y007379D01*
X008579Y007352D01*
X008650Y007282D01*
X008933Y007282D01*
X008936Y007284D01*
X008938Y007282D01*
X009037Y007282D01*
X009080Y007324D01*
X009103Y007301D01*
X009086Y007285D01*
X009086Y007137D01*
X000700Y007137D01*
X000700Y007144D02*
X009086Y007144D01*
X009086Y007242D02*
X006939Y007242D01*
X006915Y007232D02*
X007043Y007285D01*
X007142Y007384D01*
X007195Y007512D01*
X007195Y007651D01*
X007142Y007780D01*
X006983Y007939D01*
X006884Y008038D01*
X006756Y008091D01*
X005331Y008091D01*
X005295Y008127D01*
X005295Y008207D01*
X005409Y008207D01*
X005467Y008266D01*
X005467Y011498D01*
X005409Y011557D01*
X004460Y011557D01*
X004401Y011498D01*
X004401Y010297D01*
X003553Y010297D01*
X003556Y010303D01*
X003566Y010341D01*
X003566Y010566D01*
X003171Y010566D01*
X003171Y010666D01*
X003566Y010666D01*
X003566Y010892D01*
X003556Y010930D01*
X003536Y010964D01*
X003508Y010992D01*
X003474Y011012D01*
X003436Y011022D01*
X003171Y011022D01*
X003171Y010666D01*
X003071Y010666D01*
X003071Y010566D01*
X002675Y010566D01*
X002675Y010341D01*
X002686Y010303D01*
X002705Y010268D01*
X002727Y010246D01*
X002725Y010244D01*
X002725Y009650D01*
X002784Y009591D01*
X003457Y009591D01*
X003463Y009597D01*
X004401Y009597D01*
X004401Y008266D01*
X004460Y008207D01*
X004595Y008207D01*
X004595Y007912D01*
X004648Y007784D01*
X004747Y007685D01*
X004988Y007444D01*
X005116Y007391D01*
X006541Y007391D01*
X006647Y007285D01*
X006775Y007232D01*
X006915Y007232D01*
X006751Y007242D02*
X000700Y007242D01*
X000700Y007341D02*
X006591Y007341D01*
X007099Y007341D02*
X008591Y007341D01*
X008519Y007439D02*
X007165Y007439D01*
X007195Y007538D02*
X008473Y007538D01*
X008497Y007636D02*
X007195Y007636D01*
X007161Y007735D02*
X010803Y007735D01*
X010844Y007833D02*
X007089Y007833D01*
X006990Y007932D02*
X010884Y007932D01*
X010956Y008030D02*
X006892Y008030D01*
X008023Y008266D02*
X008082Y008207D01*
X009031Y008207D01*
X009089Y008266D01*
X009089Y009532D01*
X009715Y009532D01*
X009843Y009585D01*
X009942Y009684D01*
X010290Y010032D01*
X010298Y010032D01*
X010333Y009997D01*
X010500Y009927D01*
X011390Y009927D01*
X011557Y009997D01*
X011685Y010124D01*
X011754Y010291D01*
X011754Y010472D01*
X011685Y010639D01*
X011557Y010767D01*
X011390Y010836D01*
X010500Y010836D01*
X010333Y010767D01*
X010298Y010732D01*
X010075Y010732D01*
X009947Y010679D01*
X009500Y010232D01*
X009089Y010232D01*
X009089Y011498D01*
X009031Y011557D01*
X008082Y011557D01*
X008023Y011498D01*
X008023Y008266D01*
X008062Y008227D02*
X005429Y008227D01*
X005467Y008326D02*
X008023Y008326D01*
X008023Y008424D02*
X005467Y008424D01*
X005467Y008523D02*
X008023Y008523D01*
X008023Y008621D02*
X005467Y008621D01*
X005467Y008720D02*
X008023Y008720D01*
X008023Y008818D02*
X005467Y008818D01*
X005467Y008917D02*
X008023Y008917D01*
X008023Y009015D02*
X005467Y009015D01*
X005467Y009114D02*
X008023Y009114D01*
X008023Y009212D02*
X005467Y009212D01*
X005467Y009311D02*
X008023Y009311D01*
X008023Y009409D02*
X005467Y009409D01*
X005467Y009508D02*
X008023Y009508D01*
X008023Y009606D02*
X005467Y009606D01*
X005467Y009705D02*
X008023Y009705D01*
X008023Y009803D02*
X005467Y009803D01*
X005467Y009902D02*
X008023Y009902D01*
X008023Y010000D02*
X005467Y010000D01*
X005467Y010099D02*
X008023Y010099D01*
X008023Y010197D02*
X005467Y010197D01*
X005467Y010296D02*
X008023Y010296D01*
X008023Y010394D02*
X005467Y010394D01*
X005467Y010493D02*
X008023Y010493D01*
X008023Y010591D02*
X005467Y010591D01*
X005467Y010690D02*
X008023Y010690D01*
X008023Y010788D02*
X005467Y010788D01*
X005467Y010887D02*
X008023Y010887D01*
X008023Y010985D02*
X005467Y010985D01*
X005467Y011084D02*
X008023Y011084D01*
X008023Y011182D02*
X005467Y011182D01*
X005467Y011281D02*
X008023Y011281D01*
X008023Y011379D02*
X005467Y011379D01*
X005467Y011478D02*
X008023Y011478D01*
X009089Y011478D02*
X010139Y011478D01*
X010136Y011472D02*
X010136Y011291D01*
X010206Y011124D01*
X010333Y010997D01*
X010500Y010927D01*
X011390Y010927D01*
X011557Y010997D01*
X011685Y011124D01*
X011754Y011291D01*
X011754Y011472D01*
X011685Y011639D01*
X011557Y011767D01*
X011390Y011836D01*
X010500Y011836D01*
X010333Y011767D01*
X010206Y011639D01*
X010136Y011472D01*
X010136Y011379D02*
X009089Y011379D01*
X009089Y011281D02*
X010141Y011281D01*
X010182Y011182D02*
X009089Y011182D01*
X009089Y011084D02*
X010247Y011084D01*
X010361Y010985D02*
X009089Y010985D01*
X009089Y010887D02*
X012001Y010887D01*
X012001Y010985D02*
X011529Y010985D01*
X011644Y011084D02*
X012001Y011084D01*
X012001Y011182D02*
X011708Y011182D01*
X011749Y011281D02*
X012001Y011281D01*
X012001Y011379D02*
X011754Y011379D01*
X011752Y011478D02*
X012001Y011478D01*
X012001Y011576D02*
X011711Y011576D01*
X011649Y011675D02*
X012001Y011675D01*
X012001Y011773D02*
X011542Y011773D01*
X012001Y011872D02*
X001864Y011872D01*
X001904Y011970D02*
X012001Y011970D01*
X012001Y012069D02*
X001920Y012069D01*
X001920Y012167D02*
X012001Y012167D01*
X012001Y012266D02*
X001920Y012266D01*
X001917Y012364D02*
X012001Y012364D01*
X012001Y012463D02*
X001876Y012463D01*
X001823Y011773D02*
X010348Y011773D01*
X010241Y011675D02*
X001775Y011675D01*
X001677Y011576D02*
X010179Y011576D01*
X010384Y010788D02*
X009089Y010788D01*
X009089Y010690D02*
X009973Y010690D01*
X009859Y010591D02*
X009089Y010591D01*
X009089Y010493D02*
X009761Y010493D01*
X009662Y010394D02*
X009089Y010394D01*
X009089Y010296D02*
X009564Y010296D01*
X010061Y009803D02*
X012001Y009803D01*
X012001Y009705D02*
X009963Y009705D01*
X009864Y009606D02*
X012001Y009606D01*
X012001Y009508D02*
X009089Y009508D01*
X009089Y009409D02*
X012001Y009409D01*
X012001Y009311D02*
X009089Y009311D01*
X009089Y009212D02*
X012001Y009212D01*
X012001Y009114D02*
X009089Y009114D01*
X009089Y009015D02*
X012001Y009015D01*
X012001Y008917D02*
X009089Y008917D01*
X009089Y008818D02*
X012001Y008818D01*
X012001Y008720D02*
X009089Y008720D01*
X009089Y008621D02*
X012001Y008621D01*
X012001Y008523D02*
X009089Y008523D01*
X009089Y008424D02*
X012001Y008424D01*
X012001Y008326D02*
X011895Y008326D01*
X011396Y008326D02*
X009089Y008326D01*
X009051Y008227D02*
X011158Y008227D01*
X011054Y008129D02*
X005295Y008129D01*
X004796Y007636D02*
X003626Y007636D01*
X003626Y007538D02*
X004894Y007538D01*
X005000Y007439D02*
X003610Y007439D01*
X003615Y007449D02*
X003626Y007487D01*
X003626Y007772D01*
X003171Y007772D01*
X003171Y007872D01*
X003626Y007872D01*
X003626Y008157D01*
X003615Y008195D01*
X003596Y008229D01*
X003568Y008257D01*
X003534Y008277D01*
X003495Y008287D01*
X003171Y008287D01*
X003171Y007872D01*
X003071Y007872D01*
X003071Y008287D01*
X002746Y008287D01*
X002708Y008277D01*
X002674Y008257D01*
X002646Y008229D01*
X002626Y008195D01*
X002616Y008157D01*
X002616Y007872D01*
X003071Y007872D01*
X003071Y007772D01*
X003171Y007772D01*
X003171Y007357D01*
X003495Y007357D01*
X003534Y007367D01*
X003568Y007387D01*
X003596Y007415D01*
X003615Y007449D01*
X003626Y007735D02*
X004697Y007735D01*
X004628Y007833D02*
X003171Y007833D01*
X003171Y007735D02*
X003071Y007735D01*
X003071Y007772D02*
X003071Y007357D01*
X002746Y007357D01*
X002708Y007367D01*
X002674Y007387D01*
X002646Y007415D01*
X002626Y007449D01*
X002616Y007487D01*
X002616Y007772D01*
X003071Y007772D01*
X003071Y007833D02*
X000700Y007833D01*
X000700Y007735D02*
X002616Y007735D01*
X002616Y007636D02*
X000700Y007636D01*
X000700Y007538D02*
X002616Y007538D01*
X002632Y007439D02*
X000700Y007439D01*
X000700Y007932D02*
X002616Y007932D01*
X002616Y008030D02*
X000700Y008030D01*
X000700Y008129D02*
X002616Y008129D01*
X002645Y008227D02*
X000700Y008227D01*
X000700Y008326D02*
X004401Y008326D01*
X004401Y008424D02*
X000700Y008424D01*
X000700Y008523D02*
X000808Y008523D01*
X000709Y008621D02*
X000700Y008621D01*
X000700Y009212D02*
X000778Y009212D01*
X000700Y009311D02*
X000939Y009311D01*
X000914Y009409D02*
X000700Y009409D01*
X000700Y009508D02*
X000752Y009508D01*
X001395Y009508D02*
X001495Y009508D01*
X001495Y009606D02*
X001395Y009606D01*
X001395Y009705D02*
X001495Y009705D01*
X001495Y009803D02*
X001395Y009803D01*
X001495Y009832D02*
X001495Y009377D01*
X001839Y009377D01*
X001918Y009390D01*
X001993Y009414D01*
X002064Y009450D01*
X002128Y009497D01*
X002184Y009553D01*
X002231Y009617D01*
X002267Y009688D01*
X002291Y009764D01*
X002302Y009832D01*
X001495Y009832D01*
X001495Y009902D02*
X002725Y009902D01*
X002725Y010000D02*
X002291Y010000D01*
X002267Y010075D01*
X002231Y010146D01*
X002184Y010210D01*
X002128Y010266D01*
X002064Y010313D01*
X001993Y010349D01*
X001918Y010374D01*
X001839Y010386D01*
X001495Y010386D01*
X001495Y009932D01*
X002302Y009932D01*
X002291Y010000D01*
X002255Y010099D02*
X002725Y010099D01*
X002725Y010197D02*
X002194Y010197D01*
X002088Y010296D02*
X002690Y010296D01*
X002675Y010394D02*
X000700Y010394D01*
X000700Y010296D02*
X000802Y010296D01*
X000843Y010493D02*
X000700Y010493D01*
X000700Y010591D02*
X000739Y010591D01*
X001395Y010296D02*
X001495Y010296D01*
X001495Y010197D02*
X001395Y010197D01*
X001395Y010099D02*
X001495Y010099D01*
X001495Y010000D02*
X001395Y010000D01*
X001395Y009409D02*
X001495Y009409D01*
X001952Y009311D02*
X002678Y009311D01*
X002666Y009298D02*
X002666Y008585D01*
X002724Y008527D01*
X003517Y008527D01*
X003576Y008585D01*
X003576Y009298D01*
X003517Y009357D01*
X002724Y009357D01*
X002666Y009298D01*
X002666Y009212D02*
X002112Y009212D01*
X002195Y009114D02*
X002666Y009114D01*
X002666Y009015D02*
X002236Y009015D01*
X002254Y008917D02*
X002666Y008917D01*
X002666Y008818D02*
X002254Y008818D01*
X002224Y008720D02*
X002666Y008720D01*
X002666Y008621D02*
X002181Y008621D01*
X002083Y008523D02*
X004401Y008523D01*
X004401Y008621D02*
X003576Y008621D01*
X003576Y008720D02*
X004401Y008720D01*
X004401Y008818D02*
X003576Y008818D01*
X003576Y008917D02*
X004401Y008917D01*
X004401Y009015D02*
X003576Y009015D01*
X003576Y009114D02*
X004401Y009114D01*
X004401Y009212D02*
X003576Y009212D01*
X003563Y009311D02*
X004401Y009311D01*
X004401Y009409D02*
X001976Y009409D01*
X002138Y009508D02*
X004401Y009508D01*
X004401Y010394D02*
X003566Y010394D01*
X003566Y010493D02*
X004401Y010493D01*
X004401Y010591D02*
X003171Y010591D01*
X003171Y010690D02*
X003071Y010690D01*
X003071Y010666D02*
X003071Y011022D01*
X002806Y011022D01*
X002768Y011012D01*
X002733Y010992D01*
X002705Y010964D01*
X002686Y010930D01*
X002675Y010892D01*
X002675Y010666D01*
X003071Y010666D01*
X003071Y010591D02*
X002151Y010591D01*
X002212Y010690D02*
X002675Y010690D01*
X002675Y010788D02*
X002252Y010788D01*
X002254Y010887D02*
X002675Y010887D01*
X002726Y010985D02*
X002248Y010985D01*
X002208Y011084D02*
X004401Y011084D01*
X004401Y011182D02*
X002142Y011182D01*
X002024Y011281D02*
X004401Y011281D01*
X004401Y011379D02*
X001394Y011379D01*
X001578Y011478D02*
X004401Y011478D01*
X004401Y010985D02*
X003515Y010985D01*
X003566Y010887D02*
X004401Y010887D01*
X004401Y010788D02*
X003566Y010788D01*
X003566Y010690D02*
X004401Y010690D01*
X003171Y010788D02*
X003071Y010788D01*
X003071Y010887D02*
X003171Y010887D01*
X003171Y010985D02*
X003071Y010985D01*
X002675Y010493D02*
X002047Y010493D01*
X002298Y009803D02*
X002725Y009803D01*
X002725Y009705D02*
X002272Y009705D01*
X002222Y009606D02*
X002769Y009606D01*
X003071Y008227D02*
X003171Y008227D01*
X003171Y008129D02*
X003071Y008129D01*
X003071Y008030D02*
X003171Y008030D01*
X003171Y007932D02*
X003071Y007932D01*
X003071Y007636D02*
X003171Y007636D01*
X003171Y007538D02*
X003071Y007538D01*
X003071Y007439D02*
X003171Y007439D01*
X003626Y007932D02*
X004595Y007932D01*
X004595Y008030D02*
X003626Y008030D01*
X003626Y008129D02*
X004595Y008129D01*
X004440Y008227D02*
X003597Y008227D01*
X000700Y013633D02*
X000700Y015134D01*
X000706Y015121D01*
X000833Y014993D01*
X001000Y014924D01*
X001890Y014924D01*
X002057Y014993D01*
X002185Y015121D01*
X002254Y015288D01*
X002254Y015468D01*
X002185Y015635D01*
X002057Y015763D01*
X001890Y015832D01*
X001000Y015832D01*
X000833Y015763D01*
X000706Y015635D01*
X000700Y015622D01*
X000700Y016058D01*
X000706Y016049D01*
X000762Y015993D01*
X000826Y015947D01*
X000897Y015910D01*
X000973Y015886D01*
X001051Y015874D01*
X001395Y015874D01*
X001395Y016328D01*
X001495Y016328D01*
X001495Y015874D01*
X001839Y015874D01*
X001918Y015886D01*
X001993Y015910D01*
X002064Y015947D01*
X002128Y015993D01*
X002184Y016049D01*
X002231Y016114D01*
X002267Y016184D01*
X002291Y016260D01*
X002302Y016328D01*
X001495Y016328D01*
X001495Y016428D01*
X001395Y016428D01*
X001395Y016882D01*
X001051Y016882D01*
X000973Y016870D01*
X000897Y016845D01*
X000826Y016809D01*
X000762Y016763D01*
X000706Y016706D01*
X000700Y016698D01*
X000700Y017134D01*
X000706Y017121D01*
X000833Y016993D01*
X001000Y016924D01*
X001890Y016924D01*
X002057Y016993D01*
X002185Y017121D01*
X002254Y017288D01*
X002254Y017468D01*
X002185Y017635D01*
X002057Y017763D01*
X001890Y017832D01*
X001290Y017832D01*
X001541Y017936D01*
X001787Y018182D01*
X001920Y018504D01*
X001920Y018852D01*
X001847Y019028D01*
X012001Y019028D01*
X012001Y014777D01*
X011819Y014853D01*
X011471Y014853D01*
X011149Y014720D01*
X010903Y014474D01*
X010779Y014174D01*
X010775Y014178D01*
X010491Y014178D01*
X010488Y014174D01*
X010484Y014178D01*
X010307Y014178D01*
X010303Y014174D01*
X010300Y014178D01*
X010200Y014178D01*
X010165Y014142D01*
X010130Y014108D01*
X010130Y013878D01*
X010108Y013878D01*
X010108Y013948D01*
X010091Y013965D01*
X010108Y013982D01*
X010108Y014081D01*
X010012Y014178D01*
X009859Y014178D01*
X009843Y014162D01*
X009827Y014178D01*
X009675Y014178D01*
X009648Y014151D01*
X009646Y014149D01*
X009617Y014178D01*
X009517Y014178D01*
X009488Y014149D01*
X009459Y014178D01*
X009306Y014178D01*
X009291Y014162D01*
X009275Y014178D01*
X009122Y014178D01*
X009095Y014151D01*
X009080Y014136D01*
X009037Y014178D01*
X008938Y014178D01*
X008909Y014149D01*
X008880Y014178D01*
X008780Y014178D01*
X008765Y014162D01*
X008749Y014178D01*
X008543Y014178D01*
X008473Y014108D01*
X008473Y013982D01*
X008579Y013875D01*
X008579Y013848D01*
X008650Y013778D01*
X008933Y013778D01*
X008936Y013780D01*
X008938Y013778D01*
X009037Y013778D01*
X009080Y013820D01*
X009103Y013797D01*
X009086Y013781D01*
X009086Y013633D01*
X000700Y013633D01*
X000700Y013645D02*
X009086Y013645D01*
X009086Y013743D02*
X006951Y013743D01*
X006915Y013728D02*
X007043Y013781D01*
X007142Y013880D01*
X007195Y014008D01*
X007195Y014147D01*
X007142Y014276D01*
X006983Y014435D01*
X006983Y014435D01*
X006884Y014534D01*
X006756Y014587D01*
X005331Y014587D01*
X005295Y014623D01*
X005295Y014703D01*
X005409Y014703D01*
X005467Y014762D01*
X005467Y017994D01*
X005409Y018053D01*
X004460Y018053D01*
X004401Y017994D01*
X004401Y016793D01*
X003553Y016793D01*
X003556Y016799D01*
X003566Y016837D01*
X003566Y017063D01*
X003171Y017063D01*
X003171Y017163D01*
X003071Y017163D01*
X003071Y017518D01*
X002806Y017518D01*
X002768Y017508D01*
X002733Y017488D01*
X002705Y017461D01*
X002686Y017426D01*
X002675Y017388D01*
X002675Y017163D01*
X003071Y017163D01*
X003071Y017063D01*
X002675Y017063D01*
X002675Y016837D01*
X002686Y016799D01*
X002705Y016765D01*
X002727Y016743D01*
X002725Y016741D01*
X002725Y016146D01*
X002784Y016087D01*
X003457Y016087D01*
X003463Y016093D01*
X004401Y016093D01*
X004401Y014762D01*
X004460Y014703D01*
X004595Y014703D01*
X004595Y014408D01*
X004648Y014280D01*
X004747Y014181D01*
X004988Y013940D01*
X003612Y013940D01*
X003615Y013945D02*
X003626Y013983D01*
X003626Y014268D01*
X003171Y014268D01*
X003171Y014368D01*
X003626Y014368D01*
X003626Y014653D01*
X003615Y014691D01*
X003596Y014725D01*
X003568Y014753D01*
X003534Y014773D01*
X003495Y014783D01*
X003171Y014783D01*
X003171Y014368D01*
X003071Y014368D01*
X003071Y014783D01*
X002746Y014783D01*
X002708Y014773D01*
X002674Y014753D01*
X002646Y014725D01*
X002626Y014691D01*
X002616Y014653D01*
X002616Y014368D01*
X003071Y014368D01*
X003071Y014268D01*
X003171Y014268D01*
X003171Y013853D01*
X003495Y013853D01*
X003534Y013863D01*
X003568Y013883D01*
X003596Y013911D01*
X003615Y013945D01*
X003626Y014039D02*
X004889Y014039D01*
X004791Y014137D02*
X003626Y014137D01*
X003626Y014236D02*
X004692Y014236D01*
X004626Y014334D02*
X003171Y014334D01*
X003171Y014236D02*
X003071Y014236D01*
X003071Y014268D02*
X003071Y013853D01*
X002746Y013853D01*
X002708Y013863D01*
X002674Y013883D01*
X002646Y013911D01*
X002626Y013945D01*
X002616Y013983D01*
X002616Y014268D01*
X003071Y014268D01*
X003071Y014334D02*
X000700Y014334D01*
X000700Y014236D02*
X002616Y014236D01*
X002616Y014137D02*
X000700Y014137D01*
X000700Y014039D02*
X002616Y014039D01*
X002629Y013940D02*
X000700Y013940D01*
X000700Y013842D02*
X006586Y013842D01*
X006541Y013887D02*
X006647Y013781D01*
X006775Y013728D01*
X006915Y013728D01*
X006739Y013743D02*
X000700Y013743D01*
X000700Y014433D02*
X002616Y014433D01*
X002616Y014531D02*
X000700Y014531D01*
X000700Y014630D02*
X002616Y014630D01*
X002649Y014728D02*
X000700Y014728D01*
X000700Y014827D02*
X004401Y014827D01*
X004401Y014925D02*
X001893Y014925D01*
X002088Y015024D02*
X002724Y015024D01*
X002724Y015023D02*
X002666Y015081D01*
X002666Y015794D01*
X002724Y015853D01*
X003517Y015853D01*
X003576Y015794D01*
X003576Y015081D01*
X003517Y015023D01*
X002724Y015023D01*
X002666Y015122D02*
X002185Y015122D01*
X002226Y015221D02*
X002666Y015221D01*
X002666Y015319D02*
X002254Y015319D01*
X002254Y015418D02*
X002666Y015418D01*
X002666Y015516D02*
X002234Y015516D01*
X002193Y015615D02*
X002666Y015615D01*
X002666Y015713D02*
X002107Y015713D01*
X001940Y015812D02*
X002683Y015812D01*
X002764Y016107D02*
X002226Y016107D01*
X002274Y016206D02*
X002725Y016206D01*
X002725Y016304D02*
X002298Y016304D01*
X002302Y016428D02*
X002291Y016496D01*
X002267Y016571D01*
X002231Y016642D01*
X002184Y016706D01*
X002128Y016763D01*
X002064Y016809D01*
X001993Y016845D01*
X001918Y016870D01*
X001839Y016882D01*
X001495Y016882D01*
X001495Y016428D01*
X002302Y016428D01*
X002290Y016501D02*
X002725Y016501D01*
X002725Y016403D02*
X001495Y016403D01*
X001495Y016501D02*
X001395Y016501D01*
X001395Y016600D02*
X001495Y016600D01*
X001495Y016698D02*
X001395Y016698D01*
X001395Y016797D02*
X001495Y016797D01*
X001495Y016304D02*
X001395Y016304D01*
X001395Y016206D02*
X001495Y016206D01*
X001495Y016107D02*
X001395Y016107D01*
X001395Y016009D02*
X001495Y016009D01*
X001495Y015910D02*
X001395Y015910D01*
X000951Y015812D02*
X000700Y015812D01*
X000700Y015910D02*
X000899Y015910D01*
X000747Y016009D02*
X000700Y016009D01*
X000700Y015713D02*
X000783Y015713D01*
X000700Y015122D02*
X000705Y015122D01*
X000700Y015024D02*
X000803Y015024D01*
X000700Y014925D02*
X000997Y014925D01*
X001992Y015910D02*
X004401Y015910D01*
X004401Y015812D02*
X003558Y015812D01*
X003576Y015713D02*
X004401Y015713D01*
X004401Y015615D02*
X003576Y015615D01*
X003576Y015516D02*
X004401Y015516D01*
X004401Y015418D02*
X003576Y015418D01*
X003576Y015319D02*
X004401Y015319D01*
X004401Y015221D02*
X003576Y015221D01*
X003576Y015122D02*
X004401Y015122D01*
X004401Y015024D02*
X003518Y015024D01*
X003593Y014728D02*
X004435Y014728D01*
X004595Y014630D02*
X003626Y014630D01*
X003626Y014531D02*
X004595Y014531D01*
X004595Y014433D02*
X003626Y014433D01*
X003171Y014433D02*
X003071Y014433D01*
X003071Y014531D02*
X003171Y014531D01*
X003171Y014630D02*
X003071Y014630D01*
X003071Y014728D02*
X003171Y014728D01*
X003171Y014137D02*
X003071Y014137D01*
X003071Y014039D02*
X003171Y014039D01*
X003171Y013940D02*
X003071Y013940D01*
X004988Y013940D02*
X005116Y013887D01*
X006541Y013887D01*
X007104Y013842D02*
X008586Y013842D01*
X008514Y013940D02*
X007167Y013940D01*
X007195Y014039D02*
X008473Y014039D01*
X008502Y014137D02*
X007195Y014137D01*
X007159Y014236D02*
X010805Y014236D01*
X010846Y014334D02*
X007084Y014334D01*
X006985Y014433D02*
X010886Y014433D01*
X010961Y014531D02*
X006887Y014531D01*
X008023Y014762D02*
X008082Y014703D01*
X009031Y014703D01*
X009089Y014762D01*
X009089Y016028D01*
X009715Y016028D01*
X009843Y016081D01*
X009942Y016180D01*
X010290Y016528D01*
X010298Y016528D01*
X010333Y016493D01*
X010500Y016424D01*
X011390Y016424D01*
X011557Y016493D01*
X011685Y016621D01*
X011754Y016788D01*
X011754Y016968D01*
X011685Y017135D01*
X011557Y017263D01*
X011390Y017332D01*
X010500Y017332D01*
X010333Y017263D01*
X010298Y017228D01*
X010075Y017228D01*
X009947Y017175D01*
X009500Y016728D01*
X009089Y016728D01*
X009089Y017994D01*
X009031Y018053D01*
X008082Y018053D01*
X008023Y017994D01*
X008023Y014762D01*
X008057Y014728D02*
X005434Y014728D01*
X005467Y014827D02*
X008023Y014827D01*
X008023Y014925D02*
X005467Y014925D01*
X005467Y015024D02*
X008023Y015024D01*
X008023Y015122D02*
X005467Y015122D01*
X005467Y015221D02*
X008023Y015221D01*
X008023Y015319D02*
X005467Y015319D01*
X005467Y015418D02*
X008023Y015418D01*
X008023Y015516D02*
X005467Y015516D01*
X005467Y015615D02*
X008023Y015615D01*
X008023Y015713D02*
X005467Y015713D01*
X005467Y015812D02*
X008023Y015812D01*
X008023Y015910D02*
X005467Y015910D01*
X005467Y016009D02*
X008023Y016009D01*
X008023Y016107D02*
X005467Y016107D01*
X005467Y016206D02*
X008023Y016206D01*
X008023Y016304D02*
X005467Y016304D01*
X005467Y016403D02*
X008023Y016403D01*
X008023Y016501D02*
X005467Y016501D01*
X005467Y016600D02*
X008023Y016600D01*
X008023Y016698D02*
X005467Y016698D01*
X005467Y016797D02*
X008023Y016797D01*
X008023Y016895D02*
X005467Y016895D01*
X005467Y016994D02*
X008023Y016994D01*
X008023Y017092D02*
X005467Y017092D01*
X005467Y017191D02*
X008023Y017191D01*
X008023Y017289D02*
X005467Y017289D01*
X005467Y017388D02*
X008023Y017388D01*
X008023Y017486D02*
X005467Y017486D01*
X005467Y017585D02*
X008023Y017585D01*
X008023Y017683D02*
X005467Y017683D01*
X005467Y017782D02*
X008023Y017782D01*
X008023Y017880D02*
X005467Y017880D01*
X005467Y017979D02*
X008023Y017979D01*
X009089Y017979D02*
X010141Y017979D01*
X010136Y017968D02*
X010136Y017788D01*
X010206Y017621D01*
X010333Y017493D01*
X010500Y017424D01*
X011390Y017424D01*
X011557Y017493D01*
X011685Y017621D01*
X011754Y017788D01*
X011754Y017968D01*
X011685Y018135D01*
X011557Y018263D01*
X011390Y018332D01*
X010500Y018332D01*
X010333Y018263D01*
X010206Y018135D01*
X010136Y017968D01*
X010136Y017880D02*
X009089Y017880D01*
X009089Y017782D02*
X010139Y017782D01*
X010180Y017683D02*
X009089Y017683D01*
X009089Y017585D02*
X010242Y017585D01*
X010350Y017486D02*
X009089Y017486D01*
X009089Y017388D02*
X012001Y017388D01*
X012001Y017486D02*
X011541Y017486D01*
X011649Y017585D02*
X012001Y017585D01*
X012001Y017683D02*
X011711Y017683D01*
X011751Y017782D02*
X012001Y017782D01*
X012001Y017880D02*
X011754Y017880D01*
X011750Y017979D02*
X012001Y017979D01*
X012001Y018077D02*
X011709Y018077D01*
X011644Y018176D02*
X012001Y018176D01*
X012001Y018274D02*
X011530Y018274D01*
X012001Y018373D02*
X001866Y018373D01*
X001907Y018471D02*
X012001Y018471D01*
X012001Y018570D02*
X001920Y018570D01*
X001920Y018668D02*
X012001Y018668D01*
X012001Y018767D02*
X001920Y018767D01*
X001915Y018865D02*
X012001Y018865D01*
X012001Y018964D02*
X001874Y018964D01*
X001825Y018274D02*
X010360Y018274D01*
X010246Y018176D02*
X001780Y018176D01*
X001682Y018077D02*
X010182Y018077D01*
X010396Y017289D02*
X009089Y017289D01*
X009089Y017191D02*
X009985Y017191D01*
X009864Y017092D02*
X009089Y017092D01*
X009089Y016994D02*
X009766Y016994D01*
X009667Y016895D02*
X009089Y016895D01*
X009089Y016797D02*
X009569Y016797D01*
X010066Y016304D02*
X012001Y016304D01*
X012001Y016206D02*
X009968Y016206D01*
X009869Y016107D02*
X012001Y016107D01*
X012001Y016009D02*
X009089Y016009D01*
X009089Y015910D02*
X012001Y015910D01*
X012001Y015812D02*
X009089Y015812D01*
X009089Y015713D02*
X012001Y015713D01*
X012001Y015615D02*
X009089Y015615D01*
X009089Y015516D02*
X012001Y015516D01*
X012001Y015418D02*
X009089Y015418D01*
X009089Y015319D02*
X012001Y015319D01*
X012001Y015221D02*
X009089Y015221D01*
X009089Y015122D02*
X012001Y015122D01*
X012001Y015024D02*
X009089Y015024D01*
X009089Y014925D02*
X012001Y014925D01*
X012001Y014827D02*
X011883Y014827D01*
X011407Y014827D02*
X009089Y014827D01*
X009056Y014728D02*
X011170Y014728D01*
X011059Y014630D02*
X005295Y014630D01*
X004401Y016009D02*
X002143Y016009D01*
X002253Y016600D02*
X002725Y016600D01*
X002725Y016698D02*
X002190Y016698D01*
X002081Y016797D02*
X002687Y016797D01*
X002675Y016895D02*
X000700Y016895D01*
X000700Y016797D02*
X000809Y016797D01*
X000833Y016994D02*
X000700Y016994D01*
X000700Y017092D02*
X000734Y017092D01*
X001405Y017880D02*
X004401Y017880D01*
X004401Y017782D02*
X002012Y017782D01*
X002137Y017683D02*
X004401Y017683D01*
X004401Y017585D02*
X002206Y017585D01*
X002246Y017486D02*
X002731Y017486D01*
X002675Y017388D02*
X002254Y017388D01*
X002254Y017289D02*
X002675Y017289D01*
X002675Y017191D02*
X002214Y017191D01*
X002156Y017092D02*
X003071Y017092D01*
X003071Y017191D02*
X003171Y017191D01*
X003171Y017163D02*
X003171Y017518D01*
X003436Y017518D01*
X003474Y017508D01*
X003508Y017488D01*
X003536Y017461D01*
X003556Y017426D01*
X003566Y017388D01*
X003566Y017163D01*
X003171Y017163D01*
X003171Y017092D02*
X004401Y017092D01*
X004401Y016994D02*
X003566Y016994D01*
X003566Y016895D02*
X004401Y016895D01*
X004401Y016797D02*
X003555Y016797D01*
X003566Y017191D02*
X004401Y017191D01*
X004401Y017289D02*
X003566Y017289D01*
X003566Y017388D02*
X004401Y017388D01*
X004401Y017486D02*
X003510Y017486D01*
X003171Y017486D02*
X003071Y017486D01*
X003071Y017388D02*
X003171Y017388D01*
X003171Y017289D02*
X003071Y017289D01*
X002675Y016994D02*
X002058Y016994D01*
X001583Y017979D02*
X004401Y017979D01*
X009078Y014137D02*
X009081Y014137D01*
X009095Y014151D02*
X009095Y014151D01*
X010052Y014137D02*
X010159Y014137D01*
X010130Y014039D02*
X010108Y014039D01*
X010108Y013940D02*
X010130Y013940D01*
X010165Y016403D02*
X012001Y016403D01*
X012001Y016501D02*
X011565Y016501D01*
X011664Y016600D02*
X012001Y016600D01*
X012001Y016698D02*
X011717Y016698D01*
X011754Y016797D02*
X012001Y016797D01*
X012001Y016895D02*
X011754Y016895D01*
X011743Y016994D02*
X012001Y016994D01*
X012001Y017092D02*
X011703Y017092D01*
X011629Y017191D02*
X012001Y017191D01*
X012001Y017289D02*
X011494Y017289D01*
X010325Y016501D02*
X010263Y016501D01*
X013437Y015820D02*
X017688Y015820D01*
X017612Y015638D01*
X017612Y015290D01*
X017746Y014968D01*
X017992Y014722D01*
X018313Y014589D01*
X018662Y014589D01*
X018832Y014660D01*
X018832Y014627D01*
X018791Y014627D01*
X018684Y014520D01*
X018658Y014520D01*
X018587Y014450D01*
X018587Y014166D01*
X018590Y014164D01*
X018587Y014161D01*
X018587Y014062D01*
X018630Y014020D01*
X018607Y013997D01*
X018591Y014013D01*
X018358Y014013D01*
X018287Y013942D01*
X018287Y013843D01*
X018291Y013839D01*
X018287Y013836D01*
X018287Y013552D01*
X018303Y013536D01*
X018287Y013521D01*
X018287Y013421D01*
X018299Y013410D01*
X018287Y013398D01*
X018287Y013168D01*
X018291Y013164D01*
X018287Y013160D01*
X018287Y013061D01*
X018290Y013059D01*
X018287Y013056D01*
X018287Y012877D01*
X018358Y012807D01*
X018587Y012807D01*
X018587Y012799D01*
X018591Y012796D01*
X018587Y012792D01*
X018587Y012785D01*
X018518Y012785D01*
X018465Y012732D01*
X018358Y012732D01*
X018287Y012661D01*
X018287Y012562D01*
X018303Y012546D01*
X018287Y012531D01*
X018287Y012431D01*
X018291Y012428D01*
X018287Y012424D01*
X018287Y012324D01*
X018358Y012254D01*
X018564Y012254D01*
X018605Y012295D01*
X018611Y012301D01*
X018658Y012254D01*
X018832Y012254D01*
X018832Y004519D01*
X017332Y004519D01*
X017345Y004525D01*
X017473Y004652D01*
X017542Y004819D01*
X017542Y005709D01*
X017473Y005876D01*
X017345Y006004D01*
X017178Y006073D01*
X016997Y006073D01*
X016830Y006004D01*
X016702Y005876D01*
X016633Y005709D01*
X016633Y004819D01*
X016702Y004652D01*
X016830Y004525D01*
X016843Y004519D01*
X016408Y004519D01*
X016416Y004525D01*
X016472Y004581D01*
X016519Y004645D01*
X016555Y004716D01*
X016579Y004792D01*
X016592Y004870D01*
X016592Y005214D01*
X016137Y005214D01*
X016137Y005314D01*
X016037Y005314D01*
X016037Y005214D01*
X015583Y005214D01*
X015583Y004870D01*
X015596Y004792D01*
X015620Y004716D01*
X015656Y004645D01*
X015703Y004581D01*
X015759Y004525D01*
X015767Y004519D01*
X015332Y004519D01*
X015345Y004525D01*
X015473Y004652D01*
X015542Y004819D01*
X015542Y005709D01*
X015473Y005876D01*
X015345Y006004D01*
X015178Y006073D01*
X014997Y006073D01*
X014830Y006004D01*
X014702Y005876D01*
X014633Y005709D01*
X014633Y005109D01*
X014529Y005360D01*
X014283Y005606D01*
X013962Y005739D01*
X013613Y005739D01*
X013437Y005666D01*
X013437Y005666D01*
X013437Y015820D01*
X013437Y015812D02*
X017684Y015812D01*
X017644Y015713D02*
X013437Y015713D01*
X013437Y015615D02*
X017612Y015615D01*
X017612Y015516D02*
X015815Y015516D01*
X015845Y015504D02*
X015678Y015573D01*
X015497Y015573D01*
X015330Y015504D01*
X015202Y015376D01*
X015133Y015209D01*
X015133Y014319D01*
X015202Y014152D01*
X015237Y014117D01*
X015237Y013894D01*
X015291Y013766D01*
X015737Y013319D01*
X015737Y012908D01*
X014471Y012908D01*
X014413Y012850D01*
X014413Y011901D01*
X014471Y011842D01*
X017704Y011842D01*
X017762Y011901D01*
X017762Y012850D01*
X017704Y012908D01*
X016437Y012908D01*
X016437Y013534D01*
X016384Y013662D01*
X016286Y013761D01*
X015937Y014109D01*
X015937Y014117D01*
X015973Y014152D01*
X016042Y014319D01*
X016042Y015209D01*
X015973Y015376D01*
X015845Y015504D01*
X015931Y015418D02*
X017612Y015418D01*
X017612Y015319D02*
X015996Y015319D01*
X016037Y015221D02*
X017641Y015221D01*
X017682Y015122D02*
X016042Y015122D01*
X016042Y015024D02*
X017723Y015024D01*
X017789Y014925D02*
X016042Y014925D01*
X016042Y014827D02*
X017888Y014827D01*
X017986Y014728D02*
X016042Y014728D01*
X016042Y014630D02*
X018216Y014630D01*
X018587Y014433D02*
X016042Y014433D01*
X016042Y014531D02*
X018696Y014531D01*
X018759Y014630D02*
X018832Y014630D01*
X018587Y014334D02*
X016042Y014334D01*
X016007Y014236D02*
X018587Y014236D01*
X018587Y014137D02*
X015957Y014137D01*
X016008Y014039D02*
X018611Y014039D01*
X018287Y013940D02*
X016106Y013940D01*
X016205Y013842D02*
X018289Y013842D01*
X018287Y013743D02*
X016303Y013743D01*
X016392Y013645D02*
X018287Y013645D01*
X018294Y013546D02*
X016432Y013546D01*
X016437Y013448D02*
X018287Y013448D01*
X018287Y013349D02*
X016437Y013349D01*
X016437Y013251D02*
X018287Y013251D01*
X018287Y013152D02*
X016437Y013152D01*
X016437Y013054D02*
X018287Y013054D01*
X018287Y012955D02*
X016437Y012955D01*
X015737Y012955D02*
X013437Y012955D01*
X013437Y012857D02*
X014420Y012857D01*
X014413Y012758D02*
X013437Y012758D01*
X013437Y012660D02*
X014413Y012660D01*
X014413Y012561D02*
X013437Y012561D01*
X013437Y012463D02*
X014413Y012463D01*
X014413Y012364D02*
X013437Y012364D01*
X013437Y012266D02*
X014413Y012266D01*
X014413Y012167D02*
X013437Y012167D01*
X013437Y012069D02*
X014413Y012069D01*
X014413Y011970D02*
X013437Y011970D01*
X013437Y011872D02*
X014442Y011872D01*
X013437Y011773D02*
X018832Y011773D01*
X018832Y011675D02*
X013437Y011675D01*
X013437Y011576D02*
X018832Y011576D01*
X018832Y011478D02*
X013437Y011478D01*
X013437Y011379D02*
X018832Y011379D01*
X018832Y011281D02*
X013437Y011281D01*
X013437Y011182D02*
X018832Y011182D01*
X018832Y011084D02*
X013437Y011084D01*
X013437Y010985D02*
X018248Y010985D01*
X018189Y010961D02*
X018318Y011014D01*
X018457Y011014D01*
X018586Y010961D01*
X018684Y010862D01*
X018737Y010734D01*
X018737Y010594D01*
X018684Y010466D01*
X018578Y010360D01*
X018578Y008935D01*
X018525Y008807D01*
X018284Y008566D01*
X018186Y008467D01*
X018057Y008414D01*
X017762Y008414D01*
X017762Y008278D01*
X017704Y008220D01*
X016372Y008220D01*
X016372Y007282D01*
X016378Y007276D01*
X016378Y006603D01*
X016319Y006544D01*
X015725Y006544D01*
X015723Y006546D01*
X015701Y006524D01*
X015667Y006505D01*
X015628Y006494D01*
X015403Y006494D01*
X015403Y006890D01*
X015303Y006890D01*
X014947Y006890D01*
X014947Y006625D01*
X014957Y006586D01*
X014977Y006552D01*
X015005Y006524D01*
X015039Y006505D01*
X015077Y006494D01*
X015303Y006494D01*
X015303Y006890D01*
X015303Y006990D01*
X015303Y007385D01*
X015077Y007385D01*
X015039Y007375D01*
X015005Y007355D01*
X014977Y007327D01*
X014957Y007293D01*
X014947Y007255D01*
X014947Y006990D01*
X015303Y006990D01*
X015403Y006990D01*
X015403Y007385D01*
X015628Y007385D01*
X015667Y007375D01*
X015672Y007371D01*
X015672Y008220D01*
X014471Y008220D01*
X014413Y008278D01*
X014413Y009227D01*
X014471Y009286D01*
X017704Y009286D01*
X017762Y009227D01*
X017762Y009114D01*
X017843Y009114D01*
X017878Y009150D01*
X017878Y010575D01*
X017932Y010703D01*
X018030Y010802D01*
X018189Y010961D01*
X018115Y010887D02*
X013437Y010887D01*
X013437Y010788D02*
X018017Y010788D01*
X017926Y010690D02*
X013437Y010690D01*
X013437Y010591D02*
X017885Y010591D01*
X017878Y010493D02*
X013437Y010493D01*
X013437Y010394D02*
X017878Y010394D01*
X017878Y010296D02*
X013437Y010296D01*
X013437Y010197D02*
X017878Y010197D01*
X017878Y010099D02*
X013437Y010099D01*
X013437Y010000D02*
X017878Y010000D01*
X017878Y009902D02*
X013437Y009902D01*
X013437Y009803D02*
X017878Y009803D01*
X017878Y009705D02*
X013437Y009705D01*
X013437Y009606D02*
X017878Y009606D01*
X017878Y009508D02*
X013437Y009508D01*
X013437Y009409D02*
X017878Y009409D01*
X017878Y009311D02*
X013437Y009311D01*
X013437Y009212D02*
X014413Y009212D01*
X014413Y009114D02*
X013437Y009114D01*
X013437Y009015D02*
X014413Y009015D01*
X014413Y008917D02*
X013437Y008917D01*
X013437Y008818D02*
X014413Y008818D01*
X014413Y008720D02*
X013437Y008720D01*
X013437Y008621D02*
X014413Y008621D01*
X014413Y008523D02*
X013437Y008523D01*
X013437Y008424D02*
X014413Y008424D01*
X014413Y008326D02*
X013437Y008326D01*
X013437Y008227D02*
X014464Y008227D01*
X014990Y007341D02*
X013437Y007341D01*
X013437Y007439D02*
X015672Y007439D01*
X015672Y007538D02*
X013437Y007538D01*
X013437Y007636D02*
X015672Y007636D01*
X015672Y007735D02*
X013437Y007735D01*
X013437Y007833D02*
X015672Y007833D01*
X015672Y007932D02*
X013437Y007932D01*
X013437Y008030D02*
X015672Y008030D01*
X015672Y008129D02*
X013437Y008129D01*
X013437Y007242D02*
X014947Y007242D01*
X014947Y007144D02*
X013437Y007144D01*
X013437Y007045D02*
X014947Y007045D01*
X014947Y006848D02*
X013437Y006848D01*
X013437Y006750D02*
X014947Y006750D01*
X014947Y006651D02*
X013437Y006651D01*
X013437Y006553D02*
X014977Y006553D01*
X015303Y006553D02*
X015403Y006553D01*
X015403Y006651D02*
X015303Y006651D01*
X015303Y006750D02*
X015403Y006750D01*
X015403Y006848D02*
X015303Y006848D01*
X015303Y006947D02*
X013437Y006947D01*
X013437Y006454D02*
X017759Y006454D01*
X017774Y006445D02*
X017813Y006435D01*
X018097Y006435D01*
X018097Y006890D01*
X017682Y006890D01*
X017682Y006565D01*
X017693Y006527D01*
X017712Y006493D01*
X017740Y006465D01*
X017774Y006445D01*
X017686Y006553D02*
X017443Y006553D01*
X017443Y006543D02*
X017384Y006485D01*
X016671Y006485D01*
X016613Y006543D01*
X016613Y007336D01*
X016671Y007395D01*
X017384Y007395D01*
X017443Y007336D01*
X017443Y006543D01*
X017443Y006651D02*
X017682Y006651D01*
X017682Y006750D02*
X017443Y006750D01*
X017443Y006848D02*
X017682Y006848D01*
X017682Y006990D02*
X018097Y006990D01*
X018097Y007445D01*
X017813Y007445D01*
X017774Y007434D01*
X017740Y007415D01*
X017712Y007387D01*
X017693Y007352D01*
X017682Y007314D01*
X017682Y006990D01*
X017682Y007045D02*
X017443Y007045D01*
X017443Y006947D02*
X018097Y006947D01*
X018097Y006990D02*
X018097Y006890D01*
X018197Y006890D01*
X018197Y006990D01*
X018097Y006990D01*
X018097Y007045D02*
X018197Y007045D01*
X018197Y006990D02*
X018197Y007445D01*
X018482Y007445D01*
X018520Y007434D01*
X018554Y007415D01*
X018582Y007387D01*
X018602Y007352D01*
X018612Y007314D01*
X018612Y006990D01*
X018197Y006990D01*
X018197Y006947D02*
X018832Y006947D01*
X018832Y007045D02*
X018612Y007045D01*
X018612Y007144D02*
X018832Y007144D01*
X018832Y007242D02*
X018612Y007242D01*
X018605Y007341D02*
X018832Y007341D01*
X018832Y007439D02*
X018503Y007439D01*
X018197Y007439D02*
X018097Y007439D01*
X018097Y007341D02*
X018197Y007341D01*
X018197Y007242D02*
X018097Y007242D01*
X018097Y007144D02*
X018197Y007144D01*
X018197Y006890D02*
X018612Y006890D01*
X018612Y006565D01*
X018602Y006527D01*
X018582Y006493D01*
X018554Y006465D01*
X018520Y006445D01*
X018482Y006435D01*
X018197Y006435D01*
X018197Y006890D01*
X018197Y006848D02*
X018097Y006848D01*
X018097Y006750D02*
X018197Y006750D01*
X018197Y006651D02*
X018097Y006651D01*
X018097Y006553D02*
X018197Y006553D01*
X018197Y006454D02*
X018097Y006454D01*
X018536Y006454D02*
X018832Y006454D01*
X018832Y006356D02*
X013437Y006356D01*
X013437Y006257D02*
X018832Y006257D01*
X018832Y006159D02*
X013437Y006159D01*
X013437Y006060D02*
X014967Y006060D01*
X014788Y005962D02*
X013437Y005962D01*
X013437Y005863D02*
X014697Y005863D01*
X014656Y005765D02*
X013437Y005765D01*
X014138Y005666D02*
X014633Y005666D01*
X014633Y005568D02*
X014321Y005568D01*
X014420Y005469D02*
X014633Y005469D01*
X014633Y005371D02*
X014518Y005371D01*
X014566Y005272D02*
X014633Y005272D01*
X014633Y005174D02*
X014606Y005174D01*
X015542Y005174D02*
X015583Y005174D01*
X015583Y005075D02*
X015542Y005075D01*
X015542Y004977D02*
X015583Y004977D01*
X015583Y004878D02*
X015542Y004878D01*
X015525Y004780D02*
X015599Y004780D01*
X015638Y004681D02*
X015485Y004681D01*
X015403Y004583D02*
X015702Y004583D01*
X015542Y005272D02*
X016037Y005272D01*
X016037Y005314D02*
X015583Y005314D01*
X015583Y005658D01*
X015596Y005736D01*
X015620Y005812D01*
X015656Y005883D01*
X015703Y005947D01*
X015759Y006003D01*
X015823Y006050D01*
X015894Y006086D01*
X015969Y006110D01*
X016037Y006121D01*
X016037Y005314D01*
X016037Y005371D02*
X016137Y005371D01*
X016137Y005314D02*
X016137Y006121D01*
X016206Y006110D01*
X016281Y006086D01*
X016352Y006050D01*
X016416Y006003D01*
X016472Y005947D01*
X016519Y005883D01*
X016555Y005812D01*
X016579Y005736D01*
X016592Y005658D01*
X016592Y005314D01*
X016137Y005314D01*
X016137Y005272D02*
X016633Y005272D01*
X016633Y005174D02*
X016592Y005174D01*
X016592Y005075D02*
X016633Y005075D01*
X016633Y004977D02*
X016592Y004977D01*
X016592Y004878D02*
X016633Y004878D01*
X016650Y004780D02*
X016575Y004780D01*
X016537Y004681D02*
X016690Y004681D01*
X016772Y004583D02*
X016473Y004583D01*
X016592Y005371D02*
X016633Y005371D01*
X016633Y005469D02*
X016592Y005469D01*
X016592Y005568D02*
X016633Y005568D01*
X016633Y005666D02*
X016591Y005666D01*
X016570Y005765D02*
X016656Y005765D01*
X016697Y005863D02*
X016529Y005863D01*
X016458Y005962D02*
X016788Y005962D01*
X016967Y006060D02*
X016332Y006060D01*
X016137Y006060D02*
X016037Y006060D01*
X016037Y005962D02*
X016137Y005962D01*
X016137Y005863D02*
X016037Y005863D01*
X016037Y005765D02*
X016137Y005765D01*
X016137Y005666D02*
X016037Y005666D01*
X016037Y005568D02*
X016137Y005568D01*
X016137Y005469D02*
X016037Y005469D01*
X015605Y005765D02*
X015519Y005765D01*
X015542Y005666D02*
X015584Y005666D01*
X015583Y005568D02*
X015542Y005568D01*
X015542Y005469D02*
X015583Y005469D01*
X015583Y005371D02*
X015542Y005371D01*
X015478Y005863D02*
X015646Y005863D01*
X015717Y005962D02*
X015387Y005962D01*
X015208Y006060D02*
X015843Y006060D01*
X016328Y006553D02*
X016613Y006553D01*
X016613Y006651D02*
X016378Y006651D01*
X016378Y006750D02*
X016613Y006750D01*
X016613Y006848D02*
X016378Y006848D01*
X016378Y006947D02*
X016613Y006947D01*
X016613Y007045D02*
X016378Y007045D01*
X016378Y007144D02*
X016613Y007144D01*
X016613Y007242D02*
X016378Y007242D01*
X016372Y007341D02*
X016617Y007341D01*
X016372Y007439D02*
X017792Y007439D01*
X017689Y007341D02*
X017438Y007341D01*
X017443Y007242D02*
X017682Y007242D01*
X017682Y007144D02*
X017443Y007144D01*
X017208Y006060D02*
X018832Y006060D01*
X018832Y005962D02*
X017387Y005962D01*
X017478Y005863D02*
X018832Y005863D01*
X018832Y005765D02*
X017519Y005765D01*
X017542Y005666D02*
X018832Y005666D01*
X018832Y005568D02*
X017542Y005568D01*
X017542Y005469D02*
X018832Y005469D01*
X018832Y005371D02*
X017542Y005371D01*
X017542Y005272D02*
X018832Y005272D01*
X018832Y005174D02*
X017542Y005174D01*
X017542Y005075D02*
X018832Y005075D01*
X018832Y004977D02*
X017542Y004977D01*
X017542Y004878D02*
X018832Y004878D01*
X018832Y004780D02*
X017525Y004780D01*
X017485Y004681D02*
X018832Y004681D01*
X018832Y004583D02*
X017403Y004583D01*
X018609Y006553D02*
X018832Y006553D01*
X018832Y006651D02*
X018612Y006651D01*
X018612Y006750D02*
X018832Y006750D01*
X018832Y006848D02*
X018612Y006848D01*
X018832Y007538D02*
X016372Y007538D01*
X016372Y007636D02*
X018832Y007636D01*
X018832Y007735D02*
X016372Y007735D01*
X016372Y007833D02*
X018832Y007833D01*
X018832Y007932D02*
X016372Y007932D01*
X016372Y008030D02*
X018832Y008030D01*
X018832Y008129D02*
X016372Y008129D01*
X015403Y007341D02*
X015303Y007341D01*
X015303Y007242D02*
X015403Y007242D01*
X015403Y007144D02*
X015303Y007144D01*
X015303Y007045D02*
X015403Y007045D01*
X017711Y008227D02*
X018832Y008227D01*
X018832Y008326D02*
X017762Y008326D01*
X018081Y008424D02*
X018832Y008424D01*
X018832Y008523D02*
X018241Y008523D01*
X018339Y008621D02*
X018832Y008621D01*
X018832Y008720D02*
X018438Y008720D01*
X018530Y008818D02*
X018832Y008818D01*
X018832Y008917D02*
X018571Y008917D01*
X018578Y009015D02*
X018832Y009015D01*
X018832Y009114D02*
X018578Y009114D01*
X018578Y009212D02*
X018832Y009212D01*
X018832Y009311D02*
X018578Y009311D01*
X018578Y009409D02*
X018832Y009409D01*
X018832Y009508D02*
X018578Y009508D01*
X018578Y009606D02*
X018832Y009606D01*
X018832Y009705D02*
X018578Y009705D01*
X018578Y009803D02*
X018832Y009803D01*
X018832Y009902D02*
X018578Y009902D01*
X018578Y010000D02*
X018832Y010000D01*
X018832Y010099D02*
X018578Y010099D01*
X018578Y010197D02*
X018832Y010197D01*
X018832Y010296D02*
X018578Y010296D01*
X018612Y010394D02*
X018832Y010394D01*
X018832Y010493D02*
X018695Y010493D01*
X018736Y010591D02*
X018832Y010591D01*
X018832Y010690D02*
X018737Y010690D01*
X018715Y010788D02*
X018832Y010788D01*
X018832Y010887D02*
X018660Y010887D01*
X018527Y010985D02*
X018832Y010985D01*
X018832Y011872D02*
X017733Y011872D01*
X017762Y011970D02*
X018832Y011970D01*
X018832Y012069D02*
X017762Y012069D01*
X017762Y012167D02*
X018832Y012167D01*
X018646Y012266D02*
X018575Y012266D01*
X018346Y012266D02*
X017762Y012266D01*
X017762Y012364D02*
X018287Y012364D01*
X018287Y012463D02*
X017762Y012463D01*
X017762Y012561D02*
X018288Y012561D01*
X018287Y012660D02*
X017762Y012660D01*
X017762Y012758D02*
X018491Y012758D01*
X018308Y012857D02*
X017755Y012857D01*
X015737Y013054D02*
X013437Y013054D01*
X013437Y013152D02*
X015737Y013152D01*
X015737Y013251D02*
X013437Y013251D01*
X013437Y013349D02*
X015707Y013349D01*
X015609Y013448D02*
X013437Y013448D01*
X013437Y013546D02*
X015510Y013546D01*
X015412Y013645D02*
X013437Y013645D01*
X013437Y013743D02*
X015313Y013743D01*
X015259Y013842D02*
X013437Y013842D01*
X013437Y013940D02*
X015237Y013940D01*
X015237Y014039D02*
X014859Y014039D01*
X014845Y014025D02*
X014973Y014152D01*
X015042Y014319D01*
X015042Y015209D01*
X014973Y015376D01*
X014845Y015504D01*
X014678Y015573D01*
X014497Y015573D01*
X014330Y015504D01*
X014202Y015376D01*
X014133Y015209D01*
X014133Y014319D01*
X014202Y014152D01*
X014330Y014025D01*
X014497Y013955D01*
X014678Y013955D01*
X014845Y014025D01*
X014957Y014137D02*
X015218Y014137D01*
X015168Y014236D02*
X015007Y014236D01*
X015042Y014334D02*
X015133Y014334D01*
X015133Y014433D02*
X015042Y014433D01*
X015042Y014531D02*
X015133Y014531D01*
X015133Y014630D02*
X015042Y014630D01*
X015042Y014728D02*
X015133Y014728D01*
X015133Y014827D02*
X015042Y014827D01*
X015042Y014925D02*
X015133Y014925D01*
X015133Y015024D02*
X015042Y015024D01*
X015042Y015122D02*
X015133Y015122D01*
X015138Y015221D02*
X015037Y015221D01*
X014996Y015319D02*
X015179Y015319D01*
X015244Y015418D02*
X014931Y015418D01*
X014815Y015516D02*
X015360Y015516D01*
X014360Y015516D02*
X013437Y015516D01*
X013437Y015418D02*
X014244Y015418D01*
X014179Y015319D02*
X013437Y015319D01*
X013437Y015221D02*
X014138Y015221D01*
X014133Y015122D02*
X013437Y015122D01*
X013437Y015024D02*
X014133Y015024D01*
X014133Y014925D02*
X013437Y014925D01*
X013437Y014827D02*
X014133Y014827D01*
X014133Y014728D02*
X013437Y014728D01*
X013437Y014630D02*
X014133Y014630D01*
X014133Y014531D02*
X013437Y014531D01*
X013437Y014433D02*
X014133Y014433D01*
X014133Y014334D02*
X013437Y014334D01*
X013437Y014236D02*
X014168Y014236D01*
X014218Y014137D02*
X013437Y014137D01*
X013437Y014039D02*
X014316Y014039D01*
X012001Y010788D02*
X011506Y010788D01*
X011634Y010690D02*
X012001Y010690D01*
X012001Y010591D02*
X011705Y010591D01*
X011745Y010493D02*
X012001Y010493D01*
X012001Y010394D02*
X011754Y010394D01*
X011754Y010296D02*
X012001Y010296D01*
X012001Y010197D02*
X011715Y010197D01*
X011659Y010099D02*
X012001Y010099D01*
X012001Y010000D02*
X011560Y010000D01*
X012001Y009902D02*
X010160Y009902D01*
X010258Y010000D02*
X010330Y010000D01*
X010154Y007636D02*
X010057Y007636D01*
X010108Y007538D02*
X010130Y007538D01*
X010130Y007439D02*
X010108Y007439D01*
X010121Y001234D02*
X010169Y001234D01*
X010169Y001135D02*
X010148Y001135D01*
X010148Y001037D02*
X010169Y001037D01*
X017762Y009212D02*
X017878Y009212D01*
D19*
X018387Y010664D03*
X017937Y005834D03*
X013637Y006264D03*
X009384Y005804D03*
X006845Y007582D03*
X002484Y005954D03*
X002015Y008032D03*
X002445Y012332D03*
X002015Y014528D03*
X002445Y018828D03*
X006845Y014078D03*
X009345Y012182D03*
X013787Y013164D03*
X009345Y018678D03*
X002054Y001654D03*
X006884Y001204D03*
D20*
X006725Y001363D01*
X005225Y001363D01*
X004984Y001604D01*
X004984Y003493D01*
X004973Y003504D01*
X004908Y003569D01*
X003160Y003569D01*
X006845Y007582D02*
X006686Y007741D01*
X005186Y007741D01*
X004945Y007982D01*
X004945Y009871D01*
X004934Y009882D01*
X004869Y009947D01*
X003121Y009947D01*
X006845Y014078D02*
X006686Y014237D01*
X005186Y014237D01*
X004945Y014478D01*
X004945Y016367D01*
X004934Y016378D01*
X004869Y016443D01*
X003121Y016443D01*
X008556Y016378D02*
X009645Y016378D01*
X010145Y016878D01*
X010945Y016878D01*
X015587Y014764D02*
X015587Y013964D01*
X016087Y013464D01*
X016087Y012375D01*
X018228Y010505D02*
X018228Y009005D01*
X017987Y008764D01*
X016099Y008764D01*
X016087Y008753D01*
X016022Y008688D01*
X016022Y006940D01*
X018228Y010505D02*
X018387Y010664D01*
X010945Y010382D02*
X010145Y010382D01*
X009645Y009882D01*
X008556Y009882D01*
X010184Y004004D02*
X009684Y003504D01*
X008596Y003504D01*
X010184Y004004D02*
X010984Y004004D01*
M02*
