G75*
G70*
%OFA0B0*%
%FSLAX24Y24*%
%IPPOS*%
%LPD*%
%AMOC8*
5,1,8,0,0,1.08239X$1,22.5*
%
%ADD10C,0.0970*%
%ADD11R,0.0600X0.0300*%
%ADD12C,0.0789*%
%ADD13R,0.0592X0.0671*%
%ADD14R,0.0789X0.1340*%
%ADD15R,0.0960X0.0560*%
%ADD16R,0.0946X0.1497*%
%ADD17R,0.0580X0.0300*%
%ADD18R,0.0710X0.0790*%
%ADD19R,0.0790X0.0710*%
%ADD20C,0.0330*%
%ADD21R,0.0513X0.0474*%
%ADD22R,0.0631X0.0474*%
%ADD23R,0.0300X0.0600*%
%ADD24R,0.0671X0.0592*%
%ADD25R,0.1340X0.0789*%
%ADD26R,0.0560X0.0960*%
%ADD27R,0.1497X0.0946*%
%ADD28R,0.0300X0.0580*%
%ADD29R,0.0474X0.0513*%
%ADD30R,0.0474X0.0631*%
%ADD31C,0.0476*%
D10*
X001360Y005850D03*
X001350Y012300D03*
X001350Y018960D03*
X011950Y014260D03*
X011950Y007600D03*
X014110Y007550D03*
X011960Y001150D03*
X018810Y018150D03*
D11*
X003760Y016410D03*
X003760Y015670D03*
X002840Y015670D03*
X002840Y016040D03*
X002840Y016410D03*
X002840Y009750D03*
X002840Y009380D03*
X002840Y009010D03*
X003760Y009010D03*
X003760Y009750D03*
X003770Y003300D03*
X003770Y002560D03*
X002850Y002560D03*
X002850Y002930D03*
X002850Y003300D03*
D12*
X002114Y003550D02*
X001406Y003550D01*
X001406Y002550D02*
X002114Y002550D01*
X002114Y004550D02*
X001406Y004550D01*
X001396Y009000D02*
X002104Y009000D01*
X002104Y010000D02*
X001396Y010000D01*
X001396Y011000D02*
X002104Y011000D01*
X002104Y015660D02*
X001396Y015660D01*
X001396Y016660D02*
X002104Y016660D01*
X002104Y017660D02*
X001396Y017660D01*
X010896Y017160D02*
X011604Y017160D01*
X011604Y018160D02*
X010896Y018160D01*
X014910Y017804D02*
X014910Y017096D01*
X015910Y017096D02*
X015910Y017804D01*
X011604Y011500D02*
X010896Y011500D01*
X010896Y010500D02*
X011604Y010500D01*
X015410Y008304D02*
X015410Y007596D01*
X016410Y007596D02*
X016410Y008304D01*
X017410Y008304D02*
X017410Y007596D01*
X011614Y005050D02*
X010906Y005050D01*
X010906Y004050D02*
X011614Y004050D01*
D13*
X005615Y001780D03*
X004945Y001780D03*
X004935Y008230D03*
X005605Y008230D03*
X005605Y014890D03*
X004935Y014890D03*
D14*
X006828Y011890D03*
X009032Y011890D03*
X009042Y005440D03*
X006838Y005440D03*
X006828Y018550D03*
X009032Y018550D03*
D15*
X007830Y016170D03*
X007830Y015260D03*
X007830Y014350D03*
X007830Y009510D03*
X007830Y008600D03*
X007830Y007690D03*
X007840Y003060D03*
X007840Y002150D03*
X007840Y001240D03*
D16*
X010280Y002150D03*
X010270Y008600D03*
X010270Y015260D03*
D17*
X006160Y015840D03*
X006160Y016210D03*
X006160Y016580D03*
X005140Y016580D03*
X005140Y016210D03*
X005140Y015840D03*
X005140Y009920D03*
X005140Y009550D03*
X005140Y009180D03*
X006160Y009180D03*
X006160Y009550D03*
X006160Y009920D03*
X006170Y003470D03*
X006170Y003100D03*
X006170Y002730D03*
X005150Y002730D03*
X005150Y003100D03*
X005150Y003470D03*
D18*
X007200Y003950D03*
X008320Y003950D03*
X014400Y009950D03*
X014400Y010950D03*
X014400Y011950D03*
X015520Y011950D03*
X015520Y010950D03*
X015520Y009950D03*
X008310Y010400D03*
X007190Y010400D03*
X007190Y017060D03*
X008310Y017060D03*
D19*
X005750Y017550D03*
X004750Y017550D03*
X003750Y017550D03*
X003750Y018670D03*
X004750Y018670D03*
X005750Y018670D03*
X005750Y012010D03*
X004750Y012010D03*
X003750Y012010D03*
X003750Y010890D03*
X004750Y010890D03*
X005750Y010890D03*
X005760Y005560D03*
X004760Y005560D03*
X003760Y005560D03*
X003760Y004440D03*
X004760Y004440D03*
X005760Y004440D03*
X016010Y013390D03*
X016010Y014510D03*
D20*
X016660Y012850D03*
X015410Y012650D03*
X016610Y010850D03*
X017310Y010450D03*
X015660Y008950D03*
X006650Y009750D03*
X006450Y011000D03*
X004650Y009800D03*
X004250Y009100D03*
X002750Y010750D03*
X004250Y015760D03*
X004650Y016460D03*
X006450Y017660D03*
X006650Y016410D03*
X002750Y017410D03*
X006460Y004550D03*
X006660Y003300D03*
X004660Y003350D03*
X004260Y002650D03*
X002760Y004300D03*
D21*
X002995Y001790D03*
X003665Y001790D03*
X003655Y008240D03*
X002985Y008240D03*
X002985Y014900D03*
X003655Y014900D03*
D22*
X009247Y016876D03*
X009247Y017624D03*
X010113Y017250D03*
X009247Y010964D03*
X009247Y010216D03*
X010113Y010590D03*
X009257Y004514D03*
X009257Y003766D03*
X010123Y004140D03*
D23*
X016660Y009040D03*
X017030Y009040D03*
X017400Y009040D03*
X017400Y009960D03*
X016660Y009960D03*
D24*
X018180Y011135D03*
X018180Y011805D03*
D25*
X014520Y013028D03*
X014520Y015232D03*
D26*
X016900Y014030D03*
X017810Y014030D03*
X018720Y014030D03*
D27*
X017810Y016470D03*
D28*
X017230Y012360D03*
X016860Y012360D03*
X016490Y012360D03*
X016490Y011340D03*
X016860Y011340D03*
X017230Y011340D03*
D29*
X018170Y009855D03*
X018170Y009185D03*
D30*
X016194Y015447D03*
X015446Y015447D03*
X015820Y016313D03*
D31*
X002330Y001700D03*
X002760Y006000D03*
X002320Y008150D03*
X002750Y012450D03*
X002320Y014810D03*
X002750Y019110D03*
X007150Y014360D03*
X010020Y012290D03*
X013960Y008950D03*
X010030Y005840D03*
X007150Y007700D03*
X007160Y001250D03*
X018260Y008520D03*
X018710Y013350D03*
X014120Y016220D03*
X010020Y018950D03*
M02*
