%
M48
M72
T01C0.0236
T02C0.0472
T03C0.1250
%
T01
X2054Y1654
X2015Y8032
X2484Y5954
X6845Y7582
X9384Y5804
X13637Y6264
X17937Y5834
X18387Y10664
X13787Y13164
X9345Y18678
X6845Y14078
X9345Y12182
X2445Y12332
X2015Y14528
X2445Y18828
X6884Y1204
T02
X1484Y2504
X1484Y3504
X1484Y4504
X1445Y8882
X1445Y9882
X1445Y10882
X1445Y15378
X1445Y16378
X1445Y17378
X10945Y17878
X10945Y16878
X15087Y5264
X16087Y5264
X17087Y5264
X10984Y5004
X10984Y4004
X10945Y10382
X10945Y11382
X14587Y14764
X15587Y14764
T03
X1084Y5804
X1045Y12182
X1045Y18678
X11645Y13978
X13787Y4864
X11645Y7482
X11684Y1104
X18487Y15464
M30
