%
M48
M72
T01C0.0236
T02C0.0472
T03C0.0890
%
T01
X2330Y1700
X2320Y8150
X2760Y6000
X7150Y7700
X10030Y5840
X18260Y8520
X13960Y8950
X10020Y12290
X10020Y18950
X14120Y16220
X18710Y13350
X7150Y14360
X2750Y12450
X2320Y14810
X2750Y19110
X7160Y1250
T02
X1760Y2550
X1760Y3550
X1760Y4550
X1750Y9000
X1750Y10000
X1750Y11000
X1750Y15660
X1750Y16660
X1750Y17660
X11250Y18160
X11250Y17160
X11260Y5050
X11260Y4050
X15410Y7950
X16410Y7950
X17410Y7950
X11250Y10500
X11250Y11500
X14910Y17450
X15910Y17450
T03
X1360Y5850
X1350Y12300
X1350Y18960
X11950Y14260
X14110Y7550
X11950Y7600
X11960Y1150
X18810Y18150
M30
