G75*
G70*
%OFA0B0*%
%FSLAX24Y24*%
%IPPOS*%
%LPD*%
%AMOC8*
5,1,8,0,0,1.08239X$1,22.5*
%
%ADD10C,0.0010*%
%ADD11C,0.0000*%
%ADD12C,0.0100*%
D10*
X000760Y000550D02*
X000760Y006456D01*
X012571Y006456D01*
X012571Y000550D01*
X000760Y000550D01*
X001930Y002100D02*
X002730Y001300D01*
X001930Y001300D02*
X002730Y002100D01*
X002160Y002550D02*
X001360Y002550D01*
X001760Y002150D02*
X002160Y002550D01*
X001760Y002150D02*
X001760Y002950D01*
X001360Y002550D01*
X001360Y003550D02*
X002160Y003550D01*
X001760Y003150D01*
X001760Y003950D01*
X001360Y003550D01*
X001360Y004550D02*
X002160Y004550D01*
X001760Y004150D01*
X001760Y004950D01*
X001360Y004550D01*
X000970Y005850D02*
X000972Y005889D01*
X000978Y005927D01*
X000987Y005965D01*
X001001Y006001D01*
X001017Y006037D01*
X001038Y006070D01*
X001061Y006101D01*
X001088Y006129D01*
X001117Y006155D01*
X001148Y006178D01*
X001182Y006197D01*
X001218Y006213D01*
X001254Y006225D01*
X001292Y006234D01*
X001331Y006239D01*
X001370Y006240D01*
X001408Y006237D01*
X001447Y006230D01*
X001484Y006220D01*
X001520Y006205D01*
X001555Y006188D01*
X001588Y006167D01*
X001618Y006142D01*
X001646Y006115D01*
X001671Y006085D01*
X001693Y006053D01*
X001711Y006019D01*
X001726Y005983D01*
X001738Y005946D01*
X001746Y005908D01*
X001750Y005869D01*
X001750Y005831D01*
X001746Y005792D01*
X001738Y005754D01*
X001726Y005717D01*
X001711Y005681D01*
X001693Y005647D01*
X001671Y005615D01*
X001646Y005585D01*
X001618Y005558D01*
X001588Y005533D01*
X001555Y005512D01*
X001520Y005495D01*
X001484Y005480D01*
X001447Y005470D01*
X001408Y005463D01*
X001370Y005460D01*
X001331Y005461D01*
X001292Y005466D01*
X001254Y005475D01*
X001218Y005487D01*
X001182Y005503D01*
X001148Y005522D01*
X001117Y005545D01*
X001088Y005571D01*
X001061Y005599D01*
X001038Y005630D01*
X001017Y005663D01*
X001001Y005699D01*
X000987Y005735D01*
X000978Y005773D01*
X000972Y005811D01*
X000970Y005850D01*
X000960Y005450D02*
X001760Y006250D01*
X002360Y006400D02*
X003160Y005600D01*
X002360Y005600D02*
X003160Y006400D01*
X002720Y007750D02*
X001920Y008550D01*
X001920Y007750D02*
X002720Y008550D01*
X002150Y009000D02*
X001350Y009000D01*
X001750Y008600D02*
X002150Y009000D01*
X001750Y008600D02*
X001750Y009400D01*
X001350Y009000D01*
X001350Y010000D02*
X002150Y010000D01*
X001750Y009600D01*
X001750Y010400D01*
X001350Y010000D01*
X001350Y011000D02*
X002150Y011000D01*
X001750Y010600D01*
X001750Y011400D01*
X001350Y011000D01*
X000960Y012300D02*
X000962Y012339D01*
X000968Y012377D01*
X000977Y012415D01*
X000991Y012451D01*
X001007Y012487D01*
X001028Y012520D01*
X001051Y012551D01*
X001078Y012579D01*
X001107Y012605D01*
X001138Y012628D01*
X001172Y012647D01*
X001208Y012663D01*
X001244Y012675D01*
X001282Y012684D01*
X001321Y012689D01*
X001360Y012690D01*
X001398Y012687D01*
X001437Y012680D01*
X001474Y012670D01*
X001510Y012655D01*
X001545Y012638D01*
X001578Y012617D01*
X001608Y012592D01*
X001636Y012565D01*
X001661Y012535D01*
X001683Y012503D01*
X001701Y012469D01*
X001716Y012433D01*
X001728Y012396D01*
X001736Y012358D01*
X001740Y012319D01*
X001740Y012281D01*
X001736Y012242D01*
X001728Y012204D01*
X001716Y012167D01*
X001701Y012131D01*
X001683Y012097D01*
X001661Y012065D01*
X001636Y012035D01*
X001608Y012008D01*
X001578Y011983D01*
X001545Y011962D01*
X001510Y011945D01*
X001474Y011930D01*
X001437Y011920D01*
X001398Y011913D01*
X001360Y011910D01*
X001321Y011911D01*
X001282Y011916D01*
X001244Y011925D01*
X001208Y011937D01*
X001172Y011953D01*
X001138Y011972D01*
X001107Y011995D01*
X001078Y012021D01*
X001051Y012049D01*
X001028Y012080D01*
X001007Y012113D01*
X000991Y012149D01*
X000977Y012185D01*
X000968Y012223D01*
X000962Y012261D01*
X000960Y012300D01*
X000950Y011900D02*
X001750Y012700D01*
X000750Y012906D02*
X000750Y007000D01*
X012561Y007000D01*
X012561Y012906D01*
X000750Y012906D01*
X000750Y013660D02*
X000750Y019566D01*
X012561Y019566D01*
X012561Y013660D01*
X000750Y013660D01*
X001920Y015210D02*
X002720Y014410D01*
X001920Y014410D02*
X002720Y015210D01*
X002150Y015660D02*
X001350Y015660D01*
X001750Y015260D02*
X002150Y015660D01*
X001750Y015260D02*
X001750Y016060D01*
X001350Y015660D01*
X001350Y016660D02*
X002150Y016660D01*
X001750Y016260D01*
X001750Y017060D01*
X001350Y016660D01*
X001350Y017660D02*
X002150Y017660D01*
X001750Y017260D01*
X001750Y018060D01*
X001350Y017660D01*
X000960Y018960D02*
X000962Y018999D01*
X000968Y019037D01*
X000977Y019075D01*
X000991Y019111D01*
X001007Y019147D01*
X001028Y019180D01*
X001051Y019211D01*
X001078Y019239D01*
X001107Y019265D01*
X001138Y019288D01*
X001172Y019307D01*
X001208Y019323D01*
X001244Y019335D01*
X001282Y019344D01*
X001321Y019349D01*
X001360Y019350D01*
X001398Y019347D01*
X001437Y019340D01*
X001474Y019330D01*
X001510Y019315D01*
X001545Y019298D01*
X001578Y019277D01*
X001608Y019252D01*
X001636Y019225D01*
X001661Y019195D01*
X001683Y019163D01*
X001701Y019129D01*
X001716Y019093D01*
X001728Y019056D01*
X001736Y019018D01*
X001740Y018979D01*
X001740Y018941D01*
X001736Y018902D01*
X001728Y018864D01*
X001716Y018827D01*
X001701Y018791D01*
X001683Y018757D01*
X001661Y018725D01*
X001636Y018695D01*
X001608Y018668D01*
X001578Y018643D01*
X001545Y018622D01*
X001510Y018605D01*
X001474Y018590D01*
X001437Y018580D01*
X001398Y018573D01*
X001360Y018570D01*
X001321Y018571D01*
X001282Y018576D01*
X001244Y018585D01*
X001208Y018597D01*
X001172Y018613D01*
X001138Y018632D01*
X001107Y018655D01*
X001078Y018681D01*
X001051Y018709D01*
X001028Y018740D01*
X001007Y018773D01*
X000991Y018809D01*
X000977Y018845D01*
X000968Y018883D01*
X000962Y018921D01*
X000960Y018960D01*
X000950Y018560D02*
X001750Y019360D01*
X002350Y019510D02*
X003150Y018710D01*
X002350Y018710D02*
X003150Y019510D01*
X006750Y014760D02*
X007550Y013960D01*
X006750Y013960D02*
X007550Y014760D01*
X009620Y012690D02*
X010420Y011890D01*
X009620Y011890D02*
X010420Y012690D01*
X010850Y011500D02*
X011650Y011500D01*
X011250Y011100D01*
X011250Y011900D01*
X010850Y011500D01*
X010850Y010500D02*
X011650Y010500D01*
X011250Y010100D01*
X011250Y010900D01*
X010850Y010500D01*
X011560Y007600D02*
X011562Y007639D01*
X011568Y007677D01*
X011577Y007715D01*
X011591Y007751D01*
X011607Y007787D01*
X011628Y007820D01*
X011651Y007851D01*
X011678Y007879D01*
X011707Y007905D01*
X011738Y007928D01*
X011772Y007947D01*
X011808Y007963D01*
X011844Y007975D01*
X011882Y007984D01*
X011921Y007989D01*
X011960Y007990D01*
X011998Y007987D01*
X012037Y007980D01*
X012074Y007970D01*
X012110Y007955D01*
X012145Y007938D01*
X012178Y007917D01*
X012208Y007892D01*
X012236Y007865D01*
X012261Y007835D01*
X012283Y007803D01*
X012301Y007769D01*
X012316Y007733D01*
X012328Y007696D01*
X012336Y007658D01*
X012340Y007619D01*
X012340Y007581D01*
X012336Y007542D01*
X012328Y007504D01*
X012316Y007467D01*
X012301Y007431D01*
X012283Y007397D01*
X012261Y007365D01*
X012236Y007335D01*
X012208Y007308D01*
X012178Y007283D01*
X012145Y007262D01*
X012110Y007245D01*
X012074Y007230D01*
X012037Y007220D01*
X011998Y007213D01*
X011960Y007210D01*
X011921Y007211D01*
X011882Y007216D01*
X011844Y007225D01*
X011808Y007237D01*
X011772Y007253D01*
X011738Y007272D01*
X011707Y007295D01*
X011678Y007321D01*
X011651Y007349D01*
X011628Y007380D01*
X011607Y007413D01*
X011591Y007449D01*
X011577Y007485D01*
X011568Y007523D01*
X011562Y007561D01*
X011560Y007600D01*
X011550Y007200D02*
X012350Y008000D01*
X013504Y006950D02*
X019410Y006950D01*
X019410Y018761D01*
X013504Y018761D01*
X013504Y006950D01*
X013720Y007550D02*
X013722Y007589D01*
X013728Y007627D01*
X013737Y007665D01*
X013751Y007701D01*
X013767Y007737D01*
X013788Y007770D01*
X013811Y007801D01*
X013838Y007829D01*
X013867Y007855D01*
X013898Y007878D01*
X013932Y007897D01*
X013968Y007913D01*
X014004Y007925D01*
X014042Y007934D01*
X014081Y007939D01*
X014120Y007940D01*
X014158Y007937D01*
X014197Y007930D01*
X014234Y007920D01*
X014270Y007905D01*
X014305Y007888D01*
X014338Y007867D01*
X014368Y007842D01*
X014396Y007815D01*
X014421Y007785D01*
X014443Y007753D01*
X014461Y007719D01*
X014476Y007683D01*
X014488Y007646D01*
X014496Y007608D01*
X014500Y007569D01*
X014500Y007531D01*
X014496Y007492D01*
X014488Y007454D01*
X014476Y007417D01*
X014461Y007381D01*
X014443Y007347D01*
X014421Y007315D01*
X014396Y007285D01*
X014368Y007258D01*
X014338Y007233D01*
X014305Y007212D01*
X014270Y007195D01*
X014234Y007180D01*
X014197Y007170D01*
X014158Y007163D01*
X014120Y007160D01*
X014081Y007161D01*
X014042Y007166D01*
X014004Y007175D01*
X013968Y007187D01*
X013932Y007203D01*
X013898Y007222D01*
X013867Y007245D01*
X013838Y007271D01*
X013811Y007299D01*
X013788Y007330D01*
X013767Y007363D01*
X013751Y007399D01*
X013737Y007435D01*
X013728Y007473D01*
X013722Y007511D01*
X013720Y007550D01*
X013710Y007150D02*
X014510Y007950D01*
X015010Y007950D02*
X015810Y007950D01*
X015410Y007550D01*
X015410Y008350D01*
X015010Y007950D01*
X014360Y008550D02*
X013560Y009350D01*
X013560Y008550D02*
X014360Y009350D01*
X016010Y007950D02*
X016810Y007950D01*
X016410Y007550D01*
X016410Y008350D01*
X016010Y007950D01*
X017010Y007950D02*
X017810Y007950D01*
X017410Y007550D01*
X017410Y008350D01*
X017010Y007950D01*
X017860Y008920D02*
X018660Y008120D01*
X017860Y008120D02*
X018660Y008920D01*
X019110Y012950D02*
X018310Y013750D01*
X018310Y012950D02*
X019110Y013750D01*
X016310Y017450D02*
X015510Y017450D01*
X015910Y017050D02*
X016310Y017450D01*
X015910Y017050D02*
X015910Y017850D01*
X015510Y017450D01*
X015310Y017450D02*
X014510Y017450D01*
X014910Y017050D02*
X015310Y017450D01*
X014910Y017050D02*
X014910Y017850D01*
X014510Y017450D01*
X013720Y016620D02*
X014520Y015820D01*
X013720Y015820D02*
X014520Y016620D01*
X011560Y014260D02*
X011562Y014299D01*
X011568Y014337D01*
X011577Y014375D01*
X011591Y014411D01*
X011607Y014447D01*
X011628Y014480D01*
X011651Y014511D01*
X011678Y014539D01*
X011707Y014565D01*
X011738Y014588D01*
X011772Y014607D01*
X011808Y014623D01*
X011844Y014635D01*
X011882Y014644D01*
X011921Y014649D01*
X011960Y014650D01*
X011998Y014647D01*
X012037Y014640D01*
X012074Y014630D01*
X012110Y014615D01*
X012145Y014598D01*
X012178Y014577D01*
X012208Y014552D01*
X012236Y014525D01*
X012261Y014495D01*
X012283Y014463D01*
X012301Y014429D01*
X012316Y014393D01*
X012328Y014356D01*
X012336Y014318D01*
X012340Y014279D01*
X012340Y014241D01*
X012336Y014202D01*
X012328Y014164D01*
X012316Y014127D01*
X012301Y014091D01*
X012283Y014057D01*
X012261Y014025D01*
X012236Y013995D01*
X012208Y013968D01*
X012178Y013943D01*
X012145Y013922D01*
X012110Y013905D01*
X012074Y013890D01*
X012037Y013880D01*
X011998Y013873D01*
X011960Y013870D01*
X011921Y013871D01*
X011882Y013876D01*
X011844Y013885D01*
X011808Y013897D01*
X011772Y013913D01*
X011738Y013932D01*
X011707Y013955D01*
X011678Y013981D01*
X011651Y014009D01*
X011628Y014040D01*
X011607Y014073D01*
X011591Y014109D01*
X011577Y014145D01*
X011568Y014183D01*
X011562Y014221D01*
X011560Y014260D01*
X011550Y013860D02*
X012350Y014660D01*
X011650Y017160D02*
X010850Y017160D01*
X011250Y016760D02*
X011650Y017160D01*
X011250Y016760D02*
X011250Y017560D01*
X010850Y017160D01*
X010850Y018160D02*
X011650Y018160D01*
X011250Y017760D01*
X011250Y018560D01*
X010850Y018160D01*
X010420Y018550D02*
X009620Y019350D01*
X009620Y018550D02*
X010420Y019350D01*
X003150Y012050D02*
X002350Y012850D01*
X002350Y012050D02*
X003150Y012850D01*
X006750Y008100D02*
X007550Y007300D01*
X006750Y007300D02*
X007550Y008100D01*
X009630Y006240D02*
X010430Y005440D01*
X009630Y005440D02*
X010430Y006240D01*
X010860Y005050D02*
X011660Y005050D01*
X011260Y004650D01*
X011260Y005450D01*
X010860Y005050D01*
X010860Y004050D02*
X011660Y004050D01*
X011260Y003650D01*
X011260Y004450D01*
X010860Y004050D01*
X011570Y001150D02*
X011572Y001189D01*
X011578Y001227D01*
X011587Y001265D01*
X011601Y001301D01*
X011617Y001337D01*
X011638Y001370D01*
X011661Y001401D01*
X011688Y001429D01*
X011717Y001455D01*
X011748Y001478D01*
X011782Y001497D01*
X011818Y001513D01*
X011854Y001525D01*
X011892Y001534D01*
X011931Y001539D01*
X011970Y001540D01*
X012008Y001537D01*
X012047Y001530D01*
X012084Y001520D01*
X012120Y001505D01*
X012155Y001488D01*
X012188Y001467D01*
X012218Y001442D01*
X012246Y001415D01*
X012271Y001385D01*
X012293Y001353D01*
X012311Y001319D01*
X012326Y001283D01*
X012338Y001246D01*
X012346Y001208D01*
X012350Y001169D01*
X012350Y001131D01*
X012346Y001092D01*
X012338Y001054D01*
X012326Y001017D01*
X012311Y000981D01*
X012293Y000947D01*
X012271Y000915D01*
X012246Y000885D01*
X012218Y000858D01*
X012188Y000833D01*
X012155Y000812D01*
X012120Y000795D01*
X012084Y000780D01*
X012047Y000770D01*
X012008Y000763D01*
X011970Y000760D01*
X011931Y000761D01*
X011892Y000766D01*
X011854Y000775D01*
X011818Y000787D01*
X011782Y000803D01*
X011748Y000822D01*
X011717Y000845D01*
X011688Y000871D01*
X011661Y000899D01*
X011638Y000930D01*
X011617Y000963D01*
X011601Y000999D01*
X011587Y001035D01*
X011578Y001073D01*
X011572Y001111D01*
X011570Y001150D01*
X011560Y000750D02*
X012360Y001550D01*
X007560Y000850D02*
X006760Y001650D01*
X006760Y000850D02*
X007560Y001650D01*
X018420Y018150D02*
X018422Y018189D01*
X018428Y018227D01*
X018437Y018265D01*
X018451Y018301D01*
X018467Y018337D01*
X018488Y018370D01*
X018511Y018401D01*
X018538Y018429D01*
X018567Y018455D01*
X018598Y018478D01*
X018632Y018497D01*
X018668Y018513D01*
X018704Y018525D01*
X018742Y018534D01*
X018781Y018539D01*
X018820Y018540D01*
X018858Y018537D01*
X018897Y018530D01*
X018934Y018520D01*
X018970Y018505D01*
X019005Y018488D01*
X019038Y018467D01*
X019068Y018442D01*
X019096Y018415D01*
X019121Y018385D01*
X019143Y018353D01*
X019161Y018319D01*
X019176Y018283D01*
X019188Y018246D01*
X019196Y018208D01*
X019200Y018169D01*
X019200Y018131D01*
X019196Y018092D01*
X019188Y018054D01*
X019176Y018017D01*
X019161Y017981D01*
X019143Y017947D01*
X019121Y017915D01*
X019096Y017885D01*
X019068Y017858D01*
X019038Y017833D01*
X019005Y017812D01*
X018970Y017795D01*
X018934Y017780D01*
X018897Y017770D01*
X018858Y017763D01*
X018820Y017760D01*
X018781Y017761D01*
X018742Y017766D01*
X018704Y017775D01*
X018668Y017787D01*
X018632Y017803D01*
X018598Y017822D01*
X018567Y017845D01*
X018538Y017871D01*
X018511Y017899D01*
X018488Y017930D01*
X018467Y017963D01*
X018451Y017999D01*
X018437Y018035D01*
X018428Y018073D01*
X018422Y018111D01*
X018420Y018150D01*
X018410Y017750D02*
X019210Y018550D01*
D11*
X018365Y018150D02*
X018367Y018192D01*
X018373Y018233D01*
X018382Y018274D01*
X018396Y018313D01*
X018413Y018351D01*
X018434Y018387D01*
X018457Y018422D01*
X018484Y018453D01*
X018514Y018483D01*
X018547Y018509D01*
X018582Y018532D01*
X018618Y018552D01*
X018657Y018568D01*
X018697Y018580D01*
X018737Y018589D01*
X018779Y018594D01*
X018820Y018595D01*
X018862Y018592D01*
X018903Y018585D01*
X018944Y018574D01*
X018983Y018560D01*
X019020Y018542D01*
X019056Y018521D01*
X019090Y018496D01*
X019121Y018468D01*
X019149Y018438D01*
X019175Y018405D01*
X019197Y018369D01*
X019216Y018332D01*
X019231Y018293D01*
X019243Y018253D01*
X019251Y018212D01*
X019255Y018171D01*
X019255Y018129D01*
X019251Y018088D01*
X019243Y018047D01*
X019231Y018007D01*
X019216Y017968D01*
X019197Y017931D01*
X019175Y017895D01*
X019149Y017862D01*
X019121Y017832D01*
X019090Y017804D01*
X019056Y017779D01*
X019020Y017758D01*
X018983Y017740D01*
X018944Y017726D01*
X018903Y017715D01*
X018862Y017708D01*
X018820Y017705D01*
X018779Y017706D01*
X018737Y017711D01*
X018697Y017720D01*
X018657Y017732D01*
X018618Y017748D01*
X018582Y017768D01*
X018547Y017791D01*
X018514Y017817D01*
X018484Y017847D01*
X018457Y017878D01*
X018434Y017913D01*
X018413Y017949D01*
X018396Y017987D01*
X018382Y018026D01*
X018373Y018067D01*
X018367Y018108D01*
X018365Y018150D01*
X011505Y014260D02*
X011507Y014302D01*
X011513Y014343D01*
X011522Y014384D01*
X011536Y014423D01*
X011553Y014461D01*
X011574Y014497D01*
X011597Y014532D01*
X011624Y014563D01*
X011654Y014593D01*
X011687Y014619D01*
X011722Y014642D01*
X011758Y014662D01*
X011797Y014678D01*
X011837Y014690D01*
X011877Y014699D01*
X011919Y014704D01*
X011960Y014705D01*
X012002Y014702D01*
X012043Y014695D01*
X012084Y014684D01*
X012123Y014670D01*
X012160Y014652D01*
X012196Y014631D01*
X012230Y014606D01*
X012261Y014578D01*
X012289Y014548D01*
X012315Y014515D01*
X012337Y014479D01*
X012356Y014442D01*
X012371Y014403D01*
X012383Y014363D01*
X012391Y014322D01*
X012395Y014281D01*
X012395Y014239D01*
X012391Y014198D01*
X012383Y014157D01*
X012371Y014117D01*
X012356Y014078D01*
X012337Y014041D01*
X012315Y014005D01*
X012289Y013972D01*
X012261Y013942D01*
X012230Y013914D01*
X012196Y013889D01*
X012160Y013868D01*
X012123Y013850D01*
X012084Y013836D01*
X012043Y013825D01*
X012002Y013818D01*
X011960Y013815D01*
X011919Y013816D01*
X011877Y013821D01*
X011837Y013830D01*
X011797Y013842D01*
X011758Y013858D01*
X011722Y013878D01*
X011687Y013901D01*
X011654Y013927D01*
X011624Y013957D01*
X011597Y013988D01*
X011574Y014023D01*
X011553Y014059D01*
X011536Y014097D01*
X011522Y014136D01*
X011513Y014177D01*
X011507Y014218D01*
X011505Y014260D01*
X011505Y007600D02*
X011507Y007642D01*
X011513Y007683D01*
X011522Y007724D01*
X011536Y007763D01*
X011553Y007801D01*
X011574Y007837D01*
X011597Y007872D01*
X011624Y007903D01*
X011654Y007933D01*
X011687Y007959D01*
X011722Y007982D01*
X011758Y008002D01*
X011797Y008018D01*
X011837Y008030D01*
X011877Y008039D01*
X011919Y008044D01*
X011960Y008045D01*
X012002Y008042D01*
X012043Y008035D01*
X012084Y008024D01*
X012123Y008010D01*
X012160Y007992D01*
X012196Y007971D01*
X012230Y007946D01*
X012261Y007918D01*
X012289Y007888D01*
X012315Y007855D01*
X012337Y007819D01*
X012356Y007782D01*
X012371Y007743D01*
X012383Y007703D01*
X012391Y007662D01*
X012395Y007621D01*
X012395Y007579D01*
X012391Y007538D01*
X012383Y007497D01*
X012371Y007457D01*
X012356Y007418D01*
X012337Y007381D01*
X012315Y007345D01*
X012289Y007312D01*
X012261Y007282D01*
X012230Y007254D01*
X012196Y007229D01*
X012160Y007208D01*
X012123Y007190D01*
X012084Y007176D01*
X012043Y007165D01*
X012002Y007158D01*
X011960Y007155D01*
X011919Y007156D01*
X011877Y007161D01*
X011837Y007170D01*
X011797Y007182D01*
X011758Y007198D01*
X011722Y007218D01*
X011687Y007241D01*
X011654Y007267D01*
X011624Y007297D01*
X011597Y007328D01*
X011574Y007363D01*
X011553Y007399D01*
X011536Y007437D01*
X011522Y007476D01*
X011513Y007517D01*
X011507Y007558D01*
X011505Y007600D01*
X013665Y007550D02*
X013667Y007592D01*
X013673Y007633D01*
X013682Y007674D01*
X013696Y007713D01*
X013713Y007751D01*
X013734Y007787D01*
X013757Y007822D01*
X013784Y007853D01*
X013814Y007883D01*
X013847Y007909D01*
X013882Y007932D01*
X013918Y007952D01*
X013957Y007968D01*
X013997Y007980D01*
X014037Y007989D01*
X014079Y007994D01*
X014120Y007995D01*
X014162Y007992D01*
X014203Y007985D01*
X014244Y007974D01*
X014283Y007960D01*
X014320Y007942D01*
X014356Y007921D01*
X014390Y007896D01*
X014421Y007868D01*
X014449Y007838D01*
X014475Y007805D01*
X014497Y007769D01*
X014516Y007732D01*
X014531Y007693D01*
X014543Y007653D01*
X014551Y007612D01*
X014555Y007571D01*
X014555Y007529D01*
X014551Y007488D01*
X014543Y007447D01*
X014531Y007407D01*
X014516Y007368D01*
X014497Y007331D01*
X014475Y007295D01*
X014449Y007262D01*
X014421Y007232D01*
X014390Y007204D01*
X014356Y007179D01*
X014320Y007158D01*
X014283Y007140D01*
X014244Y007126D01*
X014203Y007115D01*
X014162Y007108D01*
X014120Y007105D01*
X014079Y007106D01*
X014037Y007111D01*
X013997Y007120D01*
X013957Y007132D01*
X013918Y007148D01*
X013882Y007168D01*
X013847Y007191D01*
X013814Y007217D01*
X013784Y007247D01*
X013757Y007278D01*
X013734Y007313D01*
X013713Y007349D01*
X013696Y007387D01*
X013682Y007426D01*
X013673Y007467D01*
X013667Y007508D01*
X013665Y007550D01*
X011515Y001150D02*
X011517Y001192D01*
X011523Y001233D01*
X011532Y001274D01*
X011546Y001313D01*
X011563Y001351D01*
X011584Y001387D01*
X011607Y001422D01*
X011634Y001453D01*
X011664Y001483D01*
X011697Y001509D01*
X011732Y001532D01*
X011768Y001552D01*
X011807Y001568D01*
X011847Y001580D01*
X011887Y001589D01*
X011929Y001594D01*
X011970Y001595D01*
X012012Y001592D01*
X012053Y001585D01*
X012094Y001574D01*
X012133Y001560D01*
X012170Y001542D01*
X012206Y001521D01*
X012240Y001496D01*
X012271Y001468D01*
X012299Y001438D01*
X012325Y001405D01*
X012347Y001369D01*
X012366Y001332D01*
X012381Y001293D01*
X012393Y001253D01*
X012401Y001212D01*
X012405Y001171D01*
X012405Y001129D01*
X012401Y001088D01*
X012393Y001047D01*
X012381Y001007D01*
X012366Y000968D01*
X012347Y000931D01*
X012325Y000895D01*
X012299Y000862D01*
X012271Y000832D01*
X012240Y000804D01*
X012206Y000779D01*
X012170Y000758D01*
X012133Y000740D01*
X012094Y000726D01*
X012053Y000715D01*
X012012Y000708D01*
X011970Y000705D01*
X011929Y000706D01*
X011887Y000711D01*
X011847Y000720D01*
X011807Y000732D01*
X011768Y000748D01*
X011732Y000768D01*
X011697Y000791D01*
X011664Y000817D01*
X011634Y000847D01*
X011607Y000878D01*
X011584Y000913D01*
X011563Y000949D01*
X011546Y000987D01*
X011532Y001026D01*
X011523Y001067D01*
X011517Y001108D01*
X011515Y001150D01*
X000915Y005850D02*
X000917Y005892D01*
X000923Y005933D01*
X000932Y005974D01*
X000946Y006013D01*
X000963Y006051D01*
X000984Y006087D01*
X001007Y006122D01*
X001034Y006153D01*
X001064Y006183D01*
X001097Y006209D01*
X001132Y006232D01*
X001168Y006252D01*
X001207Y006268D01*
X001247Y006280D01*
X001287Y006289D01*
X001329Y006294D01*
X001370Y006295D01*
X001412Y006292D01*
X001453Y006285D01*
X001494Y006274D01*
X001533Y006260D01*
X001570Y006242D01*
X001606Y006221D01*
X001640Y006196D01*
X001671Y006168D01*
X001699Y006138D01*
X001725Y006105D01*
X001747Y006069D01*
X001766Y006032D01*
X001781Y005993D01*
X001793Y005953D01*
X001801Y005912D01*
X001805Y005871D01*
X001805Y005829D01*
X001801Y005788D01*
X001793Y005747D01*
X001781Y005707D01*
X001766Y005668D01*
X001747Y005631D01*
X001725Y005595D01*
X001699Y005562D01*
X001671Y005532D01*
X001640Y005504D01*
X001606Y005479D01*
X001570Y005458D01*
X001533Y005440D01*
X001494Y005426D01*
X001453Y005415D01*
X001412Y005408D01*
X001370Y005405D01*
X001329Y005406D01*
X001287Y005411D01*
X001247Y005420D01*
X001207Y005432D01*
X001168Y005448D01*
X001132Y005468D01*
X001097Y005491D01*
X001064Y005517D01*
X001034Y005547D01*
X001007Y005578D01*
X000984Y005613D01*
X000963Y005649D01*
X000946Y005687D01*
X000932Y005726D01*
X000923Y005767D01*
X000917Y005808D01*
X000915Y005850D01*
X000905Y012300D02*
X000907Y012342D01*
X000913Y012383D01*
X000922Y012424D01*
X000936Y012463D01*
X000953Y012501D01*
X000974Y012537D01*
X000997Y012572D01*
X001024Y012603D01*
X001054Y012633D01*
X001087Y012659D01*
X001122Y012682D01*
X001158Y012702D01*
X001197Y012718D01*
X001237Y012730D01*
X001277Y012739D01*
X001319Y012744D01*
X001360Y012745D01*
X001402Y012742D01*
X001443Y012735D01*
X001484Y012724D01*
X001523Y012710D01*
X001560Y012692D01*
X001596Y012671D01*
X001630Y012646D01*
X001661Y012618D01*
X001689Y012588D01*
X001715Y012555D01*
X001737Y012519D01*
X001756Y012482D01*
X001771Y012443D01*
X001783Y012403D01*
X001791Y012362D01*
X001795Y012321D01*
X001795Y012279D01*
X001791Y012238D01*
X001783Y012197D01*
X001771Y012157D01*
X001756Y012118D01*
X001737Y012081D01*
X001715Y012045D01*
X001689Y012012D01*
X001661Y011982D01*
X001630Y011954D01*
X001596Y011929D01*
X001560Y011908D01*
X001523Y011890D01*
X001484Y011876D01*
X001443Y011865D01*
X001402Y011858D01*
X001360Y011855D01*
X001319Y011856D01*
X001277Y011861D01*
X001237Y011870D01*
X001197Y011882D01*
X001158Y011898D01*
X001122Y011918D01*
X001087Y011941D01*
X001054Y011967D01*
X001024Y011997D01*
X000997Y012028D01*
X000974Y012063D01*
X000953Y012099D01*
X000936Y012137D01*
X000922Y012176D01*
X000913Y012217D01*
X000907Y012258D01*
X000905Y012300D01*
X000905Y018960D02*
X000907Y019002D01*
X000913Y019043D01*
X000922Y019084D01*
X000936Y019123D01*
X000953Y019161D01*
X000974Y019197D01*
X000997Y019232D01*
X001024Y019263D01*
X001054Y019293D01*
X001087Y019319D01*
X001122Y019342D01*
X001158Y019362D01*
X001197Y019378D01*
X001237Y019390D01*
X001277Y019399D01*
X001319Y019404D01*
X001360Y019405D01*
X001402Y019402D01*
X001443Y019395D01*
X001484Y019384D01*
X001523Y019370D01*
X001560Y019352D01*
X001596Y019331D01*
X001630Y019306D01*
X001661Y019278D01*
X001689Y019248D01*
X001715Y019215D01*
X001737Y019179D01*
X001756Y019142D01*
X001771Y019103D01*
X001783Y019063D01*
X001791Y019022D01*
X001795Y018981D01*
X001795Y018939D01*
X001791Y018898D01*
X001783Y018857D01*
X001771Y018817D01*
X001756Y018778D01*
X001737Y018741D01*
X001715Y018705D01*
X001689Y018672D01*
X001661Y018642D01*
X001630Y018614D01*
X001596Y018589D01*
X001560Y018568D01*
X001523Y018550D01*
X001484Y018536D01*
X001443Y018525D01*
X001402Y018518D01*
X001360Y018515D01*
X001319Y018516D01*
X001277Y018521D01*
X001237Y018530D01*
X001197Y018542D01*
X001158Y018558D01*
X001122Y018578D01*
X001087Y018601D01*
X001054Y018627D01*
X001024Y018657D01*
X000997Y018688D01*
X000974Y018723D01*
X000953Y018759D01*
X000936Y018797D01*
X000922Y018836D01*
X000913Y018877D01*
X000907Y018918D01*
X000905Y018960D01*
D12*
X000370Y019835D02*
X000370Y000150D01*
X020055Y000150D01*
X020055Y019835D01*
X000370Y019835D01*
M02*
