G75*
G70*
%OFA0B0*%
%FSLAX24Y24*%
%IPPOS*%
%LPD*%
%AMOC8*
5,1,8,0,0,1.08239X$1,22.5*
%
%ADD10C,0.0010*%
%ADD11C,0.0030*%
%ADD12C,0.0000*%
%ADD13C,0.0100*%
D10*
X000484Y000504D02*
X000484Y006409D01*
X012296Y006409D01*
X012296Y000504D01*
X000484Y000504D01*
X000445Y006882D02*
X000445Y012787D01*
X012256Y012787D01*
X012256Y006882D01*
X000445Y006882D01*
X000445Y013378D02*
X000445Y019283D01*
X012256Y019283D01*
X012256Y013378D01*
X000445Y013378D01*
X013182Y016075D02*
X013182Y004264D01*
X019087Y004264D01*
X019087Y016075D01*
X013182Y016075D01*
D11*
X014627Y013867D02*
X014627Y013674D01*
X014531Y013573D02*
X014482Y013524D01*
X014482Y013379D01*
X014772Y013379D01*
X014772Y013524D01*
X014724Y013573D01*
X014531Y013573D01*
X014452Y013062D02*
X014501Y012965D01*
X014597Y012868D01*
X014597Y013013D01*
X014646Y013062D01*
X014694Y013062D01*
X014742Y013013D01*
X014742Y012917D01*
X014694Y012868D01*
X014597Y012868D01*
X014742Y012767D02*
X014742Y012574D01*
X014742Y012670D02*
X014452Y012670D01*
X014549Y012574D01*
X014501Y012473D02*
X014597Y012473D01*
X014646Y012424D01*
X014646Y012279D01*
X014742Y012279D02*
X014452Y012279D01*
X014452Y012424D01*
X014501Y012473D01*
X014646Y012376D02*
X014742Y012473D01*
X015402Y012514D02*
X015402Y012708D01*
X015451Y012708D01*
X015644Y012514D01*
X015692Y012514D01*
X015692Y012413D02*
X015692Y012220D01*
X015692Y012316D02*
X015402Y012316D01*
X015499Y012220D01*
X015547Y012119D02*
X015596Y012070D01*
X015596Y011925D01*
X015692Y011925D02*
X015402Y011925D01*
X015402Y012070D01*
X015451Y012119D01*
X015547Y012119D01*
X015596Y012022D02*
X015692Y012119D01*
X015772Y013379D02*
X015482Y013379D01*
X015482Y013524D01*
X015531Y013573D01*
X015724Y013573D01*
X015772Y013524D01*
X015772Y013379D01*
X015627Y013674D02*
X015627Y013867D01*
X015531Y013770D02*
X015724Y013770D01*
X018342Y013774D02*
X018391Y013823D01*
X018584Y013823D01*
X018632Y013774D01*
X018632Y013677D01*
X018584Y013629D01*
X018391Y013629D01*
X018342Y013677D01*
X018342Y013774D01*
X018536Y013726D02*
X018632Y013823D01*
X018487Y013924D02*
X018487Y014117D01*
X018342Y014069D02*
X018487Y013924D01*
X018632Y014069D02*
X018342Y014069D01*
X016842Y010423D02*
X016746Y010326D01*
X016746Y010374D02*
X016746Y010229D01*
X016842Y010229D02*
X016552Y010229D01*
X016552Y010374D01*
X016601Y010423D01*
X016697Y010423D01*
X016746Y010374D01*
X017182Y010039D02*
X017182Y009942D01*
X017231Y009894D01*
X017279Y009894D01*
X017327Y009942D01*
X017327Y010039D01*
X017376Y010087D01*
X017424Y010087D01*
X017472Y010039D01*
X017472Y009942D01*
X017424Y009894D01*
X017376Y009894D01*
X017327Y009942D01*
X017327Y010039D02*
X017279Y010087D01*
X017231Y010087D01*
X017182Y010039D01*
X017182Y009793D02*
X017424Y009793D01*
X017472Y009744D01*
X017472Y009647D01*
X017424Y009599D01*
X017182Y009599D01*
X018342Y008829D02*
X018342Y008733D01*
X018391Y008684D01*
X018584Y008684D01*
X018391Y008878D01*
X018584Y008878D01*
X018632Y008829D01*
X018632Y008733D01*
X018584Y008684D01*
X018632Y008583D02*
X018632Y008390D01*
X018632Y008486D02*
X018342Y008486D01*
X018439Y008390D01*
X018391Y008289D02*
X018342Y008240D01*
X018342Y008143D01*
X018391Y008095D01*
X018584Y008095D01*
X018632Y008143D01*
X018632Y008240D01*
X018584Y008289D01*
X018342Y008829D02*
X018391Y008878D01*
X017516Y007743D02*
X017322Y007743D01*
X017516Y007743D02*
X017612Y007646D01*
X017516Y007549D01*
X017322Y007549D01*
X018342Y006959D02*
X018342Y006863D01*
X018391Y006814D01*
X018342Y006959D02*
X018391Y007008D01*
X018439Y007008D01*
X018632Y006814D01*
X018632Y007008D01*
X018632Y006713D02*
X018632Y006520D01*
X018632Y006616D02*
X018342Y006616D01*
X018439Y006520D01*
X018391Y006419D02*
X018342Y006370D01*
X018342Y006273D01*
X018391Y006225D01*
X018584Y006225D01*
X018632Y006273D01*
X018632Y006370D01*
X018584Y006419D01*
X016062Y007197D02*
X016014Y007149D01*
X015772Y007149D01*
X015772Y007343D02*
X016014Y007343D01*
X016062Y007294D01*
X016062Y007197D01*
X016062Y007444D02*
X016014Y007444D01*
X015821Y007637D01*
X015772Y007637D01*
X015772Y007444D01*
X015861Y007769D02*
X016054Y007769D01*
X016102Y007817D01*
X016102Y007914D01*
X016054Y007963D01*
X015861Y007963D02*
X015812Y007914D01*
X015812Y007817D01*
X015861Y007769D01*
X014934Y006363D02*
X014837Y006363D01*
X014837Y006266D01*
X014741Y006363D02*
X014692Y006314D01*
X014692Y006217D01*
X014741Y006169D01*
X014934Y006169D01*
X014982Y006217D01*
X014982Y006314D01*
X014934Y006363D01*
X013642Y006675D02*
X013352Y006675D01*
X013352Y006820D01*
X013401Y006869D01*
X013497Y006869D01*
X013546Y006820D01*
X013546Y006675D01*
X013546Y006772D02*
X013642Y006869D01*
X013642Y006970D02*
X013642Y007163D01*
X013642Y007066D02*
X013352Y007066D01*
X013449Y006970D01*
X013449Y007264D02*
X013401Y007264D01*
X013352Y007313D01*
X013352Y007409D01*
X013401Y007458D01*
X013449Y007458D01*
X013497Y007409D01*
X013497Y007313D01*
X013449Y007264D01*
X013497Y007313D02*
X013546Y007264D01*
X013594Y007264D01*
X013642Y007313D01*
X013642Y007409D01*
X013594Y007458D01*
X013546Y007458D01*
X013497Y007409D01*
X013536Y007675D02*
X013536Y007820D01*
X013487Y007869D01*
X013391Y007869D01*
X013342Y007820D01*
X013342Y007675D01*
X013632Y007675D01*
X013536Y007772D02*
X013632Y007869D01*
X013632Y007970D02*
X013632Y008163D01*
X013632Y008066D02*
X013342Y008066D01*
X013439Y007970D01*
X013439Y008264D02*
X013487Y008313D01*
X013487Y008458D01*
X013391Y008458D02*
X013342Y008409D01*
X013342Y008313D01*
X013391Y008264D01*
X013439Y008264D01*
X013584Y008264D02*
X013632Y008313D01*
X013632Y008409D01*
X013584Y008458D01*
X013391Y008458D01*
X013312Y009009D02*
X013312Y009154D01*
X013361Y009203D01*
X013457Y009203D01*
X013506Y009154D01*
X013506Y009009D01*
X013602Y009009D02*
X013312Y009009D01*
X013506Y009106D02*
X013602Y009203D01*
X013602Y009304D02*
X013409Y009497D01*
X013361Y009497D01*
X013312Y009449D01*
X013312Y009352D01*
X013361Y009304D01*
X013602Y009304D02*
X013602Y009497D01*
X013554Y009598D02*
X013361Y009792D01*
X013554Y009792D01*
X013602Y009743D01*
X013602Y009647D01*
X013554Y009598D01*
X013361Y009598D01*
X013312Y009647D01*
X013312Y009743D01*
X013361Y009792D01*
X015392Y009889D02*
X015392Y010034D01*
X015441Y010083D01*
X015634Y010083D01*
X015682Y010034D01*
X015682Y009889D01*
X015392Y009889D01*
X010298Y007579D02*
X010250Y007627D01*
X010153Y007627D01*
X010105Y007579D01*
X010004Y007579D02*
X010004Y007385D01*
X009955Y007337D01*
X009858Y007337D01*
X009810Y007385D01*
X009810Y007579D01*
X009858Y007627D01*
X009955Y007627D01*
X010004Y007579D01*
X009907Y007434D02*
X010004Y007337D01*
X010105Y007337D02*
X010298Y007530D01*
X010298Y007579D01*
X010298Y007337D02*
X010105Y007337D01*
X009745Y005109D02*
X009599Y005109D01*
X009599Y004819D01*
X009745Y004819D01*
X009793Y004867D01*
X009793Y005061D01*
X009745Y005109D01*
X009894Y004964D02*
X010088Y004964D01*
X009991Y004061D02*
X009991Y003867D01*
X009894Y003964D02*
X010088Y003964D01*
X009793Y004061D02*
X009745Y004109D01*
X009599Y004109D01*
X009599Y003819D01*
X009745Y003819D01*
X009793Y003867D01*
X009793Y004061D01*
X008928Y004092D02*
X008880Y004044D01*
X008928Y003996D01*
X008928Y003947D01*
X008880Y003899D01*
X008783Y003899D01*
X008735Y003947D01*
X008634Y003899D02*
X008537Y003996D01*
X008585Y003996D02*
X008440Y003996D01*
X008440Y003899D02*
X008440Y004189D01*
X008585Y004189D01*
X008634Y004141D01*
X008634Y004044D01*
X008585Y003996D01*
X008735Y004141D02*
X008783Y004189D01*
X008880Y004189D01*
X008928Y004141D01*
X008928Y004092D01*
X008880Y004044D02*
X008832Y004044D01*
X008794Y004849D02*
X008988Y005042D01*
X008988Y005091D01*
X008939Y005139D01*
X008843Y005139D01*
X008794Y005091D01*
X008693Y005091D02*
X008693Y004994D01*
X008645Y004946D01*
X008499Y004946D01*
X008499Y004849D02*
X008499Y005139D01*
X008645Y005139D01*
X008693Y005091D01*
X008596Y004946D02*
X008693Y004849D01*
X008794Y004849D02*
X008988Y004849D01*
X006643Y002991D02*
X006643Y002894D01*
X006595Y002846D01*
X006449Y002846D01*
X006449Y002749D02*
X006449Y003039D01*
X006595Y003039D01*
X006643Y002991D01*
X006546Y002846D02*
X006643Y002749D01*
X006308Y002361D02*
X006259Y002409D01*
X006163Y002409D01*
X006114Y002361D01*
X006013Y002409D02*
X006013Y002167D01*
X005965Y002119D01*
X005868Y002119D01*
X005819Y002167D01*
X005819Y002409D01*
X006114Y002119D02*
X006308Y002312D01*
X006308Y002361D01*
X006308Y002119D02*
X006114Y002119D01*
X005098Y001201D02*
X005098Y001152D01*
X004905Y000959D01*
X005098Y000959D01*
X004804Y001007D02*
X004755Y000959D01*
X004659Y000959D01*
X004610Y001007D01*
X004610Y001201D01*
X004659Y001249D01*
X004755Y001249D01*
X004804Y001201D01*
X004905Y001201D02*
X004953Y001249D01*
X005050Y001249D01*
X005098Y001201D01*
X003963Y002076D02*
X003866Y001979D01*
X003769Y002076D01*
X003769Y002269D01*
X003963Y002269D02*
X003963Y002076D01*
X003180Y001249D02*
X003228Y001201D01*
X003228Y001152D01*
X003180Y001104D01*
X003228Y001056D01*
X003228Y001007D01*
X003180Y000959D01*
X003083Y000959D01*
X003035Y001007D01*
X002934Y001007D02*
X002885Y000959D01*
X002789Y000959D01*
X002740Y001007D01*
X002740Y001201D01*
X002789Y001249D01*
X002885Y001249D01*
X002934Y001201D01*
X003035Y001201D02*
X003083Y001249D01*
X003180Y001249D01*
X003180Y001104D02*
X003132Y001104D01*
X003418Y003529D02*
X003369Y003577D01*
X003369Y003819D01*
X003563Y003819D02*
X003563Y003577D01*
X003515Y003529D01*
X003418Y003529D01*
X003664Y003529D02*
X003858Y003529D01*
X003761Y003529D02*
X003761Y003819D01*
X003664Y003722D01*
X003989Y003731D02*
X003989Y003537D01*
X004038Y003489D01*
X004135Y003489D01*
X004183Y003537D01*
X004183Y003731D02*
X004135Y003779D01*
X004038Y003779D01*
X003989Y003731D01*
X002583Y004657D02*
X002583Y004754D01*
X002486Y004754D01*
X002389Y004851D02*
X002389Y004657D01*
X002438Y004609D01*
X002535Y004609D01*
X002583Y004657D01*
X002583Y004851D02*
X002535Y004899D01*
X002438Y004899D01*
X002389Y004851D01*
X003190Y005949D02*
X003190Y006239D01*
X003335Y006239D01*
X003384Y006191D01*
X003384Y006094D01*
X003335Y006046D01*
X003190Y006046D01*
X003287Y006046D02*
X003384Y005949D01*
X003485Y006094D02*
X003678Y006094D01*
X003630Y005949D02*
X003630Y006239D01*
X003485Y006094D01*
X004190Y006056D02*
X004335Y006056D01*
X004384Y006104D01*
X004384Y006201D01*
X004335Y006249D01*
X004190Y006249D01*
X004190Y005959D01*
X004287Y006056D02*
X004384Y005959D01*
X004485Y006007D02*
X004533Y005959D01*
X004630Y005959D01*
X004678Y006007D01*
X004678Y006104D01*
X004630Y006152D01*
X004582Y006152D01*
X004485Y006104D01*
X004485Y006249D01*
X004678Y006249D01*
X005229Y006279D02*
X005229Y005989D01*
X005229Y006086D02*
X005375Y006086D01*
X005423Y006134D01*
X005423Y006231D01*
X005375Y006279D01*
X005229Y006279D01*
X005326Y006086D02*
X005423Y005989D01*
X005524Y005989D02*
X005718Y005989D01*
X005621Y005989D02*
X005621Y006279D01*
X005524Y006182D01*
X005011Y007337D02*
X005011Y007627D01*
X004865Y007482D01*
X005059Y007482D01*
X004764Y007579D02*
X004716Y007627D01*
X004619Y007627D01*
X004571Y007579D01*
X004571Y007385D01*
X004619Y007337D01*
X004716Y007337D01*
X004764Y007385D01*
X003827Y008357D02*
X003924Y008454D01*
X003924Y008647D01*
X003730Y008647D02*
X003730Y008454D01*
X003827Y008357D01*
X003189Y007627D02*
X003092Y007579D01*
X002995Y007482D01*
X003141Y007482D01*
X003189Y007434D01*
X003189Y007385D01*
X003141Y007337D01*
X003044Y007337D01*
X002995Y007385D01*
X002995Y007482D01*
X002894Y007579D02*
X002846Y007627D01*
X002749Y007627D01*
X002701Y007579D01*
X002701Y007385D01*
X002749Y007337D01*
X002846Y007337D01*
X002894Y007385D01*
X003378Y009907D02*
X003475Y009907D01*
X003524Y009955D01*
X003524Y010197D01*
X003625Y010149D02*
X003673Y010197D01*
X003770Y010197D01*
X003818Y010149D01*
X003818Y010100D01*
X003770Y010052D01*
X003818Y010004D01*
X003818Y009955D01*
X003770Y009907D01*
X003673Y009907D01*
X003625Y009955D01*
X003722Y010052D02*
X003770Y010052D01*
X003950Y010109D02*
X003950Y009915D01*
X003998Y009867D01*
X004095Y009867D01*
X004144Y009915D01*
X004144Y010109D02*
X004095Y010157D01*
X003998Y010157D01*
X003950Y010109D01*
X003378Y009907D02*
X003330Y009955D01*
X003330Y010197D01*
X002544Y011035D02*
X002495Y010987D01*
X002398Y010987D01*
X002350Y011035D01*
X002350Y011229D01*
X002398Y011277D01*
X002495Y011277D01*
X002544Y011229D01*
X002544Y011132D02*
X002447Y011132D01*
X002544Y011132D02*
X002544Y011035D01*
X003151Y012327D02*
X003151Y012617D01*
X003296Y012617D01*
X003344Y012569D01*
X003344Y012472D01*
X003296Y012424D01*
X003151Y012424D01*
X003248Y012424D02*
X003344Y012327D01*
X003445Y012375D02*
X003445Y012424D01*
X003494Y012472D01*
X003591Y012472D01*
X003639Y012424D01*
X003639Y012375D01*
X003591Y012327D01*
X003494Y012327D01*
X003445Y012375D01*
X003494Y012472D02*
X003445Y012520D01*
X003445Y012569D01*
X003494Y012617D01*
X003591Y012617D01*
X003639Y012569D01*
X003639Y012520D01*
X003591Y012472D01*
X004151Y012434D02*
X004296Y012434D01*
X004344Y012482D01*
X004344Y012579D01*
X004296Y012627D01*
X004151Y012627D01*
X004151Y012337D01*
X004248Y012434D02*
X004344Y012337D01*
X004445Y012385D02*
X004494Y012337D01*
X004591Y012337D01*
X004639Y012385D01*
X004639Y012579D01*
X004591Y012627D01*
X004494Y012627D01*
X004445Y012579D01*
X004445Y012530D01*
X004494Y012482D01*
X004639Y012482D01*
X005190Y012464D02*
X005335Y012464D01*
X005384Y012512D01*
X005384Y012609D01*
X005335Y012657D01*
X005190Y012657D01*
X005190Y012367D01*
X005287Y012464D02*
X005384Y012367D01*
X005485Y012367D02*
X005678Y012367D01*
X005582Y012367D02*
X005582Y012657D01*
X005485Y012560D01*
X005779Y012609D02*
X005828Y012657D01*
X005925Y012657D01*
X005973Y012609D01*
X005779Y012415D01*
X005828Y012367D01*
X005925Y012367D01*
X005973Y012415D01*
X005973Y012609D01*
X005779Y012609D02*
X005779Y012415D01*
X004865Y013833D02*
X004865Y013881D01*
X005059Y014075D01*
X005059Y014123D01*
X004865Y014123D01*
X004764Y014075D02*
X004716Y014123D01*
X004619Y014123D01*
X004571Y014075D01*
X004571Y013881D01*
X004619Y013833D01*
X004716Y013833D01*
X004764Y013881D01*
X003827Y014853D02*
X003730Y014950D01*
X003730Y015143D01*
X003924Y015143D02*
X003924Y014950D01*
X003827Y014853D01*
X003141Y014123D02*
X003044Y014123D01*
X002995Y014075D01*
X002995Y014026D01*
X003044Y013978D01*
X003189Y013978D01*
X003189Y013881D02*
X003189Y014075D01*
X003141Y014123D01*
X003189Y013881D02*
X003141Y013833D01*
X003044Y013833D01*
X002995Y013881D01*
X002894Y013881D02*
X002846Y013833D01*
X002749Y013833D01*
X002701Y013881D01*
X002701Y014075D01*
X002749Y014123D01*
X002846Y014123D01*
X002894Y014075D01*
X003998Y016363D02*
X004095Y016363D01*
X004144Y016411D01*
X003998Y016363D02*
X003950Y016411D01*
X003950Y016605D01*
X003998Y016653D01*
X004095Y016653D01*
X004144Y016605D01*
X003818Y016548D02*
X003818Y016451D01*
X003770Y016403D01*
X003673Y016403D01*
X003625Y016451D01*
X003625Y016548D02*
X003722Y016596D01*
X003770Y016596D01*
X003818Y016548D01*
X003818Y016693D02*
X003625Y016693D01*
X003625Y016548D01*
X003524Y016451D02*
X003524Y016693D01*
X003330Y016693D02*
X003330Y016451D01*
X003378Y016403D01*
X003475Y016403D01*
X003524Y016451D01*
X002495Y017483D02*
X002544Y017531D01*
X002544Y017628D01*
X002447Y017628D01*
X002544Y017725D02*
X002495Y017773D01*
X002398Y017773D01*
X002350Y017725D01*
X002350Y017531D01*
X002398Y017483D01*
X002495Y017483D01*
X002856Y018823D02*
X002856Y019113D01*
X003001Y019113D01*
X003050Y019065D01*
X003050Y018968D01*
X003001Y018920D01*
X002856Y018920D01*
X002953Y018920D02*
X003050Y018823D01*
X003151Y018823D02*
X003344Y018823D01*
X003248Y018823D02*
X003248Y019113D01*
X003151Y019016D01*
X003445Y019065D02*
X003494Y019113D01*
X003591Y019113D01*
X003639Y019065D01*
X003639Y019016D01*
X003591Y018968D01*
X003639Y018920D01*
X003639Y018871D01*
X003591Y018823D01*
X003494Y018823D01*
X003445Y018871D01*
X003542Y018968D02*
X003591Y018968D01*
X003856Y018930D02*
X004001Y018930D01*
X004050Y018978D01*
X004050Y019075D01*
X004001Y019123D01*
X003856Y019123D01*
X003856Y018833D01*
X003953Y018930D02*
X004050Y018833D01*
X004151Y018833D02*
X004344Y018833D01*
X004248Y018833D02*
X004248Y019123D01*
X004151Y019026D01*
X004445Y018978D02*
X004639Y018978D01*
X004591Y019123D02*
X004445Y018978D01*
X004591Y018833D02*
X004591Y019123D01*
X005190Y019153D02*
X005190Y018863D01*
X005190Y018960D02*
X005335Y018960D01*
X005384Y019008D01*
X005384Y019105D01*
X005335Y019153D01*
X005190Y019153D01*
X005287Y018960D02*
X005384Y018863D01*
X005485Y018863D02*
X005678Y018863D01*
X005582Y018863D02*
X005582Y019153D01*
X005485Y019056D01*
X005779Y019008D02*
X005876Y019056D01*
X005925Y019056D01*
X005973Y019008D01*
X005973Y018911D01*
X005925Y018863D01*
X005828Y018863D01*
X005779Y018911D01*
X005779Y019008D02*
X005779Y019153D01*
X005973Y019153D01*
X006070Y017073D02*
X006215Y017073D01*
X006264Y017025D01*
X006264Y016831D01*
X006215Y016783D01*
X006070Y016783D01*
X006070Y017073D01*
X006410Y015913D02*
X006555Y015913D01*
X006604Y015865D01*
X006604Y015768D01*
X006555Y015720D01*
X006410Y015720D01*
X006507Y015720D02*
X006604Y015623D01*
X006410Y015623D02*
X006410Y015913D01*
X006268Y015283D02*
X006172Y015235D01*
X006075Y015138D01*
X006220Y015138D01*
X006268Y015090D01*
X006268Y015041D01*
X006220Y014993D01*
X006123Y014993D01*
X006075Y015041D01*
X006075Y015138D01*
X005974Y015041D02*
X005974Y015283D01*
X005780Y015283D02*
X005780Y015041D01*
X005828Y014993D01*
X005925Y014993D01*
X005974Y015041D01*
X008106Y016773D02*
X008106Y017063D01*
X008251Y017063D01*
X008300Y017015D01*
X008300Y016918D01*
X008251Y016870D01*
X008106Y016870D01*
X008203Y016870D02*
X008300Y016773D01*
X008401Y016773D02*
X008594Y016773D01*
X008498Y016773D02*
X008498Y017063D01*
X008401Y016966D01*
X008695Y017015D02*
X008744Y017063D01*
X008841Y017063D01*
X008889Y017015D01*
X008889Y016966D01*
X008695Y016773D01*
X008889Y016773D01*
X009560Y016693D02*
X009705Y016693D01*
X009754Y016741D01*
X009754Y016935D01*
X009705Y016983D01*
X009560Y016983D01*
X009560Y016693D01*
X009855Y016838D02*
X010048Y016838D01*
X009952Y016935D02*
X009952Y016741D01*
X009705Y017693D02*
X009560Y017693D01*
X009560Y017983D01*
X009705Y017983D01*
X009754Y017935D01*
X009754Y017741D01*
X009705Y017693D01*
X009855Y017838D02*
X010048Y017838D01*
X009243Y017723D02*
X009049Y017723D01*
X009146Y017723D02*
X009146Y018013D01*
X009049Y017916D01*
X008948Y017723D02*
X008755Y017723D01*
X008852Y017723D02*
X008852Y018013D01*
X008755Y017916D01*
X008654Y017868D02*
X008605Y017820D01*
X008460Y017820D01*
X008557Y017820D02*
X008654Y017723D01*
X008654Y017868D02*
X008654Y017965D01*
X008605Y018013D01*
X008460Y018013D01*
X008460Y017723D01*
X009858Y014123D02*
X009955Y014123D01*
X010004Y014075D01*
X010004Y013881D01*
X009955Y013833D01*
X009858Y013833D01*
X009810Y013881D01*
X009810Y014075D01*
X009858Y014123D01*
X009907Y013930D02*
X010004Y013833D01*
X010105Y013881D02*
X010153Y013833D01*
X010250Y013833D01*
X010298Y013881D01*
X010298Y013930D01*
X010250Y013978D01*
X010202Y013978D01*
X010250Y013978D02*
X010298Y014026D01*
X010298Y014075D01*
X010250Y014123D01*
X010153Y014123D01*
X010105Y014075D01*
X009705Y011487D02*
X009560Y011487D01*
X009560Y011197D01*
X009705Y011197D01*
X009754Y011245D01*
X009754Y011439D01*
X009705Y011487D01*
X009855Y011342D02*
X010048Y011342D01*
X009952Y010439D02*
X009952Y010245D01*
X010048Y010342D02*
X009855Y010342D01*
X009754Y010439D02*
X009705Y010487D01*
X009560Y010487D01*
X009560Y010197D01*
X009705Y010197D01*
X009754Y010245D01*
X009754Y010439D01*
X008889Y010519D02*
X008695Y010325D01*
X008695Y010277D01*
X008594Y010277D02*
X008498Y010374D01*
X008546Y010374D02*
X008401Y010374D01*
X008401Y010277D02*
X008401Y010567D01*
X008546Y010567D01*
X008594Y010519D01*
X008594Y010422D01*
X008546Y010374D01*
X008695Y010567D02*
X008889Y010567D01*
X008889Y010519D01*
X008900Y011227D02*
X008948Y011275D01*
X008948Y011324D01*
X008900Y011372D01*
X008755Y011372D01*
X008755Y011275D01*
X008803Y011227D01*
X008900Y011227D01*
X008755Y011372D02*
X008852Y011469D01*
X008948Y011517D01*
X008654Y011469D02*
X008654Y011372D01*
X008605Y011324D01*
X008460Y011324D01*
X008557Y011324D02*
X008654Y011227D01*
X008460Y011227D02*
X008460Y011517D01*
X008605Y011517D01*
X008654Y011469D01*
X006604Y009369D02*
X006555Y009417D01*
X006410Y009417D01*
X006410Y009127D01*
X006410Y009224D02*
X006555Y009224D01*
X006604Y009272D01*
X006604Y009369D01*
X006507Y009224D02*
X006604Y009127D01*
X006220Y008787D02*
X006075Y008642D01*
X006268Y008642D01*
X006220Y008497D02*
X006220Y008787D01*
X005974Y008787D02*
X005974Y008545D01*
X005925Y008497D01*
X005828Y008497D01*
X005780Y008545D01*
X005780Y008787D01*
X006070Y010287D02*
X006215Y010287D01*
X006264Y010335D01*
X006264Y010529D01*
X006215Y010577D01*
X006070Y010577D01*
X006070Y010287D01*
X006109Y004199D02*
X006255Y004199D01*
X006303Y004151D01*
X006303Y003957D01*
X006255Y003909D01*
X006109Y003909D01*
X006109Y004199D01*
X009849Y001201D02*
X009849Y001007D01*
X009898Y000959D01*
X009995Y000959D01*
X010043Y001007D01*
X010043Y001201D01*
X009995Y001249D01*
X009898Y001249D01*
X009849Y001201D01*
X009946Y001056D02*
X010043Y000959D01*
X010144Y000959D02*
X010338Y000959D01*
X010241Y000959D02*
X010241Y001249D01*
X010144Y001152D01*
D12*
X011059Y001104D02*
X011061Y001154D01*
X011067Y001203D01*
X011077Y001252D01*
X011090Y001299D01*
X011108Y001346D01*
X011129Y001391D01*
X011153Y001434D01*
X011181Y001475D01*
X011212Y001514D01*
X011246Y001550D01*
X011283Y001584D01*
X011323Y001614D01*
X011364Y001641D01*
X011408Y001665D01*
X011453Y001685D01*
X011500Y001701D01*
X011548Y001714D01*
X011597Y001723D01*
X011647Y001728D01*
X011696Y001729D01*
X011746Y001726D01*
X011795Y001719D01*
X011844Y001708D01*
X011891Y001694D01*
X011937Y001675D01*
X011982Y001653D01*
X012025Y001628D01*
X012065Y001599D01*
X012103Y001567D01*
X012139Y001533D01*
X012172Y001495D01*
X012201Y001455D01*
X012227Y001413D01*
X012250Y001369D01*
X012269Y001323D01*
X012285Y001276D01*
X012297Y001227D01*
X012305Y001178D01*
X012309Y001129D01*
X012309Y001079D01*
X012305Y001030D01*
X012297Y000981D01*
X012285Y000932D01*
X012269Y000885D01*
X012250Y000839D01*
X012227Y000795D01*
X012201Y000753D01*
X012172Y000713D01*
X012139Y000675D01*
X012103Y000641D01*
X012065Y000609D01*
X012025Y000580D01*
X011982Y000555D01*
X011937Y000533D01*
X011891Y000514D01*
X011844Y000500D01*
X011795Y000489D01*
X011746Y000482D01*
X011696Y000479D01*
X011647Y000480D01*
X011597Y000485D01*
X011548Y000494D01*
X011500Y000507D01*
X011453Y000523D01*
X011408Y000543D01*
X011364Y000567D01*
X011323Y000594D01*
X011283Y000624D01*
X011246Y000658D01*
X011212Y000694D01*
X011181Y000733D01*
X011153Y000774D01*
X011129Y000817D01*
X011108Y000862D01*
X011090Y000909D01*
X011077Y000956D01*
X011067Y001005D01*
X011061Y001054D01*
X011059Y001104D01*
X013162Y004864D02*
X013164Y004914D01*
X013170Y004963D01*
X013180Y005012D01*
X013193Y005059D01*
X013211Y005106D01*
X013232Y005151D01*
X013256Y005194D01*
X013284Y005235D01*
X013315Y005274D01*
X013349Y005310D01*
X013386Y005344D01*
X013426Y005374D01*
X013467Y005401D01*
X013511Y005425D01*
X013556Y005445D01*
X013603Y005461D01*
X013651Y005474D01*
X013700Y005483D01*
X013750Y005488D01*
X013799Y005489D01*
X013849Y005486D01*
X013898Y005479D01*
X013947Y005468D01*
X013994Y005454D01*
X014040Y005435D01*
X014085Y005413D01*
X014128Y005388D01*
X014168Y005359D01*
X014206Y005327D01*
X014242Y005293D01*
X014275Y005255D01*
X014304Y005215D01*
X014330Y005173D01*
X014353Y005129D01*
X014372Y005083D01*
X014388Y005036D01*
X014400Y004987D01*
X014408Y004938D01*
X014412Y004889D01*
X014412Y004839D01*
X014408Y004790D01*
X014400Y004741D01*
X014388Y004692D01*
X014372Y004645D01*
X014353Y004599D01*
X014330Y004555D01*
X014304Y004513D01*
X014275Y004473D01*
X014242Y004435D01*
X014206Y004401D01*
X014168Y004369D01*
X014128Y004340D01*
X014085Y004315D01*
X014040Y004293D01*
X013994Y004274D01*
X013947Y004260D01*
X013898Y004249D01*
X013849Y004242D01*
X013799Y004239D01*
X013750Y004240D01*
X013700Y004245D01*
X013651Y004254D01*
X013603Y004267D01*
X013556Y004283D01*
X013511Y004303D01*
X013467Y004327D01*
X013426Y004354D01*
X013386Y004384D01*
X013349Y004418D01*
X013315Y004454D01*
X013284Y004493D01*
X013256Y004534D01*
X013232Y004577D01*
X013211Y004622D01*
X013193Y004669D01*
X013180Y004716D01*
X013170Y004765D01*
X013164Y004814D01*
X013162Y004864D01*
X011020Y007482D02*
X011022Y007532D01*
X011028Y007581D01*
X011038Y007630D01*
X011051Y007677D01*
X011069Y007724D01*
X011090Y007769D01*
X011114Y007812D01*
X011142Y007853D01*
X011173Y007892D01*
X011207Y007928D01*
X011244Y007962D01*
X011284Y007992D01*
X011325Y008019D01*
X011369Y008043D01*
X011414Y008063D01*
X011461Y008079D01*
X011509Y008092D01*
X011558Y008101D01*
X011608Y008106D01*
X011657Y008107D01*
X011707Y008104D01*
X011756Y008097D01*
X011805Y008086D01*
X011852Y008072D01*
X011898Y008053D01*
X011943Y008031D01*
X011986Y008006D01*
X012026Y007977D01*
X012064Y007945D01*
X012100Y007911D01*
X012133Y007873D01*
X012162Y007833D01*
X012188Y007791D01*
X012211Y007747D01*
X012230Y007701D01*
X012246Y007654D01*
X012258Y007605D01*
X012266Y007556D01*
X012270Y007507D01*
X012270Y007457D01*
X012266Y007408D01*
X012258Y007359D01*
X012246Y007310D01*
X012230Y007263D01*
X012211Y007217D01*
X012188Y007173D01*
X012162Y007131D01*
X012133Y007091D01*
X012100Y007053D01*
X012064Y007019D01*
X012026Y006987D01*
X011986Y006958D01*
X011943Y006933D01*
X011898Y006911D01*
X011852Y006892D01*
X011805Y006878D01*
X011756Y006867D01*
X011707Y006860D01*
X011657Y006857D01*
X011608Y006858D01*
X011558Y006863D01*
X011509Y006872D01*
X011461Y006885D01*
X011414Y006901D01*
X011369Y006921D01*
X011325Y006945D01*
X011284Y006972D01*
X011244Y007002D01*
X011207Y007036D01*
X011173Y007072D01*
X011142Y007111D01*
X011114Y007152D01*
X011090Y007195D01*
X011069Y007240D01*
X011051Y007287D01*
X011038Y007334D01*
X011028Y007383D01*
X011022Y007432D01*
X011020Y007482D01*
X011020Y013978D02*
X011022Y014028D01*
X011028Y014077D01*
X011038Y014126D01*
X011051Y014173D01*
X011069Y014220D01*
X011090Y014265D01*
X011114Y014308D01*
X011142Y014349D01*
X011173Y014388D01*
X011207Y014424D01*
X011244Y014458D01*
X011284Y014488D01*
X011325Y014515D01*
X011369Y014539D01*
X011414Y014559D01*
X011461Y014575D01*
X011509Y014588D01*
X011558Y014597D01*
X011608Y014602D01*
X011657Y014603D01*
X011707Y014600D01*
X011756Y014593D01*
X011805Y014582D01*
X011852Y014568D01*
X011898Y014549D01*
X011943Y014527D01*
X011986Y014502D01*
X012026Y014473D01*
X012064Y014441D01*
X012100Y014407D01*
X012133Y014369D01*
X012162Y014329D01*
X012188Y014287D01*
X012211Y014243D01*
X012230Y014197D01*
X012246Y014150D01*
X012258Y014101D01*
X012266Y014052D01*
X012270Y014003D01*
X012270Y013953D01*
X012266Y013904D01*
X012258Y013855D01*
X012246Y013806D01*
X012230Y013759D01*
X012211Y013713D01*
X012188Y013669D01*
X012162Y013627D01*
X012133Y013587D01*
X012100Y013549D01*
X012064Y013515D01*
X012026Y013483D01*
X011986Y013454D01*
X011943Y013429D01*
X011898Y013407D01*
X011852Y013388D01*
X011805Y013374D01*
X011756Y013363D01*
X011707Y013356D01*
X011657Y013353D01*
X011608Y013354D01*
X011558Y013359D01*
X011509Y013368D01*
X011461Y013381D01*
X011414Y013397D01*
X011369Y013417D01*
X011325Y013441D01*
X011284Y013468D01*
X011244Y013498D01*
X011207Y013532D01*
X011173Y013568D01*
X011142Y013607D01*
X011114Y013648D01*
X011090Y013691D01*
X011069Y013736D01*
X011051Y013783D01*
X011038Y013830D01*
X011028Y013879D01*
X011022Y013928D01*
X011020Y013978D01*
X017862Y015464D02*
X017864Y015514D01*
X017870Y015563D01*
X017880Y015612D01*
X017893Y015659D01*
X017911Y015706D01*
X017932Y015751D01*
X017956Y015794D01*
X017984Y015835D01*
X018015Y015874D01*
X018049Y015910D01*
X018086Y015944D01*
X018126Y015974D01*
X018167Y016001D01*
X018211Y016025D01*
X018256Y016045D01*
X018303Y016061D01*
X018351Y016074D01*
X018400Y016083D01*
X018450Y016088D01*
X018499Y016089D01*
X018549Y016086D01*
X018598Y016079D01*
X018647Y016068D01*
X018694Y016054D01*
X018740Y016035D01*
X018785Y016013D01*
X018828Y015988D01*
X018868Y015959D01*
X018906Y015927D01*
X018942Y015893D01*
X018975Y015855D01*
X019004Y015815D01*
X019030Y015773D01*
X019053Y015729D01*
X019072Y015683D01*
X019088Y015636D01*
X019100Y015587D01*
X019108Y015538D01*
X019112Y015489D01*
X019112Y015439D01*
X019108Y015390D01*
X019100Y015341D01*
X019088Y015292D01*
X019072Y015245D01*
X019053Y015199D01*
X019030Y015155D01*
X019004Y015113D01*
X018975Y015073D01*
X018942Y015035D01*
X018906Y015001D01*
X018868Y014969D01*
X018828Y014940D01*
X018785Y014915D01*
X018740Y014893D01*
X018694Y014874D01*
X018647Y014860D01*
X018598Y014849D01*
X018549Y014842D01*
X018499Y014839D01*
X018450Y014840D01*
X018400Y014845D01*
X018351Y014854D01*
X018303Y014867D01*
X018256Y014883D01*
X018211Y014903D01*
X018167Y014927D01*
X018126Y014954D01*
X018086Y014984D01*
X018049Y015018D01*
X018015Y015054D01*
X017984Y015093D01*
X017956Y015134D01*
X017932Y015177D01*
X017911Y015222D01*
X017893Y015269D01*
X017880Y015316D01*
X017870Y015365D01*
X017864Y015414D01*
X017862Y015464D01*
X000420Y018678D02*
X000422Y018728D01*
X000428Y018777D01*
X000438Y018826D01*
X000451Y018873D01*
X000469Y018920D01*
X000490Y018965D01*
X000514Y019008D01*
X000542Y019049D01*
X000573Y019088D01*
X000607Y019124D01*
X000644Y019158D01*
X000684Y019188D01*
X000725Y019215D01*
X000769Y019239D01*
X000814Y019259D01*
X000861Y019275D01*
X000909Y019288D01*
X000958Y019297D01*
X001008Y019302D01*
X001057Y019303D01*
X001107Y019300D01*
X001156Y019293D01*
X001205Y019282D01*
X001252Y019268D01*
X001298Y019249D01*
X001343Y019227D01*
X001386Y019202D01*
X001426Y019173D01*
X001464Y019141D01*
X001500Y019107D01*
X001533Y019069D01*
X001562Y019029D01*
X001588Y018987D01*
X001611Y018943D01*
X001630Y018897D01*
X001646Y018850D01*
X001658Y018801D01*
X001666Y018752D01*
X001670Y018703D01*
X001670Y018653D01*
X001666Y018604D01*
X001658Y018555D01*
X001646Y018506D01*
X001630Y018459D01*
X001611Y018413D01*
X001588Y018369D01*
X001562Y018327D01*
X001533Y018287D01*
X001500Y018249D01*
X001464Y018215D01*
X001426Y018183D01*
X001386Y018154D01*
X001343Y018129D01*
X001298Y018107D01*
X001252Y018088D01*
X001205Y018074D01*
X001156Y018063D01*
X001107Y018056D01*
X001057Y018053D01*
X001008Y018054D01*
X000958Y018059D01*
X000909Y018068D01*
X000861Y018081D01*
X000814Y018097D01*
X000769Y018117D01*
X000725Y018141D01*
X000684Y018168D01*
X000644Y018198D01*
X000607Y018232D01*
X000573Y018268D01*
X000542Y018307D01*
X000514Y018348D01*
X000490Y018391D01*
X000469Y018436D01*
X000451Y018483D01*
X000438Y018530D01*
X000428Y018579D01*
X000422Y018628D01*
X000420Y018678D01*
X000420Y012182D02*
X000422Y012232D01*
X000428Y012281D01*
X000438Y012330D01*
X000451Y012377D01*
X000469Y012424D01*
X000490Y012469D01*
X000514Y012512D01*
X000542Y012553D01*
X000573Y012592D01*
X000607Y012628D01*
X000644Y012662D01*
X000684Y012692D01*
X000725Y012719D01*
X000769Y012743D01*
X000814Y012763D01*
X000861Y012779D01*
X000909Y012792D01*
X000958Y012801D01*
X001008Y012806D01*
X001057Y012807D01*
X001107Y012804D01*
X001156Y012797D01*
X001205Y012786D01*
X001252Y012772D01*
X001298Y012753D01*
X001343Y012731D01*
X001386Y012706D01*
X001426Y012677D01*
X001464Y012645D01*
X001500Y012611D01*
X001533Y012573D01*
X001562Y012533D01*
X001588Y012491D01*
X001611Y012447D01*
X001630Y012401D01*
X001646Y012354D01*
X001658Y012305D01*
X001666Y012256D01*
X001670Y012207D01*
X001670Y012157D01*
X001666Y012108D01*
X001658Y012059D01*
X001646Y012010D01*
X001630Y011963D01*
X001611Y011917D01*
X001588Y011873D01*
X001562Y011831D01*
X001533Y011791D01*
X001500Y011753D01*
X001464Y011719D01*
X001426Y011687D01*
X001386Y011658D01*
X001343Y011633D01*
X001298Y011611D01*
X001252Y011592D01*
X001205Y011578D01*
X001156Y011567D01*
X001107Y011560D01*
X001057Y011557D01*
X001008Y011558D01*
X000958Y011563D01*
X000909Y011572D01*
X000861Y011585D01*
X000814Y011601D01*
X000769Y011621D01*
X000725Y011645D01*
X000684Y011672D01*
X000644Y011702D01*
X000607Y011736D01*
X000573Y011772D01*
X000542Y011811D01*
X000514Y011852D01*
X000490Y011895D01*
X000469Y011940D01*
X000451Y011987D01*
X000438Y012034D01*
X000428Y012083D01*
X000422Y012132D01*
X000420Y012182D01*
X000459Y005804D02*
X000461Y005854D01*
X000467Y005903D01*
X000477Y005952D01*
X000490Y005999D01*
X000508Y006046D01*
X000529Y006091D01*
X000553Y006134D01*
X000581Y006175D01*
X000612Y006214D01*
X000646Y006250D01*
X000683Y006284D01*
X000723Y006314D01*
X000764Y006341D01*
X000808Y006365D01*
X000853Y006385D01*
X000900Y006401D01*
X000948Y006414D01*
X000997Y006423D01*
X001047Y006428D01*
X001096Y006429D01*
X001146Y006426D01*
X001195Y006419D01*
X001244Y006408D01*
X001291Y006394D01*
X001337Y006375D01*
X001382Y006353D01*
X001425Y006328D01*
X001465Y006299D01*
X001503Y006267D01*
X001539Y006233D01*
X001572Y006195D01*
X001601Y006155D01*
X001627Y006113D01*
X001650Y006069D01*
X001669Y006023D01*
X001685Y005976D01*
X001697Y005927D01*
X001705Y005878D01*
X001709Y005829D01*
X001709Y005779D01*
X001705Y005730D01*
X001697Y005681D01*
X001685Y005632D01*
X001669Y005585D01*
X001650Y005539D01*
X001627Y005495D01*
X001601Y005453D01*
X001572Y005413D01*
X001539Y005375D01*
X001503Y005341D01*
X001465Y005309D01*
X001425Y005280D01*
X001382Y005255D01*
X001337Y005233D01*
X001291Y005214D01*
X001244Y005200D01*
X001195Y005189D01*
X001146Y005182D01*
X001096Y005179D01*
X001047Y005180D01*
X000997Y005185D01*
X000948Y005194D01*
X000900Y005207D01*
X000853Y005223D01*
X000808Y005243D01*
X000764Y005267D01*
X000723Y005294D01*
X000683Y005324D01*
X000646Y005358D01*
X000612Y005394D01*
X000581Y005433D01*
X000553Y005474D01*
X000529Y005517D01*
X000508Y005562D01*
X000490Y005609D01*
X000477Y005656D01*
X000467Y005705D01*
X000461Y005754D01*
X000459Y005804D01*
D13*
X000150Y000150D02*
X000150Y019835D01*
X019835Y019835D01*
X019835Y000150D01*
X000150Y000150D01*
M02*
