G75*
G70*
%OFA0B0*%
%FSLAX24Y24*%
%IPPOS*%
%LPD*%
%AMOC8*
5,1,8,0,0,1.08239X$1,22.5*
%
%ADD10C,0.1330*%
%ADD11R,0.0600X0.0300*%
%ADD12C,0.0789*%
%ADD13R,0.0592X0.0671*%
%ADD14R,0.0710X0.0790*%
%ADD15R,0.0960X0.0560*%
%ADD16R,0.0946X0.1497*%
%ADD17R,0.0580X0.0300*%
%ADD18R,0.0790X0.0710*%
%ADD19C,0.0330*%
%ADD20R,0.0513X0.0474*%
%ADD21R,0.0300X0.0600*%
%ADD22R,0.0671X0.0592*%
%ADD23R,0.0560X0.0960*%
%ADD24R,0.1497X0.0946*%
%ADD25R,0.0300X0.0580*%
%ADD26R,0.0474X0.0513*%
%ADD27C,0.0476*%
D10*
X001084Y005804D03*
X001045Y012182D03*
X001045Y018678D03*
X011645Y013978D03*
X011645Y007482D03*
X013787Y004864D03*
X011684Y001104D03*
X018487Y015464D03*
D11*
X003455Y015388D03*
X003455Y016128D03*
X002535Y016128D03*
X002535Y015758D03*
X002535Y015388D03*
X002535Y009632D03*
X002535Y009262D03*
X002535Y008892D03*
X003455Y008892D03*
X003455Y009632D03*
X003494Y003254D03*
X003494Y002514D03*
X002574Y002514D03*
X002574Y002884D03*
X002574Y003254D03*
D12*
X001839Y003504D02*
X001130Y003504D01*
X001130Y004504D02*
X001839Y004504D01*
X001839Y002504D02*
X001130Y002504D01*
X001091Y008882D02*
X001799Y008882D01*
X001799Y009882D02*
X001091Y009882D01*
X001091Y010882D02*
X001799Y010882D01*
X001799Y015378D02*
X001091Y015378D01*
X001091Y016378D02*
X001799Y016378D01*
X001799Y017378D02*
X001091Y017378D01*
X010591Y017878D02*
X011299Y017878D01*
X011299Y016878D02*
X010591Y016878D01*
X014587Y015118D02*
X014587Y014410D01*
X015587Y014410D02*
X015587Y015118D01*
X011299Y011382D02*
X010591Y011382D01*
X010591Y010382D02*
X011299Y010382D01*
X015087Y005618D02*
X015087Y004910D01*
X016087Y004910D02*
X016087Y005618D01*
X017087Y005618D02*
X017087Y004910D01*
X011339Y005004D02*
X010630Y005004D01*
X010630Y004004D02*
X011339Y004004D01*
D13*
X005339Y001734D03*
X004670Y001734D03*
X004630Y008112D03*
X005300Y008112D03*
X005300Y014608D03*
X004630Y014608D03*
D14*
X006885Y016778D03*
X006885Y017878D03*
X008005Y017878D03*
X008005Y016778D03*
X008005Y011382D03*
X008005Y010282D03*
X006885Y010282D03*
X006885Y011382D03*
X006925Y005004D03*
X006925Y003904D03*
X008044Y003904D03*
X008044Y005004D03*
X014078Y007264D03*
X014078Y008264D03*
X014078Y009264D03*
X015197Y009264D03*
X015197Y008264D03*
X015197Y007264D03*
D15*
X007525Y007572D03*
X007525Y008482D03*
X007525Y009392D03*
X007525Y014068D03*
X007525Y014978D03*
X007525Y015888D03*
X007564Y003014D03*
X007564Y002104D03*
X007564Y001194D03*
D16*
X010005Y002104D03*
X009965Y008482D03*
X009965Y014978D03*
D17*
X005855Y015558D03*
X005855Y015928D03*
X005855Y016298D03*
X004835Y016298D03*
X004835Y015928D03*
X004835Y015558D03*
X004835Y009802D03*
X004835Y009432D03*
X004835Y009062D03*
X005855Y009062D03*
X005855Y009432D03*
X005855Y009802D03*
X005894Y003424D03*
X005894Y003054D03*
X005894Y002684D03*
X004874Y002684D03*
X004874Y003054D03*
X004874Y003424D03*
D18*
X004484Y004394D03*
X003484Y004394D03*
X003484Y005514D03*
X004484Y005514D03*
X005484Y005514D03*
X005484Y004394D03*
X005445Y010772D03*
X004445Y010772D03*
X003445Y010772D03*
X003445Y011892D03*
X004445Y011892D03*
X005445Y011892D03*
X005445Y017268D03*
X004445Y017268D03*
X003445Y017268D03*
X003445Y018388D03*
X004445Y018388D03*
X005445Y018388D03*
X014587Y011824D03*
X015687Y011824D03*
X015687Y010704D03*
X014587Y010704D03*
D19*
X015087Y009964D03*
X016337Y010164D03*
X016287Y008164D03*
X016987Y007764D03*
X015337Y006264D03*
X006384Y003254D03*
X006184Y004504D03*
X004384Y003304D03*
X003984Y002604D03*
X002484Y004254D03*
X003945Y008982D03*
X004345Y009682D03*
X002445Y010632D03*
X006145Y010882D03*
X006345Y009632D03*
X003945Y015478D03*
X004345Y016178D03*
X002445Y017128D03*
X006145Y017378D03*
X006345Y016128D03*
D20*
X003350Y014618D03*
X002680Y014618D03*
X002680Y008122D03*
X003350Y008122D03*
X003389Y001744D03*
X002720Y001744D03*
D21*
X016337Y006354D03*
X016707Y006354D03*
X017077Y006354D03*
X017077Y007274D03*
X016337Y007274D03*
D22*
X017857Y008449D03*
X017857Y009119D03*
D23*
X017487Y011344D03*
X016578Y011344D03*
X018397Y011344D03*
D24*
X017487Y013784D03*
D25*
X016907Y009674D03*
X016537Y009674D03*
X016167Y009674D03*
X016167Y008654D03*
X016537Y008654D03*
X016907Y008654D03*
D26*
X017847Y007169D03*
X017847Y006499D03*
D27*
X002054Y001654D03*
X002484Y005954D03*
X002015Y008032D03*
X002445Y012332D03*
X002015Y014528D03*
X002445Y018828D03*
X006845Y014078D03*
X009345Y012182D03*
X013787Y013164D03*
X018387Y010664D03*
X017937Y005834D03*
X013637Y006264D03*
X009384Y005804D03*
X006845Y007582D03*
X006884Y001204D03*
X009345Y018678D03*
M02*
