G75*
G70*
%OFA0B0*%
%FSLAX24Y24*%
%IPPOS*%
%LPD*%
%AMOC8*
5,1,8,0,0,1.08239X$1,22.5*
%
%ADD10C,0.0040*%
%ADD11C,0.0709*%
%ADD12R,0.0866X0.3150*%
%ADD13R,0.0630X0.0710*%
%ADD14R,0.0394X0.1181*%
%ADD15R,0.3150X0.0866*%
%ADD16R,0.0710X0.0630*%
%ADD17R,0.1181X0.0394*%
%ADD18C,0.0100*%
%ADD19C,0.0396*%
%ADD20C,0.0500*%
D10*
X009014Y001070D02*
X009014Y001097D01*
X008908Y001203D01*
X008908Y001230D01*
X009014Y001230D01*
X009145Y001230D02*
X009145Y001070D01*
X009198Y001070D02*
X009092Y001070D01*
X009198Y001177D02*
X009145Y001230D01*
X009276Y001230D02*
X009383Y001230D01*
X009383Y001150D01*
X009329Y001177D01*
X009303Y001177D01*
X009276Y001150D01*
X009276Y001097D01*
X009303Y001070D01*
X009356Y001070D01*
X009383Y001097D01*
X009460Y001097D02*
X009487Y001070D01*
X009540Y001070D01*
X009567Y001097D01*
X009460Y001203D01*
X009460Y001097D01*
X009460Y001203D02*
X009487Y001230D01*
X009540Y001230D01*
X009567Y001203D01*
X009567Y001097D01*
X009644Y001097D02*
X009671Y001070D01*
X009724Y001070D01*
X009751Y001097D01*
X009698Y001150D02*
X009671Y001150D01*
X009644Y001123D01*
X009644Y001097D01*
X009671Y001150D02*
X009644Y001177D01*
X009644Y001203D01*
X009671Y001230D01*
X009724Y001230D01*
X009751Y001203D01*
X009882Y001230D02*
X009882Y001070D01*
X009935Y001070D02*
X009828Y001070D01*
X009812Y000930D02*
X009812Y000770D01*
X009706Y000770D01*
X009628Y000770D02*
X009628Y000930D01*
X009548Y000930D01*
X009521Y000903D01*
X009521Y000850D01*
X009548Y000823D01*
X009628Y000823D01*
X009575Y000823D02*
X009521Y000770D01*
X009706Y000930D02*
X009812Y000930D01*
X009890Y000930D02*
X009890Y000823D01*
X009943Y000770D01*
X009996Y000823D01*
X009996Y000930D01*
X010066Y000930D02*
X010119Y000930D01*
X010093Y000930D02*
X010093Y000770D01*
X010119Y000770D02*
X010066Y000770D01*
X010197Y000770D02*
X010250Y000823D01*
X010223Y000823D02*
X010303Y000823D01*
X010303Y000770D02*
X010303Y000930D01*
X010223Y000930D01*
X010197Y000903D01*
X010197Y000850D01*
X010223Y000823D01*
X010381Y000797D02*
X010381Y000903D01*
X010407Y000930D01*
X010488Y000930D01*
X010488Y000770D01*
X010407Y000770D01*
X010381Y000797D01*
X010303Y001070D02*
X010197Y001177D01*
X010197Y001203D01*
X010223Y001230D01*
X010277Y001230D01*
X010303Y001203D01*
X010303Y001070D02*
X010197Y001070D01*
X010119Y001097D02*
X010012Y001203D01*
X010012Y001097D01*
X010039Y001070D01*
X010093Y001070D01*
X010119Y001097D01*
X010119Y001203D01*
X010093Y001230D01*
X010039Y001230D01*
X010012Y001203D01*
X009935Y001177D02*
X009882Y001230D01*
X009812Y000850D02*
X009759Y000850D01*
X009260Y000903D02*
X009233Y000930D01*
X009180Y000930D01*
X009153Y000903D01*
X009153Y000877D01*
X009260Y000770D01*
X009153Y000770D01*
X010565Y001070D02*
X010565Y001230D01*
X010618Y001177D01*
X010672Y001230D01*
X010672Y001070D01*
X010749Y001070D02*
X010749Y001230D01*
X010856Y001230D02*
X010856Y001070D01*
X010802Y001123D01*
X010749Y001070D01*
X010749Y000930D02*
X010856Y000930D01*
X010802Y000930D02*
X010802Y000770D01*
X010933Y000770D02*
X010933Y000877D01*
X010987Y000930D01*
X011040Y000877D01*
X011040Y000770D01*
X011040Y000850D02*
X010933Y000850D01*
X010933Y001070D02*
X011040Y001070D01*
X011040Y001230D01*
X010933Y001230D01*
X010987Y001150D02*
X011040Y001150D01*
X011030Y007220D02*
X011030Y007327D01*
X010977Y007380D01*
X010923Y007327D01*
X010923Y007220D01*
X010923Y007300D02*
X011030Y007300D01*
X010846Y007380D02*
X010739Y007380D01*
X010792Y007380D02*
X010792Y007220D01*
X010739Y007520D02*
X010739Y007680D01*
X010662Y007680D02*
X010608Y007627D01*
X010555Y007680D01*
X010555Y007520D01*
X010662Y007520D02*
X010662Y007680D01*
X010792Y007573D02*
X010739Y007520D01*
X010792Y007573D02*
X010846Y007520D01*
X010846Y007680D01*
X010923Y007680D02*
X011030Y007680D01*
X011030Y007520D01*
X010923Y007520D01*
X010977Y007600D02*
X011030Y007600D01*
X010478Y007380D02*
X010478Y007220D01*
X010397Y007220D01*
X010371Y007247D01*
X010371Y007353D01*
X010397Y007380D01*
X010478Y007380D01*
X010293Y007380D02*
X010293Y007220D01*
X010293Y007273D02*
X010213Y007273D01*
X010187Y007300D01*
X010187Y007353D01*
X010213Y007380D01*
X010293Y007380D01*
X010240Y007273D02*
X010187Y007220D01*
X010109Y007220D02*
X010056Y007220D01*
X010083Y007220D02*
X010083Y007380D01*
X010109Y007380D02*
X010056Y007380D01*
X009986Y007380D02*
X009986Y007273D01*
X009933Y007220D01*
X009880Y007273D01*
X009880Y007380D01*
X009802Y007380D02*
X009802Y007220D01*
X009696Y007220D01*
X009618Y007220D02*
X009618Y007380D01*
X009538Y007380D01*
X009511Y007353D01*
X009511Y007300D01*
X009538Y007273D01*
X009618Y007273D01*
X009565Y007273D02*
X009511Y007220D01*
X009696Y007380D02*
X009802Y007380D01*
X009802Y007300D02*
X009749Y007300D01*
X009714Y007520D02*
X009661Y007520D01*
X009634Y007547D01*
X009634Y007573D01*
X009661Y007600D01*
X009688Y007600D01*
X009661Y007600D02*
X009634Y007627D01*
X009634Y007653D01*
X009661Y007680D01*
X009714Y007680D01*
X009741Y007653D01*
X009741Y007547D02*
X009714Y007520D01*
X009818Y007520D02*
X009925Y007520D01*
X009872Y007520D02*
X009872Y007680D01*
X009925Y007627D01*
X010002Y007653D02*
X010109Y007547D01*
X010083Y007520D01*
X010029Y007520D01*
X010002Y007547D01*
X010002Y007653D01*
X010029Y007680D01*
X010083Y007680D01*
X010109Y007653D01*
X010109Y007547D01*
X010187Y007520D02*
X010293Y007520D01*
X010187Y007627D01*
X010187Y007653D01*
X010213Y007680D01*
X010267Y007680D01*
X010293Y007653D01*
X009557Y007653D02*
X009530Y007680D01*
X009477Y007680D01*
X009450Y007653D01*
X009557Y007547D01*
X009530Y007520D01*
X009477Y007520D01*
X009450Y007547D01*
X009450Y007653D01*
X009373Y007680D02*
X009373Y007600D01*
X009319Y007627D01*
X009293Y007627D01*
X009266Y007600D01*
X009266Y007547D01*
X009293Y007520D01*
X009346Y007520D01*
X009373Y007547D01*
X009373Y007680D02*
X009266Y007680D01*
X009188Y007627D02*
X009135Y007680D01*
X009135Y007520D01*
X009188Y007520D02*
X009082Y007520D01*
X009004Y007520D02*
X009004Y007547D01*
X008898Y007653D01*
X008898Y007680D01*
X009004Y007680D01*
X009170Y007380D02*
X009223Y007380D01*
X009250Y007353D01*
X009170Y007380D02*
X009143Y007353D01*
X009143Y007327D01*
X009250Y007220D01*
X009143Y007220D01*
X009557Y007547D02*
X009557Y007653D01*
X009511Y013880D02*
X009565Y013933D01*
X009538Y013933D02*
X009618Y013933D01*
X009618Y013880D02*
X009618Y014040D01*
X009538Y014040D01*
X009511Y014013D01*
X009511Y013960D01*
X009538Y013933D01*
X009696Y013880D02*
X009802Y013880D01*
X009802Y014040D01*
X009696Y014040D01*
X009749Y013960D02*
X009802Y013960D01*
X009880Y013933D02*
X009880Y014040D01*
X009986Y014040D02*
X009986Y013933D01*
X009933Y013880D01*
X009880Y013933D01*
X010056Y013880D02*
X010109Y013880D01*
X010083Y013880D02*
X010083Y014040D01*
X010109Y014040D02*
X010056Y014040D01*
X010187Y014013D02*
X010187Y013960D01*
X010213Y013933D01*
X010293Y013933D01*
X010293Y013880D02*
X010293Y014040D01*
X010213Y014040D01*
X010187Y014013D01*
X010240Y013933D02*
X010187Y013880D01*
X010371Y013907D02*
X010371Y014013D01*
X010397Y014040D01*
X010478Y014040D01*
X010478Y013880D01*
X010397Y013880D01*
X010371Y013907D01*
X010293Y014180D02*
X010187Y014287D01*
X010187Y014313D01*
X010213Y014340D01*
X010267Y014340D01*
X010293Y014313D01*
X010293Y014180D02*
X010187Y014180D01*
X010109Y014207D02*
X010002Y014313D01*
X010002Y014207D01*
X010029Y014180D01*
X010083Y014180D01*
X010109Y014207D01*
X010109Y014313D01*
X010083Y014340D01*
X010029Y014340D01*
X010002Y014313D01*
X009925Y014287D02*
X009872Y014340D01*
X009872Y014180D01*
X009925Y014180D02*
X009818Y014180D01*
X009741Y014207D02*
X009714Y014180D01*
X009661Y014180D01*
X009634Y014207D01*
X009634Y014233D01*
X009661Y014260D01*
X009688Y014260D01*
X009661Y014260D02*
X009634Y014287D01*
X009634Y014313D01*
X009661Y014340D01*
X009714Y014340D01*
X009741Y014313D01*
X009557Y014313D02*
X009557Y014207D01*
X009450Y014313D01*
X009450Y014207D01*
X009477Y014180D01*
X009530Y014180D01*
X009557Y014207D01*
X009557Y014313D02*
X009530Y014340D01*
X009477Y014340D01*
X009450Y014313D01*
X009373Y014340D02*
X009373Y014260D01*
X009319Y014287D01*
X009293Y014287D01*
X009266Y014260D01*
X009266Y014207D01*
X009293Y014180D01*
X009346Y014180D01*
X009373Y014207D01*
X009373Y014340D02*
X009266Y014340D01*
X009188Y014287D02*
X009135Y014340D01*
X009135Y014180D01*
X009188Y014180D02*
X009082Y014180D01*
X009004Y014180D02*
X009004Y014207D01*
X008898Y014313D01*
X008898Y014340D01*
X009004Y014340D01*
X009170Y014040D02*
X009223Y014040D01*
X009250Y014013D01*
X009170Y014040D02*
X009143Y014013D01*
X009143Y013987D01*
X009250Y013880D01*
X009143Y013880D01*
X010555Y014180D02*
X010555Y014340D01*
X010608Y014287D01*
X010662Y014340D01*
X010662Y014180D01*
X010739Y014180D02*
X010739Y014340D01*
X010846Y014340D02*
X010846Y014180D01*
X010792Y014233D01*
X010739Y014180D01*
X010739Y014040D02*
X010846Y014040D01*
X010792Y014040D02*
X010792Y013880D01*
X010923Y013880D02*
X010923Y013987D01*
X010977Y014040D01*
X011030Y013987D01*
X011030Y013880D01*
X011030Y013960D02*
X010923Y013960D01*
X010923Y014180D02*
X011030Y014180D01*
X011030Y014340D01*
X010923Y014340D01*
X010977Y014260D02*
X011030Y014260D01*
X018730Y015060D02*
X018837Y015060D01*
X018890Y015113D01*
X018837Y015167D01*
X018730Y015167D01*
X018810Y015167D02*
X018810Y015060D01*
X018890Y015244D02*
X018890Y015351D01*
X018890Y015298D02*
X018730Y015298D01*
X018730Y015613D02*
X018730Y015693D01*
X018757Y015719D01*
X018863Y015719D01*
X018890Y015693D01*
X018890Y015613D01*
X018730Y015613D01*
X018730Y015797D02*
X018890Y015797D01*
X018890Y015877D01*
X018863Y015903D01*
X018810Y015903D01*
X018783Y015877D01*
X018783Y015797D01*
X018783Y015850D02*
X018730Y015903D01*
X018730Y015981D02*
X018730Y016034D01*
X018730Y016008D02*
X018890Y016008D01*
X018890Y016034D02*
X018890Y015981D01*
X018890Y016104D02*
X018783Y016104D01*
X018730Y016157D01*
X018783Y016210D01*
X018890Y016210D01*
X018890Y016288D02*
X018730Y016288D01*
X018730Y016395D01*
X018730Y016472D02*
X018890Y016472D01*
X018890Y016552D01*
X018863Y016579D01*
X018810Y016579D01*
X018783Y016552D01*
X018783Y016472D01*
X018783Y016525D02*
X018730Y016579D01*
X018890Y016395D02*
X018890Y016288D01*
X018810Y016288D02*
X018810Y016341D01*
X019030Y016376D02*
X019057Y016349D01*
X019030Y016376D02*
X019030Y016429D01*
X019057Y016456D01*
X019083Y016456D01*
X019110Y016429D01*
X019110Y016403D01*
X019110Y016429D02*
X019137Y016456D01*
X019163Y016456D01*
X019190Y016429D01*
X019190Y016376D01*
X019163Y016349D01*
X019190Y016218D02*
X019030Y016218D01*
X019030Y016165D02*
X019030Y016272D01*
X019137Y016165D02*
X019190Y016218D01*
X019163Y016088D02*
X019057Y015981D01*
X019030Y016008D01*
X019030Y016061D01*
X019057Y016088D01*
X019163Y016088D01*
X019190Y016061D01*
X019190Y016008D01*
X019163Y015981D01*
X019057Y015981D01*
X019030Y015903D02*
X019030Y015797D01*
X019137Y015903D01*
X019163Y015903D01*
X019190Y015877D01*
X019190Y015823D01*
X019163Y015797D01*
X019190Y015535D02*
X019030Y015535D01*
X019030Y015428D02*
X019190Y015428D01*
X019137Y015482D01*
X019190Y015535D01*
X019190Y015351D02*
X019030Y015351D01*
X019083Y015298D01*
X019030Y015244D01*
X019190Y015244D01*
X019190Y015167D02*
X019190Y015060D01*
X019030Y015060D01*
X019030Y015167D01*
X019110Y015113D02*
X019110Y015060D01*
X019057Y016533D02*
X019163Y016640D01*
X019057Y016640D01*
X019030Y016613D01*
X019030Y016560D01*
X019057Y016533D01*
X019163Y016533D01*
X019190Y016560D01*
X019190Y016613D01*
X019163Y016640D01*
X019190Y016718D02*
X019110Y016718D01*
X019137Y016771D01*
X019137Y016798D01*
X019110Y016824D01*
X019057Y016824D01*
X019030Y016798D01*
X019030Y016744D01*
X019057Y016718D01*
X019190Y016718D02*
X019190Y016824D01*
X019137Y016902D02*
X019190Y016955D01*
X019030Y016955D01*
X019030Y016902D02*
X019030Y017008D01*
X019030Y017086D02*
X019057Y017086D01*
X019163Y017193D01*
X019190Y017193D01*
X019190Y017086D01*
X018890Y016920D02*
X018890Y016867D01*
X018863Y016840D01*
X018890Y016920D02*
X018863Y016947D01*
X018837Y016947D01*
X018730Y016840D01*
X018730Y016947D01*
D11*
X015910Y017096D02*
X015910Y017804D01*
X014910Y017804D02*
X014910Y017096D01*
X011604Y017160D02*
X010896Y017160D01*
X010896Y018160D02*
X011604Y018160D01*
X011604Y011500D02*
X010896Y011500D01*
X010896Y010500D02*
X011604Y010500D01*
X015410Y008304D02*
X015410Y007596D01*
X016410Y007596D02*
X016410Y008304D01*
X017410Y008304D02*
X017410Y007596D01*
X011614Y005050D02*
X010906Y005050D01*
X010906Y004050D02*
X011614Y004050D01*
X002114Y003550D02*
X001406Y003550D01*
X001406Y002550D02*
X002114Y002550D01*
X002114Y004550D02*
X001406Y004550D01*
X001396Y009000D02*
X002104Y009000D01*
X002104Y010000D02*
X001396Y010000D01*
X001396Y011000D02*
X002104Y011000D01*
X002104Y015660D02*
X001396Y015660D01*
X001396Y016660D02*
X002104Y016660D01*
X002104Y017660D02*
X001396Y017660D01*
D12*
X005749Y016650D03*
X009371Y016650D03*
X009371Y009990D03*
X005749Y009990D03*
X005759Y003540D03*
X009381Y003540D03*
D13*
X004200Y001484D03*
X003080Y001484D03*
X003070Y007934D03*
X004190Y007934D03*
X004190Y014594D03*
X003070Y014594D03*
D14*
X003876Y016074D03*
X003876Y017886D03*
X003876Y011226D03*
X003876Y009414D03*
X003886Y004776D03*
X003886Y002964D03*
D15*
X016420Y011949D03*
X016420Y015571D03*
D16*
X018476Y010390D03*
X018476Y009270D03*
D17*
X016996Y010076D03*
X015184Y010076D03*
D18*
X001015Y002306D02*
X001015Y000805D01*
X009033Y000805D01*
X009033Y000820D01*
X009037Y000823D01*
X009033Y000827D01*
X009033Y000950D01*
X008965Y000950D01*
X008894Y001020D01*
X008894Y001047D01*
X008788Y001154D01*
X008788Y001280D01*
X008858Y001350D01*
X009064Y001350D01*
X009080Y001334D01*
X009095Y001350D01*
X009195Y001350D01*
X009210Y001334D01*
X009226Y001350D01*
X009432Y001350D01*
X009435Y001348D01*
X009437Y001350D01*
X009590Y001350D01*
X009605Y001334D01*
X009621Y001350D01*
X009774Y001350D01*
X009803Y001321D01*
X009832Y001350D01*
X009931Y001350D01*
X009960Y001321D01*
X009963Y001323D01*
X009989Y001350D01*
X010142Y001350D01*
X010158Y001334D01*
X010174Y001350D01*
X010326Y001350D01*
X010423Y001253D01*
X010423Y001154D01*
X010406Y001137D01*
X010423Y001120D01*
X010423Y001050D01*
X010445Y001050D01*
X010445Y001280D01*
X010480Y001314D01*
X010515Y001350D01*
X010615Y001350D01*
X010618Y001346D01*
X010622Y001350D01*
X010799Y001350D01*
X010802Y001346D01*
X010806Y001350D01*
X011090Y001350D01*
X011160Y001280D01*
X011160Y001020D01*
X011113Y000973D01*
X011160Y000926D01*
X011160Y000805D01*
X011351Y000805D01*
X011265Y001012D01*
X011265Y001288D01*
X011371Y001544D01*
X011566Y001739D01*
X011822Y001845D01*
X012098Y001845D01*
X012316Y001755D01*
X012316Y006201D01*
X001967Y006201D01*
X002055Y005988D01*
X002055Y005712D01*
X001949Y005456D01*
X001754Y005261D01*
X001498Y005155D01*
X001222Y005155D01*
X001015Y005241D01*
X001015Y004794D01*
X001021Y004807D01*
X001148Y004935D01*
X001315Y005004D01*
X002205Y005004D01*
X002372Y004935D01*
X002499Y004807D01*
X002569Y004640D01*
X002569Y004460D01*
X002499Y004293D01*
X002372Y004165D01*
X002205Y004096D01*
X001315Y004096D01*
X001148Y004165D01*
X001021Y004293D01*
X001015Y004306D01*
X001015Y003870D01*
X001021Y003879D01*
X001077Y003935D01*
X001141Y003981D01*
X001212Y004017D01*
X001288Y004042D01*
X001366Y004054D01*
X001710Y004054D01*
X001710Y003600D01*
X001810Y003600D01*
X001810Y004054D01*
X002154Y004054D01*
X002232Y004042D01*
X002308Y004017D01*
X002379Y003981D01*
X002443Y003935D01*
X002499Y003879D01*
X002546Y003814D01*
X002582Y003744D01*
X002606Y003668D01*
X002617Y003600D01*
X001810Y003600D01*
X001810Y003500D01*
X002617Y003500D01*
X002606Y003432D01*
X002582Y003356D01*
X002546Y003286D01*
X002499Y003221D01*
X002443Y003165D01*
X002379Y003119D01*
X002308Y003083D01*
X002232Y003058D01*
X002154Y003046D01*
X001810Y003046D01*
X001810Y003500D01*
X001710Y003500D01*
X001710Y003046D01*
X001366Y003046D01*
X001288Y003058D01*
X001212Y003083D01*
X001141Y003119D01*
X001077Y003165D01*
X001021Y003221D01*
X001015Y003230D01*
X001015Y002794D01*
X001021Y002807D01*
X001148Y002935D01*
X001315Y003004D01*
X002205Y003004D01*
X002372Y002935D01*
X002499Y002807D01*
X002569Y002640D01*
X002569Y002460D01*
X002499Y002293D01*
X002372Y002165D01*
X002205Y002096D01*
X001315Y002096D01*
X001148Y002165D01*
X001021Y002293D01*
X001015Y002306D01*
X001015Y002219D02*
X001095Y002219D01*
X001015Y002120D02*
X001257Y002120D01*
X001015Y002022D02*
X005226Y002022D01*
X005226Y002120D02*
X002263Y002120D01*
X002425Y002219D02*
X005226Y002219D01*
X005226Y002317D02*
X004222Y002317D01*
X004222Y002316D02*
X004232Y002354D01*
X004232Y002916D01*
X003934Y002916D01*
X003934Y002224D01*
X004102Y002224D01*
X004140Y002234D01*
X004175Y002254D01*
X004202Y002282D01*
X004222Y002316D01*
X004232Y002416D02*
X005226Y002416D01*
X005226Y002514D02*
X004232Y002514D01*
X004232Y002613D02*
X005226Y002613D01*
X005226Y002711D02*
X004232Y002711D01*
X004232Y002810D02*
X005226Y002810D01*
X005226Y002908D02*
X004232Y002908D01*
X004232Y003013D02*
X004232Y003575D01*
X004222Y003613D01*
X004202Y003647D01*
X004175Y003675D01*
X004140Y003695D01*
X004102Y003705D01*
X003934Y003705D01*
X003934Y003013D01*
X003837Y003013D01*
X003837Y002916D01*
X003539Y002916D01*
X003539Y002354D01*
X003549Y002316D01*
X003569Y002282D01*
X003597Y002254D01*
X003631Y002234D01*
X003669Y002224D01*
X003837Y002224D01*
X003837Y002916D01*
X003934Y002916D01*
X003934Y003013D01*
X004232Y003013D01*
X004232Y003105D02*
X005226Y003105D01*
X005226Y003094D02*
X005220Y003080D01*
X005220Y002940D01*
X005226Y002926D01*
X005226Y001924D01*
X005240Y001910D01*
X005240Y001871D01*
X005203Y001834D01*
X004615Y001834D01*
X004615Y001881D01*
X004556Y001939D01*
X003843Y001939D01*
X003785Y001881D01*
X003785Y001088D01*
X003843Y001029D01*
X004556Y001029D01*
X004615Y001088D01*
X004615Y001134D01*
X005418Y001134D01*
X005546Y001188D01*
X005628Y001270D01*
X005683Y001213D01*
X005684Y001211D01*
X005732Y001163D01*
X005779Y001115D01*
X005781Y001114D01*
X005783Y001112D01*
X005845Y001087D01*
X005907Y001060D01*
X005909Y001060D01*
X005911Y001059D01*
X005979Y001059D01*
X006046Y001058D01*
X006048Y001059D01*
X006856Y001059D01*
X006962Y000953D01*
X007090Y000900D01*
X007230Y000900D01*
X007358Y000953D01*
X007457Y001052D01*
X007510Y001180D01*
X007510Y001320D01*
X007457Y001448D01*
X007298Y001607D01*
X007199Y001706D01*
X007071Y001759D01*
X006129Y001759D01*
X006025Y001865D01*
X006233Y001865D01*
X006292Y001924D01*
X006292Y005156D01*
X006268Y005180D01*
X006365Y005180D01*
X008193Y003352D01*
X008292Y003253D01*
X008420Y003200D01*
X008848Y003200D01*
X008848Y001924D01*
X008907Y001865D01*
X009856Y001865D01*
X009914Y001924D01*
X009914Y003199D01*
X009963Y003200D01*
X010030Y003200D01*
X010033Y003201D01*
X010036Y003201D01*
X010097Y003228D01*
X010158Y003253D01*
X010160Y003256D01*
X010163Y003257D01*
X010210Y003305D01*
X010605Y003700D01*
X010613Y003700D01*
X010648Y003665D01*
X010815Y003596D01*
X011705Y003596D01*
X011872Y003665D01*
X011999Y003793D01*
X012069Y003960D01*
X012069Y004140D01*
X011999Y004307D01*
X011872Y004435D01*
X011705Y004504D01*
X010815Y004504D01*
X010648Y004435D01*
X010613Y004400D01*
X010390Y004400D01*
X010262Y004347D01*
X009914Y003999D01*
X009914Y005156D01*
X009856Y005215D01*
X008907Y005215D01*
X008848Y005156D01*
X008848Y003900D01*
X008635Y003900D01*
X006807Y005728D01*
X006708Y005827D01*
X006580Y005880D01*
X004110Y005880D01*
X003982Y005827D01*
X003883Y005728D01*
X003589Y005434D01*
X003536Y005305D01*
X003536Y004706D01*
X003589Y004578D01*
X003589Y004144D01*
X003647Y004085D01*
X004124Y004085D01*
X004182Y004144D01*
X004182Y004578D01*
X004236Y004706D01*
X004236Y005091D01*
X004325Y005180D01*
X005250Y005180D01*
X005226Y005156D01*
X005226Y003094D01*
X005220Y003007D02*
X003934Y003007D01*
X003837Y003007D02*
X001015Y003007D01*
X001015Y003105D02*
X001168Y003105D01*
X001039Y003204D02*
X001015Y003204D01*
X001015Y002908D02*
X001121Y002908D01*
X001023Y002810D02*
X001015Y002810D01*
X001710Y003105D02*
X001810Y003105D01*
X001810Y003204D02*
X001710Y003204D01*
X001710Y003302D02*
X001810Y003302D01*
X001810Y003401D02*
X001710Y003401D01*
X001710Y003499D02*
X001810Y003499D01*
X001810Y003598D02*
X003545Y003598D01*
X003549Y003613D02*
X003539Y003575D01*
X003539Y003013D01*
X003837Y003013D01*
X003837Y003705D01*
X003669Y003705D01*
X003631Y003695D01*
X003597Y003675D01*
X003569Y003647D01*
X003549Y003613D01*
X003539Y003499D02*
X002617Y003499D01*
X002596Y003401D02*
X003539Y003401D01*
X003539Y003302D02*
X002554Y003302D01*
X002481Y003204D02*
X003539Y003204D01*
X003539Y003105D02*
X002352Y003105D01*
X002399Y002908D02*
X003539Y002908D01*
X003539Y002810D02*
X002497Y002810D01*
X002539Y002711D02*
X003539Y002711D01*
X003539Y002613D02*
X002569Y002613D01*
X002569Y002514D02*
X003539Y002514D01*
X003539Y002416D02*
X002550Y002416D01*
X002510Y002317D02*
X003549Y002317D01*
X003837Y002317D02*
X003934Y002317D01*
X003934Y002416D02*
X003837Y002416D01*
X003837Y002514D02*
X003934Y002514D01*
X003934Y002613D02*
X003837Y002613D01*
X003837Y002711D02*
X003934Y002711D01*
X003934Y002810D02*
X003837Y002810D01*
X003837Y002908D02*
X003934Y002908D01*
X003934Y003105D02*
X003837Y003105D01*
X003837Y003204D02*
X003934Y003204D01*
X003934Y003302D02*
X003837Y003302D01*
X003837Y003401D02*
X003934Y003401D01*
X003934Y003499D02*
X003837Y003499D01*
X003837Y003598D02*
X003934Y003598D01*
X003934Y003696D02*
X003837Y003696D01*
X003635Y003696D02*
X002597Y003696D01*
X002556Y003795D02*
X005226Y003795D01*
X005226Y003893D02*
X002485Y003893D01*
X002359Y003992D02*
X005226Y003992D01*
X005226Y004090D02*
X004129Y004090D01*
X004182Y004189D02*
X005226Y004189D01*
X005226Y004287D02*
X004182Y004287D01*
X004182Y004386D02*
X005226Y004386D01*
X005226Y004484D02*
X004182Y004484D01*
X004184Y004583D02*
X005226Y004583D01*
X005226Y004681D02*
X004225Y004681D01*
X004236Y004780D02*
X005226Y004780D01*
X005226Y004878D02*
X004236Y004878D01*
X004236Y004977D02*
X005226Y004977D01*
X005226Y005075D02*
X004236Y005075D01*
X004318Y005174D02*
X005243Y005174D01*
X004069Y005863D02*
X002055Y005863D01*
X002055Y005765D02*
X003920Y005765D01*
X003821Y005666D02*
X002036Y005666D01*
X001995Y005568D02*
X003723Y005568D01*
X003624Y005469D02*
X001954Y005469D01*
X001863Y005371D02*
X003563Y005371D01*
X003536Y005272D02*
X001765Y005272D01*
X001543Y005174D02*
X003536Y005174D01*
X003536Y005075D02*
X001015Y005075D01*
X001015Y004977D02*
X001248Y004977D01*
X001091Y004878D02*
X001015Y004878D01*
X001015Y005174D02*
X001177Y005174D01*
X001026Y004287D02*
X001015Y004287D01*
X001015Y004189D02*
X001125Y004189D01*
X001015Y004090D02*
X003642Y004090D01*
X003589Y004189D02*
X002395Y004189D01*
X002494Y004287D02*
X003589Y004287D01*
X003589Y004386D02*
X002538Y004386D01*
X002569Y004484D02*
X003589Y004484D01*
X003587Y004583D02*
X002569Y004583D01*
X002552Y004681D02*
X003546Y004681D01*
X003536Y004780D02*
X002511Y004780D01*
X002429Y004878D02*
X003536Y004878D01*
X003536Y004977D02*
X002272Y004977D01*
X002055Y005962D02*
X012316Y005962D01*
X012316Y006060D02*
X002025Y006060D01*
X001984Y006159D02*
X012316Y006159D01*
X012316Y005863D02*
X006621Y005863D01*
X006770Y005765D02*
X012316Y005765D01*
X012316Y005666D02*
X006869Y005666D01*
X006807Y005728D02*
X006807Y005728D01*
X006967Y005568D02*
X012316Y005568D01*
X012316Y005469D02*
X011790Y005469D01*
X011872Y005435D02*
X011705Y005504D01*
X010815Y005504D01*
X010648Y005435D01*
X010521Y005307D01*
X010451Y005140D01*
X010451Y004960D01*
X010521Y004793D01*
X010648Y004665D01*
X010815Y004596D01*
X011705Y004596D01*
X011872Y004665D01*
X011999Y004793D01*
X012069Y004960D01*
X012069Y005140D01*
X011999Y005307D01*
X011872Y005435D01*
X011936Y005371D02*
X012316Y005371D01*
X012316Y005272D02*
X012014Y005272D01*
X012055Y005174D02*
X012316Y005174D01*
X012316Y005075D02*
X012069Y005075D01*
X012069Y004977D02*
X012316Y004977D01*
X012316Y004878D02*
X012035Y004878D01*
X011986Y004780D02*
X012316Y004780D01*
X012316Y004681D02*
X011888Y004681D01*
X011754Y004484D02*
X012316Y004484D01*
X012316Y004386D02*
X011921Y004386D01*
X012008Y004287D02*
X012316Y004287D01*
X012316Y004189D02*
X012049Y004189D01*
X012069Y004090D02*
X012316Y004090D01*
X012316Y003992D02*
X012069Y003992D01*
X012041Y003893D02*
X012316Y003893D01*
X012316Y003795D02*
X012000Y003795D01*
X011903Y003696D02*
X012316Y003696D01*
X012316Y003598D02*
X011709Y003598D01*
X012316Y003499D02*
X010404Y003499D01*
X010502Y003598D02*
X010811Y003598D01*
X010617Y003696D02*
X010601Y003696D01*
X010305Y003401D02*
X012316Y003401D01*
X012316Y003302D02*
X010207Y003302D01*
X010041Y003204D02*
X012316Y003204D01*
X012316Y003105D02*
X009914Y003105D01*
X009914Y003007D02*
X012316Y003007D01*
X012316Y002908D02*
X009914Y002908D01*
X009914Y002810D02*
X012316Y002810D01*
X012316Y002711D02*
X009914Y002711D01*
X009914Y002613D02*
X012316Y002613D01*
X012316Y002514D02*
X009914Y002514D01*
X009914Y002416D02*
X012316Y002416D01*
X012316Y002317D02*
X009914Y002317D01*
X009914Y002219D02*
X012316Y002219D01*
X012316Y002120D02*
X009914Y002120D01*
X009914Y002022D02*
X012316Y002022D01*
X012316Y001923D02*
X009913Y001923D01*
X009950Y001332D02*
X009971Y001332D01*
X009814Y001332D02*
X009792Y001332D01*
X010345Y001332D02*
X010497Y001332D01*
X010445Y001234D02*
X010423Y001234D01*
X010408Y001135D02*
X010445Y001135D01*
X011108Y001332D02*
X011283Y001332D01*
X011265Y001234D02*
X011160Y001234D01*
X011160Y001135D02*
X011265Y001135D01*
X011265Y001037D02*
X011160Y001037D01*
X011148Y000938D02*
X011296Y000938D01*
X011336Y000840D02*
X011160Y000840D01*
X011324Y001431D02*
X007464Y001431D01*
X007505Y001332D02*
X008840Y001332D01*
X008788Y001234D02*
X007510Y001234D01*
X007491Y001135D02*
X008806Y001135D01*
X008894Y001037D02*
X007441Y001037D01*
X007321Y000938D02*
X009033Y000938D01*
X009033Y000840D02*
X001015Y000840D01*
X001015Y000938D02*
X006999Y000938D01*
X006879Y001037D02*
X004563Y001037D01*
X003836Y001037D02*
X003514Y001037D01*
X003515Y001037D02*
X003535Y001072D01*
X003545Y001110D01*
X003545Y001434D01*
X003130Y001434D01*
X003130Y000979D01*
X003415Y000979D01*
X003453Y000990D01*
X003487Y001009D01*
X003515Y001037D01*
X003545Y001135D02*
X003785Y001135D01*
X003785Y001234D02*
X003545Y001234D01*
X003545Y001332D02*
X003785Y001332D01*
X003785Y001431D02*
X003545Y001431D01*
X003545Y001534D02*
X003545Y001859D01*
X003535Y001897D01*
X003515Y001931D01*
X003487Y001959D01*
X003453Y001979D01*
X003415Y001989D01*
X003130Y001989D01*
X003130Y001534D01*
X003545Y001534D01*
X003545Y001628D02*
X003785Y001628D01*
X003785Y001726D02*
X003545Y001726D01*
X003545Y001825D02*
X003785Y001825D01*
X003827Y001923D02*
X003520Y001923D01*
X003130Y001923D02*
X003030Y001923D01*
X003030Y001989D02*
X002745Y001989D01*
X002707Y001979D01*
X002673Y001959D01*
X002645Y001931D01*
X002625Y001897D01*
X002615Y001859D01*
X002615Y001534D01*
X003030Y001534D01*
X003030Y001434D01*
X003130Y001434D01*
X003130Y001534D01*
X003030Y001534D01*
X003030Y001989D01*
X003030Y001825D02*
X003130Y001825D01*
X003130Y001726D02*
X003030Y001726D01*
X003030Y001628D02*
X003130Y001628D01*
X003130Y001529D02*
X003785Y001529D01*
X003130Y001431D02*
X003030Y001431D01*
X003030Y001434D02*
X003030Y000979D01*
X002745Y000979D01*
X002707Y000990D01*
X002673Y001009D01*
X002645Y001037D01*
X002625Y001072D01*
X002615Y001110D01*
X002615Y001434D01*
X003030Y001434D01*
X003030Y001529D02*
X001015Y001529D01*
X001015Y001431D02*
X002615Y001431D01*
X002615Y001332D02*
X001015Y001332D01*
X001015Y001234D02*
X002615Y001234D01*
X002615Y001135D02*
X001015Y001135D01*
X001015Y001037D02*
X002646Y001037D01*
X003030Y001037D02*
X003130Y001037D01*
X003130Y001135D02*
X003030Y001135D01*
X003030Y001234D02*
X003130Y001234D01*
X003130Y001332D02*
X003030Y001332D01*
X002615Y001628D02*
X001015Y001628D01*
X001015Y001726D02*
X002615Y001726D01*
X002615Y001825D02*
X001015Y001825D01*
X001015Y001923D02*
X002640Y001923D01*
X004232Y003204D02*
X005226Y003204D01*
X005226Y003302D02*
X004232Y003302D01*
X004232Y003401D02*
X005226Y003401D01*
X005226Y003499D02*
X004232Y003499D01*
X004226Y003598D02*
X005226Y003598D01*
X005226Y003696D02*
X004136Y003696D01*
X004573Y001923D02*
X005227Y001923D01*
X005592Y001234D02*
X005663Y001234D01*
X005759Y001135D02*
X005419Y001135D01*
X006065Y001825D02*
X011772Y001825D01*
X011553Y001726D02*
X007150Y001726D01*
X007277Y001628D02*
X011455Y001628D01*
X011365Y001529D02*
X007376Y001529D01*
X006291Y001923D02*
X008849Y001923D01*
X008848Y002022D02*
X006292Y002022D01*
X006292Y002120D02*
X008848Y002120D01*
X008848Y002219D02*
X006292Y002219D01*
X006292Y002317D02*
X008848Y002317D01*
X008848Y002416D02*
X006292Y002416D01*
X006292Y002514D02*
X008848Y002514D01*
X008848Y002613D02*
X006292Y002613D01*
X006292Y002711D02*
X008848Y002711D01*
X008848Y002810D02*
X006292Y002810D01*
X006292Y002908D02*
X008848Y002908D01*
X008848Y003007D02*
X006292Y003007D01*
X006292Y003105D02*
X008848Y003105D01*
X008412Y003204D02*
X006292Y003204D01*
X006292Y003302D02*
X008243Y003302D01*
X008193Y003352D02*
X008193Y003352D01*
X008145Y003401D02*
X006292Y003401D01*
X006292Y003499D02*
X008046Y003499D01*
X007948Y003598D02*
X006292Y003598D01*
X006292Y003696D02*
X007849Y003696D01*
X007751Y003795D02*
X006292Y003795D01*
X006292Y003893D02*
X007652Y003893D01*
X007554Y003992D02*
X006292Y003992D01*
X006292Y004090D02*
X007455Y004090D01*
X007357Y004189D02*
X006292Y004189D01*
X006292Y004287D02*
X007258Y004287D01*
X007160Y004386D02*
X006292Y004386D01*
X006292Y004484D02*
X007061Y004484D01*
X006963Y004583D02*
X006292Y004583D01*
X006292Y004681D02*
X006864Y004681D01*
X006766Y004780D02*
X006292Y004780D01*
X006292Y004878D02*
X006667Y004878D01*
X006569Y004977D02*
X006292Y004977D01*
X006292Y005075D02*
X006470Y005075D01*
X006372Y005174D02*
X006275Y005174D01*
X007066Y005469D02*
X010730Y005469D01*
X010584Y005371D02*
X007164Y005371D01*
X007263Y005272D02*
X010506Y005272D01*
X010465Y005174D02*
X009897Y005174D01*
X009914Y005075D02*
X010451Y005075D01*
X010451Y004977D02*
X009914Y004977D01*
X009914Y004878D02*
X010485Y004878D01*
X010534Y004780D02*
X009914Y004780D01*
X009914Y004681D02*
X010632Y004681D01*
X010766Y004484D02*
X009914Y004484D01*
X009914Y004386D02*
X010355Y004386D01*
X010202Y004287D02*
X009914Y004287D01*
X009914Y004189D02*
X010104Y004189D01*
X010005Y004090D02*
X009914Y004090D01*
X009914Y004583D02*
X012316Y004583D01*
X011341Y007255D02*
X011150Y007255D01*
X011150Y007376D01*
X011109Y007417D01*
X011103Y007423D01*
X011150Y007470D01*
X011150Y007730D01*
X011080Y007800D01*
X010796Y007800D01*
X010792Y007796D01*
X010789Y007800D01*
X010612Y007800D01*
X010608Y007796D01*
X010605Y007800D01*
X010505Y007800D01*
X010470Y007764D01*
X010435Y007730D01*
X010435Y007500D01*
X010413Y007500D01*
X010413Y007570D01*
X010396Y007587D01*
X010413Y007604D01*
X010413Y007703D01*
X010316Y007800D01*
X010164Y007800D01*
X010148Y007784D01*
X010132Y007800D01*
X009979Y007800D01*
X009953Y007773D01*
X009953Y007773D01*
X009950Y007771D01*
X009921Y007800D01*
X009822Y007800D01*
X009793Y007771D01*
X009764Y007800D01*
X009611Y007800D01*
X009595Y007784D01*
X009580Y007800D01*
X009427Y007800D01*
X009425Y007798D01*
X009422Y007800D01*
X009216Y007800D01*
X009200Y007784D01*
X009185Y007800D01*
X009085Y007800D01*
X009070Y007784D01*
X009054Y007800D01*
X008848Y007800D01*
X008778Y007730D01*
X008778Y007604D01*
X008884Y007497D01*
X008884Y007470D01*
X008955Y007400D01*
X009023Y007400D01*
X009023Y007277D01*
X009027Y007273D01*
X009023Y007270D01*
X009023Y007255D01*
X001005Y007255D01*
X001005Y008756D01*
X001011Y008743D01*
X001138Y008615D01*
X001305Y008546D01*
X002195Y008546D01*
X002362Y008615D01*
X002489Y008743D01*
X002559Y008910D01*
X002559Y009090D01*
X002489Y009257D01*
X002362Y009385D01*
X002195Y009454D01*
X001305Y009454D01*
X001138Y009385D01*
X001011Y009257D01*
X001005Y009244D01*
X001005Y009680D01*
X001011Y009671D01*
X001067Y009615D01*
X001131Y009569D01*
X001202Y009533D01*
X001278Y009508D01*
X001356Y009496D01*
X001700Y009496D01*
X001700Y009950D01*
X001800Y009950D01*
X001800Y010050D01*
X001700Y010050D01*
X001700Y010504D01*
X001356Y010504D01*
X001278Y010492D01*
X001202Y010467D01*
X001131Y010431D01*
X001067Y010385D01*
X001011Y010329D01*
X001005Y010320D01*
X001005Y010756D01*
X001011Y010743D01*
X001138Y010615D01*
X001305Y010546D01*
X002195Y010546D01*
X002362Y010615D01*
X002489Y010743D01*
X002559Y010910D01*
X002559Y011090D01*
X002489Y011257D01*
X002362Y011385D01*
X002195Y011454D01*
X001305Y011454D01*
X001138Y011385D01*
X001011Y011257D01*
X001005Y011244D01*
X001005Y011691D01*
X001212Y011605D01*
X001488Y011605D01*
X001744Y011711D01*
X001939Y011906D01*
X002045Y012162D01*
X002045Y012438D01*
X001957Y012651D01*
X012306Y012651D01*
X012306Y008205D01*
X012088Y008295D01*
X011812Y008295D01*
X011556Y008189D01*
X011361Y007994D01*
X011255Y007738D01*
X011255Y007462D01*
X011341Y007255D01*
X011305Y007341D02*
X011150Y007341D01*
X011119Y007439D02*
X011264Y007439D01*
X011255Y007538D02*
X011150Y007538D01*
X011150Y007636D02*
X011255Y007636D01*
X011255Y007735D02*
X011145Y007735D01*
X011294Y007833D02*
X007474Y007833D01*
X007500Y007770D02*
X007447Y007898D01*
X007288Y008057D01*
X007189Y008156D01*
X007061Y008209D01*
X006119Y008209D01*
X006015Y008315D01*
X006223Y008315D01*
X006282Y008374D01*
X006282Y011606D01*
X006258Y011630D01*
X006355Y011630D01*
X008183Y009802D01*
X008282Y009703D01*
X008410Y009650D01*
X008838Y009650D01*
X008838Y008374D01*
X008897Y008315D01*
X009846Y008315D01*
X009904Y008374D01*
X009904Y009649D01*
X009953Y009650D01*
X010020Y009650D01*
X010023Y009651D01*
X010026Y009651D01*
X010087Y009678D01*
X010148Y009703D01*
X010150Y009706D01*
X010153Y009707D01*
X010200Y009755D01*
X010595Y010150D01*
X010603Y010150D01*
X010638Y010115D01*
X010805Y010046D01*
X011695Y010046D01*
X011862Y010115D01*
X011989Y010243D01*
X012059Y010410D01*
X012059Y010590D01*
X011989Y010757D01*
X011862Y010885D01*
X011695Y010954D01*
X010805Y010954D01*
X010638Y010885D01*
X010603Y010850D01*
X010380Y010850D01*
X010252Y010797D01*
X009904Y010449D01*
X009904Y011606D01*
X009846Y011665D01*
X008897Y011665D01*
X008838Y011606D01*
X008838Y010350D01*
X008625Y010350D01*
X006698Y012277D01*
X006570Y012330D01*
X004100Y012330D01*
X003972Y012277D01*
X003873Y012178D01*
X003579Y011884D01*
X003526Y011755D01*
X003526Y011156D01*
X003579Y011028D01*
X003579Y010594D01*
X003637Y010535D01*
X004114Y010535D01*
X004172Y010594D01*
X004172Y011028D01*
X004226Y011156D01*
X004226Y011541D01*
X004315Y011630D01*
X005240Y011630D01*
X005216Y011606D01*
X005216Y009544D01*
X005210Y009530D01*
X005210Y009390D01*
X005216Y009376D01*
X005216Y008374D01*
X005230Y008360D01*
X005230Y008321D01*
X005193Y008284D01*
X004605Y008284D01*
X004605Y008331D01*
X004546Y008389D01*
X003833Y008389D01*
X003775Y008331D01*
X003775Y007538D01*
X003833Y007479D01*
X004546Y007479D01*
X004605Y007538D01*
X004605Y007584D01*
X005408Y007584D01*
X005536Y007638D01*
X005618Y007720D01*
X005673Y007663D01*
X005674Y007661D01*
X005722Y007613D01*
X005769Y007565D01*
X005771Y007564D01*
X005773Y007562D01*
X005835Y007537D01*
X005897Y007510D01*
X005899Y007510D01*
X005901Y007509D01*
X005969Y007509D01*
X006036Y007508D01*
X006038Y007509D01*
X006846Y007509D01*
X006952Y007403D01*
X007080Y007350D01*
X007220Y007350D01*
X007348Y007403D01*
X007447Y007502D01*
X007500Y007630D01*
X007500Y007770D01*
X007500Y007735D02*
X008782Y007735D01*
X008778Y007636D02*
X007500Y007636D01*
X007462Y007538D02*
X008844Y007538D01*
X008916Y007439D02*
X007384Y007439D01*
X006916Y007439D02*
X003440Y007439D01*
X003443Y007440D02*
X003477Y007459D01*
X003505Y007487D01*
X003525Y007522D01*
X003535Y007560D01*
X003535Y007884D01*
X003120Y007884D01*
X003120Y007429D01*
X003405Y007429D01*
X003443Y007440D01*
X003529Y007538D02*
X003775Y007538D01*
X003775Y007636D02*
X003535Y007636D01*
X003535Y007735D02*
X003775Y007735D01*
X003775Y007833D02*
X003535Y007833D01*
X003535Y007984D02*
X003535Y008309D01*
X003525Y008347D01*
X003505Y008381D01*
X003477Y008409D01*
X003443Y008429D01*
X003405Y008439D01*
X003120Y008439D01*
X003120Y007984D01*
X003535Y007984D01*
X003535Y008030D02*
X003775Y008030D01*
X003775Y007932D02*
X003120Y007932D01*
X003120Y007884D02*
X003120Y007984D01*
X003020Y007984D01*
X003020Y007884D01*
X003120Y007884D01*
X003120Y007833D02*
X003020Y007833D01*
X003020Y007884D02*
X003020Y007429D01*
X002735Y007429D01*
X002697Y007440D01*
X002663Y007459D01*
X002635Y007487D01*
X002615Y007522D01*
X002605Y007560D01*
X002605Y007884D01*
X003020Y007884D01*
X003020Y007932D02*
X001005Y007932D01*
X001005Y008030D02*
X002605Y008030D01*
X002605Y007984D02*
X003020Y007984D01*
X003020Y008439D01*
X002735Y008439D01*
X002697Y008429D01*
X002663Y008409D01*
X002635Y008381D01*
X002615Y008347D01*
X002605Y008309D01*
X002605Y007984D01*
X002605Y008129D02*
X001005Y008129D01*
X001005Y008227D02*
X002605Y008227D01*
X002610Y008326D02*
X001005Y008326D01*
X001005Y008424D02*
X002688Y008424D01*
X003020Y008424D02*
X003120Y008424D01*
X003120Y008326D02*
X003020Y008326D01*
X003020Y008227D02*
X003120Y008227D01*
X003120Y008129D02*
X003020Y008129D01*
X003020Y008030D02*
X003120Y008030D01*
X003120Y007735D02*
X003020Y007735D01*
X003020Y007636D02*
X003120Y007636D01*
X003120Y007538D02*
X003020Y007538D01*
X003020Y007439D02*
X003120Y007439D01*
X002700Y007439D02*
X001005Y007439D01*
X001005Y007341D02*
X009023Y007341D01*
X008886Y008326D02*
X006234Y008326D01*
X006282Y008424D02*
X008838Y008424D01*
X008838Y008523D02*
X006282Y008523D01*
X006282Y008621D02*
X008838Y008621D01*
X008838Y008720D02*
X006282Y008720D01*
X006282Y008818D02*
X008838Y008818D01*
X008838Y008917D02*
X006282Y008917D01*
X006282Y009015D02*
X008838Y009015D01*
X008838Y009114D02*
X006282Y009114D01*
X006282Y009212D02*
X008838Y009212D01*
X008838Y009311D02*
X006282Y009311D01*
X006282Y009409D02*
X008838Y009409D01*
X008838Y009508D02*
X006282Y009508D01*
X006282Y009606D02*
X008838Y009606D01*
X008281Y009705D02*
X006282Y009705D01*
X006282Y009803D02*
X008182Y009803D01*
X008084Y009902D02*
X006282Y009902D01*
X006282Y010000D02*
X007985Y010000D01*
X007886Y010099D02*
X006282Y010099D01*
X006282Y010197D02*
X007788Y010197D01*
X007689Y010296D02*
X006282Y010296D01*
X006282Y010394D02*
X007591Y010394D01*
X007492Y010493D02*
X006282Y010493D01*
X006282Y010591D02*
X007394Y010591D01*
X007295Y010690D02*
X006282Y010690D01*
X006282Y010788D02*
X007197Y010788D01*
X007098Y010887D02*
X006282Y010887D01*
X006282Y010985D02*
X007000Y010985D01*
X006901Y011084D02*
X006282Y011084D01*
X006282Y011182D02*
X006803Y011182D01*
X006704Y011281D02*
X006282Y011281D01*
X006282Y011379D02*
X006606Y011379D01*
X006507Y011478D02*
X006282Y011478D01*
X006282Y011576D02*
X006409Y011576D01*
X006906Y012069D02*
X012306Y012069D01*
X012306Y012167D02*
X006808Y012167D01*
X006709Y012266D02*
X012306Y012266D01*
X012306Y012364D02*
X002045Y012364D01*
X002045Y012266D02*
X003961Y012266D01*
X003862Y012167D02*
X002045Y012167D01*
X002006Y012069D02*
X003764Y012069D01*
X003665Y011970D02*
X001966Y011970D01*
X001904Y011872D02*
X003574Y011872D01*
X003533Y011773D02*
X001806Y011773D01*
X001656Y011675D02*
X003526Y011675D01*
X003526Y011576D02*
X001005Y011576D01*
X001005Y011478D02*
X003526Y011478D01*
X003526Y011379D02*
X002368Y011379D01*
X002466Y011281D02*
X003526Y011281D01*
X003526Y011182D02*
X002521Y011182D01*
X002559Y011084D02*
X003556Y011084D01*
X003579Y010985D02*
X002559Y010985D01*
X002549Y010887D02*
X003579Y010887D01*
X003579Y010788D02*
X002508Y010788D01*
X002436Y010690D02*
X003579Y010690D01*
X003581Y010591D02*
X002304Y010591D01*
X002298Y010467D02*
X002222Y010492D01*
X002144Y010504D01*
X001800Y010504D01*
X001800Y010050D01*
X002607Y010050D01*
X002596Y010118D01*
X002572Y010194D01*
X002536Y010264D01*
X002489Y010329D01*
X002433Y010385D01*
X002369Y010431D01*
X002298Y010467D01*
X002219Y010493D02*
X005216Y010493D01*
X005216Y010591D02*
X004170Y010591D01*
X004172Y010690D02*
X005216Y010690D01*
X005216Y010788D02*
X004172Y010788D01*
X004172Y010887D02*
X005216Y010887D01*
X005216Y010985D02*
X004172Y010985D01*
X004196Y011084D02*
X005216Y011084D01*
X005216Y011182D02*
X004226Y011182D01*
X004226Y011281D02*
X005216Y011281D01*
X005216Y011379D02*
X004226Y011379D01*
X004226Y011478D02*
X005216Y011478D01*
X005216Y011576D02*
X004261Y011576D01*
X005216Y010394D02*
X002420Y010394D01*
X002513Y010296D02*
X005216Y010296D01*
X005216Y010197D02*
X002570Y010197D01*
X002599Y010099D02*
X003560Y010099D01*
X003559Y010097D02*
X003539Y010063D01*
X003529Y010025D01*
X003529Y009463D01*
X003827Y009463D01*
X003827Y009366D01*
X003529Y009366D01*
X003529Y008804D01*
X003539Y008766D01*
X003559Y008732D01*
X003587Y008704D01*
X003621Y008684D01*
X003659Y008674D01*
X003827Y008674D01*
X003827Y009366D01*
X003924Y009366D01*
X003924Y008674D01*
X004092Y008674D01*
X004130Y008684D01*
X004165Y008704D01*
X004192Y008732D01*
X004212Y008766D01*
X004222Y008804D01*
X004222Y009366D01*
X003924Y009366D01*
X003924Y009463D01*
X003827Y009463D01*
X003827Y010155D01*
X003659Y010155D01*
X003621Y010145D01*
X003587Y010125D01*
X003559Y010097D01*
X003529Y010000D02*
X001800Y010000D01*
X001800Y009950D02*
X002607Y009950D01*
X002596Y009882D01*
X002572Y009806D01*
X002536Y009736D01*
X002489Y009671D01*
X002433Y009615D01*
X002369Y009569D01*
X002298Y009533D01*
X002222Y009508D01*
X002144Y009496D01*
X001800Y009496D01*
X001800Y009950D01*
X001800Y009902D02*
X001700Y009902D01*
X001700Y009803D02*
X001800Y009803D01*
X001800Y009705D02*
X001700Y009705D01*
X001700Y009606D02*
X001800Y009606D01*
X001800Y009508D02*
X001700Y009508D01*
X001281Y009508D02*
X001005Y009508D01*
X001005Y009606D02*
X001080Y009606D01*
X001005Y009409D02*
X001196Y009409D01*
X001064Y009311D02*
X001005Y009311D01*
X001005Y008720D02*
X001034Y008720D01*
X001005Y008621D02*
X001132Y008621D01*
X001005Y008523D02*
X005216Y008523D01*
X005216Y008621D02*
X002368Y008621D01*
X002466Y008720D02*
X003571Y008720D01*
X003529Y008818D02*
X002521Y008818D01*
X002559Y008917D02*
X003529Y008917D01*
X003529Y009015D02*
X002559Y009015D01*
X002549Y009114D02*
X003529Y009114D01*
X003529Y009212D02*
X002508Y009212D01*
X002436Y009311D02*
X003529Y009311D01*
X003529Y009508D02*
X002219Y009508D01*
X002304Y009409D02*
X003827Y009409D01*
X003924Y009409D02*
X005210Y009409D01*
X005210Y009508D02*
X004222Y009508D01*
X004222Y009463D02*
X004222Y010025D01*
X004212Y010063D01*
X004192Y010097D01*
X004165Y010125D01*
X004130Y010145D01*
X004092Y010155D01*
X003924Y010155D01*
X003924Y009463D01*
X004222Y009463D01*
X004222Y009606D02*
X005216Y009606D01*
X005216Y009705D02*
X004222Y009705D01*
X004222Y009803D02*
X005216Y009803D01*
X005216Y009902D02*
X004222Y009902D01*
X004222Y010000D02*
X005216Y010000D01*
X005216Y010099D02*
X004191Y010099D01*
X003924Y010099D02*
X003827Y010099D01*
X003827Y010000D02*
X003924Y010000D01*
X003924Y009902D02*
X003827Y009902D01*
X003827Y009803D02*
X003924Y009803D01*
X003924Y009705D02*
X003827Y009705D01*
X003827Y009606D02*
X003924Y009606D01*
X003924Y009508D02*
X003827Y009508D01*
X003827Y009311D02*
X003924Y009311D01*
X003924Y009212D02*
X003827Y009212D01*
X003827Y009114D02*
X003924Y009114D01*
X003924Y009015D02*
X003827Y009015D01*
X003827Y008917D02*
X003924Y008917D01*
X003924Y008818D02*
X003827Y008818D01*
X003827Y008720D02*
X003924Y008720D01*
X004180Y008720D02*
X005216Y008720D01*
X005216Y008818D02*
X004222Y008818D01*
X004222Y008917D02*
X005216Y008917D01*
X005216Y009015D02*
X004222Y009015D01*
X004222Y009114D02*
X005216Y009114D01*
X005216Y009212D02*
X004222Y009212D01*
X004222Y009311D02*
X005216Y009311D01*
X005216Y008424D02*
X003452Y008424D01*
X003531Y008326D02*
X003775Y008326D01*
X003775Y008227D02*
X003535Y008227D01*
X003535Y008129D02*
X003775Y008129D01*
X004605Y008326D02*
X005230Y008326D01*
X005532Y007636D02*
X005699Y007636D01*
X005833Y007538D02*
X004604Y007538D01*
X006101Y008227D02*
X011648Y008227D01*
X011496Y008129D02*
X007216Y008129D01*
X007315Y008030D02*
X011397Y008030D01*
X011335Y007932D02*
X007413Y007932D01*
X009856Y008326D02*
X012306Y008326D01*
X012306Y008424D02*
X009904Y008424D01*
X009904Y008523D02*
X012306Y008523D01*
X012306Y008621D02*
X009904Y008621D01*
X009904Y008720D02*
X012306Y008720D01*
X012306Y008818D02*
X009904Y008818D01*
X009904Y008917D02*
X012306Y008917D01*
X012306Y009015D02*
X009904Y009015D01*
X009904Y009114D02*
X012306Y009114D01*
X012306Y009212D02*
X009904Y009212D01*
X009904Y009311D02*
X012306Y009311D01*
X012306Y009409D02*
X009904Y009409D01*
X009904Y009508D02*
X012306Y009508D01*
X012306Y009606D02*
X009904Y009606D01*
X010149Y009705D02*
X012306Y009705D01*
X012306Y009803D02*
X010248Y009803D01*
X010346Y009902D02*
X012306Y009902D01*
X012306Y010000D02*
X010445Y010000D01*
X010543Y010099D02*
X010678Y010099D01*
X010145Y010690D02*
X009904Y010690D01*
X009904Y010788D02*
X010243Y010788D01*
X010046Y010591D02*
X009904Y010591D01*
X009904Y010493D02*
X009948Y010493D01*
X009904Y010887D02*
X010642Y010887D01*
X010714Y011084D02*
X009904Y011084D01*
X009904Y011182D02*
X010571Y011182D01*
X010511Y011243D02*
X010638Y011115D01*
X010805Y011046D01*
X011695Y011046D01*
X011862Y011115D01*
X011989Y011243D01*
X012059Y011410D01*
X012059Y011590D01*
X011989Y011757D01*
X011862Y011885D01*
X011695Y011954D01*
X010805Y011954D01*
X010638Y011885D01*
X010511Y011757D01*
X010441Y011590D01*
X010441Y011410D01*
X010511Y011243D01*
X010495Y011281D02*
X009904Y011281D01*
X009904Y011379D02*
X010454Y011379D01*
X010441Y011478D02*
X009904Y011478D01*
X009904Y011576D02*
X010441Y011576D01*
X010476Y011675D02*
X007300Y011675D01*
X007202Y011773D02*
X010526Y011773D01*
X010625Y011872D02*
X007103Y011872D01*
X007005Y011970D02*
X012306Y011970D01*
X012306Y011872D02*
X011875Y011872D01*
X011974Y011773D02*
X012306Y011773D01*
X012306Y011675D02*
X012024Y011675D01*
X012059Y011576D02*
X012306Y011576D01*
X012306Y011478D02*
X012059Y011478D01*
X012046Y011379D02*
X012306Y011379D01*
X012306Y011281D02*
X012005Y011281D01*
X011929Y011182D02*
X012306Y011182D01*
X012306Y011084D02*
X011786Y011084D01*
X011858Y010887D02*
X012306Y010887D01*
X012306Y010985D02*
X009904Y010985D01*
X008838Y010985D02*
X007990Y010985D01*
X008088Y010887D02*
X008838Y010887D01*
X008838Y010788D02*
X008187Y010788D01*
X008285Y010690D02*
X008838Y010690D01*
X008838Y010591D02*
X008384Y010591D01*
X008482Y010493D02*
X008838Y010493D01*
X008838Y010394D02*
X008581Y010394D01*
X008838Y011084D02*
X007891Y011084D01*
X007793Y011182D02*
X008838Y011182D01*
X008838Y011281D02*
X007694Y011281D01*
X007596Y011379D02*
X008838Y011379D01*
X008838Y011478D02*
X007497Y011478D01*
X007399Y011576D02*
X008838Y011576D01*
X009023Y013915D02*
X001005Y013915D01*
X001005Y015416D01*
X001011Y015403D01*
X001138Y015275D01*
X001305Y015206D01*
X002195Y015206D01*
X002362Y015275D01*
X002489Y015403D01*
X002559Y015570D01*
X002559Y015750D01*
X002489Y015917D01*
X002362Y016045D01*
X002195Y016114D01*
X001305Y016114D01*
X001138Y016045D01*
X001011Y015917D01*
X001005Y015904D01*
X001005Y016340D01*
X001011Y016331D01*
X001067Y016275D01*
X001131Y016229D01*
X001202Y016193D01*
X001278Y016168D01*
X001356Y016156D01*
X001700Y016156D01*
X001700Y016610D01*
X001800Y016610D01*
X001800Y016710D01*
X001700Y016710D01*
X001700Y017164D01*
X001356Y017164D01*
X001278Y017152D01*
X001202Y017127D01*
X001131Y017091D01*
X001067Y017045D01*
X001011Y016989D01*
X001005Y016980D01*
X001005Y017416D01*
X001011Y017403D01*
X001138Y017275D01*
X001305Y017206D01*
X002195Y017206D01*
X002362Y017275D01*
X002489Y017403D01*
X002559Y017570D01*
X002559Y017750D01*
X002489Y017917D01*
X002362Y018045D01*
X002195Y018114D01*
X001305Y018114D01*
X001138Y018045D01*
X001011Y017917D01*
X001005Y017904D01*
X001005Y018351D01*
X001212Y018265D01*
X001488Y018265D01*
X001744Y018371D01*
X001939Y018566D01*
X002045Y018822D01*
X002045Y019098D01*
X001957Y019311D01*
X012306Y019311D01*
X012306Y014865D01*
X012088Y014955D01*
X011812Y014955D01*
X011556Y014849D01*
X011361Y014654D01*
X011255Y014398D01*
X011255Y014122D01*
X011341Y013915D01*
X011150Y013915D01*
X011150Y014036D01*
X011109Y014077D01*
X011103Y014083D01*
X011150Y014130D01*
X011150Y014390D01*
X011080Y014460D01*
X010796Y014460D01*
X010792Y014456D01*
X010789Y014460D01*
X010612Y014460D01*
X010608Y014456D01*
X010605Y014460D01*
X010505Y014460D01*
X010488Y014443D01*
X010435Y014390D01*
X010435Y014160D01*
X010413Y014160D01*
X010413Y014230D01*
X010396Y014247D01*
X010413Y014264D01*
X010413Y014363D01*
X010316Y014460D01*
X010164Y014460D01*
X010148Y014444D01*
X010132Y014460D01*
X009979Y014460D01*
X009953Y014433D01*
X009953Y014433D01*
X009950Y014431D01*
X009921Y014460D01*
X009822Y014460D01*
X009793Y014431D01*
X009764Y014460D01*
X009611Y014460D01*
X009595Y014444D01*
X009580Y014460D01*
X009427Y014460D01*
X009425Y014458D01*
X009422Y014460D01*
X009216Y014460D01*
X009200Y014444D01*
X009185Y014460D01*
X009085Y014460D01*
X009070Y014444D01*
X009054Y014460D01*
X008848Y014460D01*
X008778Y014390D01*
X008778Y014264D01*
X008884Y014157D01*
X008884Y014130D01*
X008955Y014060D01*
X009023Y014060D01*
X009023Y013937D01*
X009027Y013933D01*
X009023Y013930D01*
X009023Y013915D01*
X009023Y013940D02*
X001005Y013940D01*
X001005Y014039D02*
X007011Y014039D01*
X006952Y014063D02*
X007080Y014010D01*
X007220Y014010D01*
X007348Y014063D01*
X007447Y014162D01*
X007500Y014290D01*
X007500Y014430D01*
X007447Y014558D01*
X007288Y014717D01*
X007189Y014816D01*
X007061Y014869D01*
X006119Y014869D01*
X006015Y014975D01*
X006223Y014975D01*
X006282Y015034D01*
X006282Y018266D01*
X006258Y018290D01*
X006355Y018290D01*
X008183Y016462D01*
X008282Y016363D01*
X008410Y016310D01*
X008838Y016310D01*
X008838Y015034D01*
X008897Y014975D01*
X009846Y014975D01*
X009904Y015034D01*
X009904Y016309D01*
X009953Y016310D01*
X010020Y016310D01*
X010023Y016311D01*
X010026Y016311D01*
X010087Y016338D01*
X010148Y016363D01*
X010150Y016366D01*
X010153Y016367D01*
X010200Y016415D01*
X010595Y016810D01*
X010603Y016810D01*
X010638Y016775D01*
X010805Y016706D01*
X011695Y016706D01*
X011862Y016775D01*
X011989Y016903D01*
X012059Y017070D01*
X012059Y017250D01*
X011989Y017417D01*
X011862Y017545D01*
X011695Y017614D01*
X010805Y017614D01*
X010638Y017545D01*
X010603Y017510D01*
X010380Y017510D01*
X010252Y017457D01*
X009904Y017109D01*
X009904Y018266D01*
X009846Y018325D01*
X008897Y018325D01*
X008838Y018266D01*
X008838Y017010D01*
X008625Y017010D01*
X006698Y018937D01*
X006570Y018990D01*
X004100Y018990D01*
X003972Y018937D01*
X003873Y018838D01*
X003579Y018544D01*
X003526Y018415D01*
X003526Y017816D01*
X003579Y017688D01*
X003579Y017254D01*
X003637Y017195D01*
X004114Y017195D01*
X004172Y017254D01*
X004172Y017688D01*
X004226Y017816D01*
X004226Y018201D01*
X004315Y018290D01*
X005240Y018290D01*
X005216Y018266D01*
X005216Y016204D01*
X005210Y016190D01*
X005210Y016050D01*
X005216Y016036D01*
X005216Y015034D01*
X005230Y015020D01*
X005230Y014981D01*
X005193Y014944D01*
X004605Y014944D01*
X004605Y014991D01*
X004546Y015049D01*
X003833Y015049D01*
X003775Y014991D01*
X003775Y014198D01*
X003833Y014139D01*
X004546Y014139D01*
X004605Y014198D01*
X004605Y014244D01*
X005408Y014244D01*
X005536Y014298D01*
X005618Y014380D01*
X005673Y014323D01*
X005674Y014321D01*
X005722Y014273D01*
X005769Y014225D01*
X005771Y014224D01*
X005773Y014222D01*
X005835Y014197D01*
X005897Y014170D01*
X005899Y014170D01*
X005901Y014169D01*
X005969Y014169D01*
X006036Y014168D01*
X006038Y014169D01*
X006846Y014169D01*
X006952Y014063D01*
X006878Y014137D02*
X003495Y014137D01*
X003505Y014147D02*
X003525Y014182D01*
X003535Y014220D01*
X003535Y014544D01*
X003120Y014544D01*
X003120Y014089D01*
X003405Y014089D01*
X003443Y014100D01*
X003477Y014119D01*
X003505Y014147D01*
X003535Y014236D02*
X003775Y014236D01*
X003775Y014334D02*
X003535Y014334D01*
X003535Y014433D02*
X003775Y014433D01*
X003775Y014531D02*
X003535Y014531D01*
X003535Y014644D02*
X003535Y014969D01*
X003525Y015007D01*
X003505Y015041D01*
X003477Y015069D01*
X003443Y015089D01*
X003405Y015099D01*
X003120Y015099D01*
X003120Y014644D01*
X003535Y014644D01*
X003535Y014728D02*
X003775Y014728D01*
X003775Y014630D02*
X003120Y014630D01*
X003120Y014644D02*
X003120Y014544D01*
X003020Y014544D01*
X003020Y014089D01*
X002735Y014089D01*
X002697Y014100D01*
X002663Y014119D01*
X002635Y014147D01*
X002615Y014182D01*
X002605Y014220D01*
X002605Y014544D01*
X003020Y014544D01*
X003020Y014644D01*
X002605Y014644D01*
X002605Y014969D01*
X002615Y015007D01*
X002635Y015041D01*
X002663Y015069D01*
X002697Y015089D01*
X002735Y015099D01*
X003020Y015099D01*
X003020Y014644D01*
X003120Y014644D01*
X003120Y014728D02*
X003020Y014728D01*
X003020Y014630D02*
X001005Y014630D01*
X001005Y014728D02*
X002605Y014728D01*
X002605Y014827D02*
X001005Y014827D01*
X001005Y014925D02*
X002605Y014925D01*
X002625Y015024D02*
X001005Y015024D01*
X001005Y015122D02*
X005216Y015122D01*
X005216Y015221D02*
X002231Y015221D01*
X002406Y015319D02*
X005216Y015319D01*
X005216Y015418D02*
X004207Y015418D01*
X004212Y015426D02*
X004222Y015464D01*
X004222Y016026D01*
X003924Y016026D01*
X003924Y015334D01*
X004092Y015334D01*
X004130Y015344D01*
X004165Y015364D01*
X004192Y015392D01*
X004212Y015426D01*
X004222Y015516D02*
X005216Y015516D01*
X005216Y015615D02*
X004222Y015615D01*
X004222Y015713D02*
X005216Y015713D01*
X005216Y015812D02*
X004222Y015812D01*
X004222Y015910D02*
X005216Y015910D01*
X005216Y016009D02*
X004222Y016009D01*
X004222Y016123D02*
X003924Y016123D01*
X003827Y016123D01*
X003827Y016026D01*
X003529Y016026D01*
X003529Y015464D01*
X003539Y015426D01*
X003559Y015392D01*
X003587Y015364D01*
X003621Y015344D01*
X003659Y015334D01*
X003827Y015334D01*
X003827Y016026D01*
X003924Y016026D01*
X003924Y016123D01*
X003924Y016815D01*
X004092Y016815D01*
X004130Y016805D01*
X004165Y016785D01*
X004192Y016757D01*
X004212Y016723D01*
X004222Y016685D01*
X004222Y016123D01*
X004222Y016206D02*
X005216Y016206D01*
X005216Y016304D02*
X004222Y016304D01*
X004222Y016403D02*
X005216Y016403D01*
X005216Y016501D02*
X004222Y016501D01*
X004222Y016600D02*
X005216Y016600D01*
X005216Y016698D02*
X004219Y016698D01*
X004145Y016797D02*
X005216Y016797D01*
X005216Y016895D02*
X002551Y016895D01*
X002536Y016924D02*
X002489Y016989D01*
X002433Y017045D01*
X002369Y017091D01*
X002298Y017127D01*
X002222Y017152D01*
X002144Y017164D01*
X001800Y017164D01*
X001800Y016710D01*
X002607Y016710D01*
X002596Y016778D01*
X002572Y016854D01*
X002536Y016924D01*
X002484Y016994D02*
X005216Y016994D01*
X005216Y017092D02*
X002367Y017092D01*
X002376Y017289D02*
X003579Y017289D01*
X003579Y017388D02*
X002474Y017388D01*
X002524Y017486D02*
X003579Y017486D01*
X003579Y017585D02*
X002559Y017585D01*
X002559Y017683D02*
X003579Y017683D01*
X003540Y017782D02*
X002546Y017782D01*
X002505Y017880D02*
X003526Y017880D01*
X003526Y017979D02*
X002428Y017979D01*
X002285Y018077D02*
X003526Y018077D01*
X003526Y018176D02*
X001005Y018176D01*
X001005Y018274D02*
X001190Y018274D01*
X001215Y018077D02*
X001005Y018077D01*
X001005Y017979D02*
X001072Y017979D01*
X001510Y018274D02*
X003526Y018274D01*
X003526Y018373D02*
X001745Y018373D01*
X001844Y018471D02*
X003549Y018471D01*
X003605Y018570D02*
X001941Y018570D01*
X001981Y018668D02*
X003703Y018668D01*
X003802Y018767D02*
X002022Y018767D01*
X002045Y018865D02*
X003900Y018865D01*
X004037Y018964D02*
X002045Y018964D01*
X002045Y019062D02*
X012306Y019062D01*
X012306Y018964D02*
X006633Y018964D01*
X006770Y018865D02*
X012306Y018865D01*
X012306Y018767D02*
X006868Y018767D01*
X006967Y018668D02*
X012306Y018668D01*
X012306Y018570D02*
X011803Y018570D01*
X011862Y018545D02*
X011695Y018614D01*
X010805Y018614D01*
X010638Y018545D01*
X010511Y018417D01*
X010441Y018250D01*
X010441Y018070D01*
X010511Y017903D01*
X010638Y017775D01*
X010805Y017706D01*
X011695Y017706D01*
X011862Y017775D01*
X011989Y017903D01*
X012059Y018070D01*
X012059Y018250D01*
X011989Y018417D01*
X011862Y018545D01*
X011936Y018471D02*
X012306Y018471D01*
X012306Y018373D02*
X012008Y018373D01*
X012049Y018274D02*
X012306Y018274D01*
X012306Y018176D02*
X012059Y018176D01*
X012059Y018077D02*
X012306Y018077D01*
X012306Y017979D02*
X012021Y017979D01*
X011967Y017880D02*
X012306Y017880D01*
X012306Y017782D02*
X011868Y017782D01*
X011767Y017585D02*
X012306Y017585D01*
X012306Y017683D02*
X009904Y017683D01*
X009904Y017585D02*
X010733Y017585D01*
X010632Y017782D02*
X009904Y017782D01*
X009904Y017880D02*
X010533Y017880D01*
X010479Y017979D02*
X009904Y017979D01*
X009904Y018077D02*
X010441Y018077D01*
X010441Y018176D02*
X009904Y018176D01*
X009896Y018274D02*
X010451Y018274D01*
X010492Y018373D02*
X007262Y018373D01*
X007164Y018471D02*
X010564Y018471D01*
X010697Y018570D02*
X007065Y018570D01*
X007361Y018274D02*
X008846Y018274D01*
X008838Y018176D02*
X007459Y018176D01*
X007558Y018077D02*
X008838Y018077D01*
X008838Y017979D02*
X007656Y017979D01*
X007755Y017880D02*
X008838Y017880D01*
X008838Y017782D02*
X007853Y017782D01*
X007952Y017683D02*
X008838Y017683D01*
X008838Y017585D02*
X008050Y017585D01*
X008149Y017486D02*
X008838Y017486D01*
X008838Y017388D02*
X008247Y017388D01*
X008346Y017289D02*
X008838Y017289D01*
X008838Y017191D02*
X008444Y017191D01*
X008543Y017092D02*
X008838Y017092D01*
X008144Y016501D02*
X006282Y016501D01*
X006282Y016403D02*
X008242Y016403D01*
X008045Y016600D02*
X006282Y016600D01*
X006282Y016698D02*
X007947Y016698D01*
X007848Y016797D02*
X006282Y016797D01*
X006282Y016895D02*
X007750Y016895D01*
X007651Y016994D02*
X006282Y016994D01*
X006282Y017092D02*
X007553Y017092D01*
X007454Y017191D02*
X006282Y017191D01*
X006282Y017289D02*
X007356Y017289D01*
X007257Y017388D02*
X006282Y017388D01*
X006282Y017486D02*
X007159Y017486D01*
X007060Y017585D02*
X006282Y017585D01*
X006282Y017683D02*
X006962Y017683D01*
X006863Y017782D02*
X006282Y017782D01*
X006282Y017880D02*
X006765Y017880D01*
X006666Y017979D02*
X006282Y017979D01*
X006282Y018077D02*
X006568Y018077D01*
X006469Y018176D02*
X006282Y018176D01*
X006274Y018274D02*
X006371Y018274D01*
X005224Y018274D02*
X004299Y018274D01*
X004226Y018176D02*
X005216Y018176D01*
X005216Y018077D02*
X004226Y018077D01*
X004226Y017979D02*
X005216Y017979D01*
X005216Y017880D02*
X004226Y017880D01*
X004211Y017782D02*
X005216Y017782D01*
X005216Y017683D02*
X004172Y017683D01*
X004172Y017585D02*
X005216Y017585D01*
X005216Y017486D02*
X004172Y017486D01*
X004172Y017388D02*
X005216Y017388D01*
X005216Y017289D02*
X004172Y017289D01*
X003924Y016797D02*
X003827Y016797D01*
X003827Y016815D02*
X003659Y016815D01*
X003621Y016805D01*
X003587Y016785D01*
X003559Y016757D01*
X003539Y016723D01*
X003529Y016685D01*
X003529Y016123D01*
X003827Y016123D01*
X003827Y016815D01*
X003827Y016698D02*
X003924Y016698D01*
X003924Y016600D02*
X003827Y016600D01*
X003827Y016501D02*
X003924Y016501D01*
X003924Y016403D02*
X003827Y016403D01*
X003827Y016304D02*
X003924Y016304D01*
X003924Y016206D02*
X003827Y016206D01*
X003827Y016107D02*
X002212Y016107D01*
X002222Y016168D02*
X002298Y016193D01*
X002369Y016229D01*
X002433Y016275D01*
X002489Y016331D01*
X002536Y016396D01*
X002572Y016466D01*
X002596Y016542D01*
X002607Y016610D01*
X001800Y016610D01*
X001800Y016156D01*
X002144Y016156D01*
X002222Y016168D01*
X002323Y016206D02*
X003529Y016206D01*
X003529Y016304D02*
X002462Y016304D01*
X002539Y016403D02*
X003529Y016403D01*
X003529Y016501D02*
X002583Y016501D01*
X002605Y016600D02*
X003529Y016600D01*
X003532Y016698D02*
X001800Y016698D01*
X001800Y016600D02*
X001700Y016600D01*
X001700Y016501D02*
X001800Y016501D01*
X001800Y016403D02*
X001700Y016403D01*
X001700Y016304D02*
X001800Y016304D01*
X001800Y016206D02*
X001700Y016206D01*
X001288Y016107D02*
X001005Y016107D01*
X001005Y016009D02*
X001102Y016009D01*
X001007Y015910D02*
X001005Y015910D01*
X001005Y016206D02*
X001177Y016206D01*
X001038Y016304D02*
X001005Y016304D01*
X001005Y016994D02*
X001016Y016994D01*
X001005Y017092D02*
X001133Y017092D01*
X001005Y017191D02*
X005216Y017191D01*
X005210Y016107D02*
X003924Y016107D01*
X003924Y016009D02*
X003827Y016009D01*
X003827Y015910D02*
X003924Y015910D01*
X003924Y015812D02*
X003827Y015812D01*
X003827Y015713D02*
X003924Y015713D01*
X003924Y015615D02*
X003827Y015615D01*
X003827Y015516D02*
X003924Y015516D01*
X003924Y015418D02*
X003827Y015418D01*
X003544Y015418D02*
X002496Y015418D01*
X002536Y015516D02*
X003529Y015516D01*
X003529Y015615D02*
X002559Y015615D01*
X002559Y015713D02*
X003529Y015713D01*
X003529Y015812D02*
X002533Y015812D01*
X002493Y015910D02*
X003529Y015910D01*
X003529Y016009D02*
X002398Y016009D01*
X002590Y016797D02*
X003607Y016797D01*
X003515Y015024D02*
X003808Y015024D01*
X003775Y014925D02*
X003535Y014925D01*
X003535Y014827D02*
X003775Y014827D01*
X003120Y014827D02*
X003020Y014827D01*
X003020Y014925D02*
X003120Y014925D01*
X003120Y015024D02*
X003020Y015024D01*
X003020Y014531D02*
X003120Y014531D01*
X003120Y014433D02*
X003020Y014433D01*
X003020Y014334D02*
X003120Y014334D01*
X003120Y014236D02*
X003020Y014236D01*
X003020Y014137D02*
X003120Y014137D01*
X002646Y014137D02*
X001005Y014137D01*
X001005Y014236D02*
X002605Y014236D01*
X002605Y014334D02*
X001005Y014334D01*
X001005Y014433D02*
X002605Y014433D01*
X002605Y014531D02*
X001005Y014531D01*
X001005Y015221D02*
X001269Y015221D01*
X001094Y015319D02*
X001005Y015319D01*
X001700Y016797D02*
X001800Y016797D01*
X001800Y016895D02*
X001700Y016895D01*
X001700Y016994D02*
X001800Y016994D01*
X001800Y017092D02*
X001700Y017092D01*
X001124Y017289D02*
X001005Y017289D01*
X001005Y017388D02*
X001026Y017388D01*
X002019Y019161D02*
X012306Y019161D01*
X012306Y019259D02*
X001978Y019259D01*
X004572Y015024D02*
X005226Y015024D01*
X005573Y014334D02*
X005663Y014334D01*
X005759Y014236D02*
X004605Y014236D01*
X006064Y014925D02*
X011739Y014925D01*
X011534Y014827D02*
X007163Y014827D01*
X007277Y014728D02*
X011435Y014728D01*
X011351Y014630D02*
X007375Y014630D01*
X007458Y014531D02*
X011310Y014531D01*
X011269Y014433D02*
X011107Y014433D01*
X011150Y014334D02*
X011255Y014334D01*
X011255Y014236D02*
X011150Y014236D01*
X011150Y014137D02*
X011255Y014137D01*
X011289Y014039D02*
X011148Y014039D01*
X011150Y013940D02*
X011330Y013940D01*
X010435Y014236D02*
X010408Y014236D01*
X010413Y014334D02*
X010435Y014334D01*
X010478Y014433D02*
X010344Y014433D01*
X009952Y014433D02*
X009949Y014433D01*
X009794Y014433D02*
X009792Y014433D01*
X009894Y015024D02*
X012306Y015024D01*
X012306Y015122D02*
X009904Y015122D01*
X009904Y015221D02*
X012306Y015221D01*
X012306Y015319D02*
X009904Y015319D01*
X009904Y015418D02*
X012306Y015418D01*
X012306Y015516D02*
X009904Y015516D01*
X009904Y015615D02*
X012306Y015615D01*
X012306Y015713D02*
X009904Y015713D01*
X009904Y015812D02*
X012306Y015812D01*
X012306Y015910D02*
X009904Y015910D01*
X009904Y016009D02*
X012306Y016009D01*
X012306Y016107D02*
X009904Y016107D01*
X009904Y016206D02*
X012306Y016206D01*
X012306Y016304D02*
X009904Y016304D01*
X010188Y016403D02*
X012306Y016403D01*
X012306Y016501D02*
X010286Y016501D01*
X010385Y016600D02*
X012306Y016600D01*
X012306Y016698D02*
X010483Y016698D01*
X010582Y016797D02*
X010617Y016797D01*
X010084Y017289D02*
X009904Y017289D01*
X009904Y017191D02*
X009986Y017191D01*
X009904Y017388D02*
X010183Y017388D01*
X010323Y017486D02*
X009904Y017486D01*
X008838Y016304D02*
X006282Y016304D01*
X006282Y016206D02*
X008838Y016206D01*
X008838Y016107D02*
X006282Y016107D01*
X006282Y016009D02*
X008838Y016009D01*
X008838Y015910D02*
X006282Y015910D01*
X006282Y015812D02*
X008838Y015812D01*
X008838Y015713D02*
X006282Y015713D01*
X006282Y015615D02*
X008838Y015615D01*
X008838Y015516D02*
X006282Y015516D01*
X006282Y015418D02*
X008838Y015418D01*
X008838Y015319D02*
X006282Y015319D01*
X006282Y015221D02*
X008838Y015221D01*
X008838Y015122D02*
X006282Y015122D01*
X006272Y015024D02*
X008848Y015024D01*
X008820Y014433D02*
X007499Y014433D01*
X007500Y014334D02*
X008778Y014334D01*
X008806Y014236D02*
X007477Y014236D01*
X007422Y014137D02*
X008884Y014137D01*
X009023Y014039D02*
X007289Y014039D01*
X003529Y009902D02*
X002599Y009902D01*
X002570Y009803D02*
X003529Y009803D01*
X003529Y009705D02*
X002513Y009705D01*
X002420Y009606D02*
X003529Y009606D01*
X001800Y010099D02*
X001700Y010099D01*
X001700Y010197D02*
X001800Y010197D01*
X001800Y010296D02*
X001700Y010296D01*
X001700Y010394D02*
X001800Y010394D01*
X001800Y010493D02*
X001700Y010493D01*
X001281Y010493D02*
X001005Y010493D01*
X001005Y010591D02*
X001196Y010591D01*
X001064Y010690D02*
X001005Y010690D01*
X001005Y010394D02*
X001080Y010394D01*
X001034Y011281D02*
X001005Y011281D01*
X001005Y011379D02*
X001132Y011379D01*
X001044Y011675D02*
X001005Y011675D01*
X001994Y012561D02*
X012306Y012561D01*
X012306Y012463D02*
X002035Y012463D01*
X002605Y007833D02*
X001005Y007833D01*
X001005Y007735D02*
X002605Y007735D01*
X002605Y007636D02*
X001005Y007636D01*
X001005Y007538D02*
X002611Y007538D01*
X001810Y003992D02*
X001710Y003992D01*
X001710Y003893D02*
X001810Y003893D01*
X001810Y003795D02*
X001710Y003795D01*
X001710Y003696D02*
X001810Y003696D01*
X001161Y003992D02*
X001015Y003992D01*
X001015Y003893D02*
X001035Y003893D01*
X007361Y005174D02*
X008865Y005174D01*
X008848Y005075D02*
X007460Y005075D01*
X007558Y004977D02*
X008848Y004977D01*
X008848Y004878D02*
X007657Y004878D01*
X007755Y004780D02*
X008848Y004780D01*
X008848Y004681D02*
X007854Y004681D01*
X007952Y004583D02*
X008848Y004583D01*
X008848Y004484D02*
X008051Y004484D01*
X008149Y004386D02*
X008848Y004386D01*
X008848Y004287D02*
X008248Y004287D01*
X008346Y004189D02*
X008848Y004189D01*
X008848Y004090D02*
X008445Y004090D01*
X008543Y003992D02*
X008848Y003992D01*
X012148Y001825D02*
X012316Y001825D01*
X014719Y007205D02*
X014805Y007412D01*
X014805Y007688D01*
X014699Y007944D01*
X014504Y008139D01*
X014248Y008245D01*
X013972Y008245D01*
X013759Y008157D01*
X013759Y018506D01*
X018205Y018506D01*
X018115Y018288D01*
X018115Y018012D01*
X018221Y017756D01*
X018416Y017561D01*
X018672Y017455D01*
X018948Y017455D01*
X019155Y017541D01*
X019155Y017313D01*
X019114Y017313D01*
X019007Y017206D01*
X018980Y017206D01*
X018910Y017136D01*
X018910Y017067D01*
X018787Y017067D01*
X018783Y017063D01*
X018780Y017067D01*
X018680Y017067D01*
X018610Y016997D01*
X018610Y016791D01*
X018680Y016720D01*
X018780Y016720D01*
X018797Y016737D01*
X018814Y016720D01*
X018910Y016720D01*
X018910Y016699D01*
X018680Y016699D01*
X018610Y016628D01*
X018610Y016529D01*
X018614Y016525D01*
X018610Y016522D01*
X018610Y016238D01*
X018626Y016222D01*
X018610Y016207D01*
X018610Y016107D01*
X016761Y016107D01*
X016761Y016104D02*
X016760Y016153D01*
X016760Y016220D01*
X016759Y016223D01*
X016759Y016226D01*
X016732Y016287D01*
X016707Y016348D01*
X016704Y016350D01*
X016703Y016353D01*
X016655Y016400D01*
X016260Y016795D01*
X016260Y016803D01*
X016295Y016838D01*
X016364Y017005D01*
X016364Y017895D01*
X016295Y018062D01*
X016167Y018189D01*
X016000Y018259D01*
X015820Y018259D01*
X015653Y018189D01*
X015525Y018062D01*
X015456Y017895D01*
X015456Y017005D01*
X015525Y016838D01*
X015560Y016803D01*
X015560Y016580D01*
X015613Y016452D01*
X015961Y016104D01*
X014804Y016104D01*
X014745Y016046D01*
X014745Y015097D01*
X014804Y015038D01*
X016060Y015038D01*
X016060Y014825D01*
X014133Y012898D01*
X014080Y012770D01*
X014080Y010300D01*
X014133Y010172D01*
X014232Y010073D01*
X014526Y009779D01*
X014655Y009726D01*
X015254Y009726D01*
X015382Y009779D01*
X015816Y009779D01*
X015875Y009837D01*
X015875Y010314D01*
X015816Y010372D01*
X015382Y010372D01*
X015254Y010426D01*
X014869Y010426D01*
X014780Y010515D01*
X014780Y011440D01*
X014804Y011416D01*
X016866Y011416D01*
X016880Y011410D01*
X017020Y011410D01*
X017034Y011416D01*
X018036Y011416D01*
X018050Y011430D01*
X018089Y011430D01*
X018126Y011393D01*
X018126Y010805D01*
X018079Y010805D01*
X018021Y010746D01*
X018021Y010033D01*
X018079Y009975D01*
X018872Y009975D01*
X018931Y010033D01*
X018931Y010746D01*
X018872Y010805D01*
X018826Y010805D01*
X018826Y011608D01*
X018772Y011736D01*
X018690Y011818D01*
X018747Y011873D01*
X018749Y011874D01*
X018797Y011922D01*
X018845Y011969D01*
X018846Y011971D01*
X018848Y011973D01*
X018873Y012035D01*
X018900Y012097D01*
X018900Y012099D01*
X018901Y012101D01*
X018901Y012169D01*
X018902Y012236D01*
X018901Y012238D01*
X018901Y013046D01*
X019007Y013152D01*
X019155Y013152D01*
X019155Y013054D02*
X018909Y013054D01*
X018901Y012955D02*
X019155Y012955D01*
X019155Y012857D02*
X018901Y012857D01*
X018901Y012758D02*
X019155Y012758D01*
X019155Y012660D02*
X018901Y012660D01*
X018901Y012561D02*
X019155Y012561D01*
X019155Y012463D02*
X018901Y012463D01*
X018901Y012364D02*
X019155Y012364D01*
X019155Y012266D02*
X018901Y012266D01*
X018901Y012167D02*
X019155Y012167D01*
X019155Y012069D02*
X018888Y012069D01*
X018846Y011970D02*
X019155Y011970D01*
X019155Y011872D02*
X018745Y011872D01*
X018735Y011773D02*
X019155Y011773D01*
X019155Y011675D02*
X018798Y011675D01*
X018826Y011576D02*
X019155Y011576D01*
X019155Y011478D02*
X018826Y011478D01*
X018826Y011379D02*
X019155Y011379D01*
X019155Y011281D02*
X018826Y011281D01*
X018826Y011182D02*
X019155Y011182D01*
X019155Y011084D02*
X018826Y011084D01*
X018826Y010985D02*
X019155Y010985D01*
X019155Y010887D02*
X018826Y010887D01*
X018889Y010788D02*
X019155Y010788D01*
X019155Y010690D02*
X018931Y010690D01*
X018931Y010591D02*
X019155Y010591D01*
X019155Y010493D02*
X018931Y010493D01*
X018931Y010394D02*
X019155Y010394D01*
X019155Y010296D02*
X018931Y010296D01*
X018931Y010197D02*
X019155Y010197D01*
X019155Y010099D02*
X018931Y010099D01*
X018897Y010000D02*
X019155Y010000D01*
X019155Y009902D02*
X017736Y009902D01*
X017736Y009859D02*
X017736Y010027D01*
X017044Y010027D01*
X017044Y009729D01*
X017606Y009729D01*
X017644Y009739D01*
X017678Y009759D01*
X017706Y009787D01*
X017726Y009821D01*
X017736Y009859D01*
X017716Y009803D02*
X019155Y009803D01*
X019155Y009705D02*
X018923Y009705D01*
X018888Y009725D01*
X018850Y009735D01*
X018526Y009735D01*
X018526Y009320D01*
X018981Y009320D01*
X018981Y009605D01*
X018970Y009643D01*
X018951Y009677D01*
X018923Y009705D01*
X018980Y009606D02*
X019155Y009606D01*
X019155Y009508D02*
X018981Y009508D01*
X018981Y009409D02*
X019155Y009409D01*
X019155Y009311D02*
X018526Y009311D01*
X018526Y009320D02*
X018526Y009220D01*
X018981Y009220D01*
X018981Y008935D01*
X018970Y008897D01*
X018951Y008863D01*
X018923Y008835D01*
X018888Y008815D01*
X018850Y008805D01*
X018526Y008805D01*
X018526Y009220D01*
X018426Y009220D01*
X018426Y008805D01*
X018101Y008805D01*
X018063Y008815D01*
X018029Y008835D01*
X018001Y008863D01*
X017981Y008897D01*
X017971Y008935D01*
X017971Y009220D01*
X018426Y009220D01*
X018426Y009320D01*
X018426Y009735D01*
X018101Y009735D01*
X018063Y009725D01*
X018029Y009705D01*
X018001Y009677D01*
X017981Y009643D01*
X017971Y009605D01*
X017971Y009320D01*
X018426Y009320D01*
X018526Y009320D01*
X018526Y009409D02*
X018426Y009409D01*
X018426Y009311D02*
X013759Y009311D01*
X013759Y009409D02*
X017971Y009409D01*
X017971Y009508D02*
X013759Y009508D01*
X013759Y009606D02*
X017971Y009606D01*
X018028Y009705D02*
X013759Y009705D01*
X013759Y009803D02*
X014502Y009803D01*
X014404Y009902D02*
X013759Y009902D01*
X013759Y010000D02*
X014305Y010000D01*
X014206Y010099D02*
X013759Y010099D01*
X013759Y010197D02*
X014123Y010197D01*
X014082Y010296D02*
X013759Y010296D01*
X013759Y010394D02*
X014080Y010394D01*
X014080Y010493D02*
X013759Y010493D01*
X013759Y010591D02*
X014080Y010591D01*
X014080Y010690D02*
X013759Y010690D01*
X013759Y010788D02*
X014080Y010788D01*
X014080Y010887D02*
X013759Y010887D01*
X013759Y010985D02*
X014080Y010985D01*
X014080Y011084D02*
X013759Y011084D01*
X013759Y011182D02*
X014080Y011182D01*
X014080Y011281D02*
X013759Y011281D01*
X013759Y011379D02*
X014080Y011379D01*
X014080Y011478D02*
X013759Y011478D01*
X013759Y011576D02*
X014080Y011576D01*
X014080Y011675D02*
X013759Y011675D01*
X013759Y011773D02*
X014080Y011773D01*
X014080Y011872D02*
X013759Y011872D01*
X013759Y011970D02*
X014080Y011970D01*
X014080Y012069D02*
X013759Y012069D01*
X013759Y012167D02*
X014080Y012167D01*
X014080Y012266D02*
X013759Y012266D01*
X013759Y012364D02*
X014080Y012364D01*
X014080Y012463D02*
X013759Y012463D01*
X013759Y012561D02*
X014080Y012561D01*
X014080Y012660D02*
X013759Y012660D01*
X013759Y012758D02*
X014080Y012758D01*
X014116Y012857D02*
X013759Y012857D01*
X013759Y012955D02*
X014190Y012955D01*
X014289Y013054D02*
X013759Y013054D01*
X013759Y013152D02*
X014387Y013152D01*
X014486Y013251D02*
X013759Y013251D01*
X013759Y013349D02*
X014584Y013349D01*
X014683Y013448D02*
X013759Y013448D01*
X013759Y013546D02*
X014781Y013546D01*
X014880Y013645D02*
X013759Y013645D01*
X013759Y013743D02*
X014978Y013743D01*
X015077Y013842D02*
X013759Y013842D01*
X013759Y013940D02*
X015175Y013940D01*
X015274Y014039D02*
X013759Y014039D01*
X013759Y014137D02*
X015372Y014137D01*
X015471Y014236D02*
X013759Y014236D01*
X013759Y014334D02*
X015569Y014334D01*
X015668Y014433D02*
X013759Y014433D01*
X013759Y014531D02*
X015766Y014531D01*
X015865Y014630D02*
X013759Y014630D01*
X013759Y014728D02*
X015963Y014728D01*
X016060Y014827D02*
X013759Y014827D01*
X013759Y014925D02*
X016060Y014925D01*
X016060Y015024D02*
X013759Y015024D01*
X013759Y015122D02*
X014745Y015122D01*
X014745Y015221D02*
X013759Y015221D01*
X013759Y015319D02*
X014745Y015319D01*
X014745Y015418D02*
X013759Y015418D01*
X013759Y015516D02*
X014745Y015516D01*
X014745Y015615D02*
X013759Y015615D01*
X013759Y015713D02*
X014745Y015713D01*
X014745Y015812D02*
X013759Y015812D01*
X013759Y015910D02*
X014745Y015910D01*
X014745Y016009D02*
X013759Y016009D01*
X013759Y016107D02*
X015958Y016107D01*
X015859Y016206D02*
X013759Y016206D01*
X013759Y016304D02*
X015761Y016304D01*
X015662Y016403D02*
X013759Y016403D01*
X013759Y016501D02*
X015593Y016501D01*
X015560Y016600D02*
X013759Y016600D01*
X013759Y016698D02*
X014683Y016698D01*
X014653Y016711D02*
X014820Y016641D01*
X015000Y016641D01*
X015167Y016711D01*
X015295Y016838D01*
X015364Y017005D01*
X015364Y017895D01*
X015295Y018062D01*
X015167Y018189D01*
X015000Y018259D01*
X014820Y018259D01*
X014653Y018189D01*
X014525Y018062D01*
X014456Y017895D01*
X014456Y017005D01*
X014525Y016838D01*
X014653Y016711D01*
X014567Y016797D02*
X013759Y016797D01*
X013759Y016895D02*
X014501Y016895D01*
X014461Y016994D02*
X013759Y016994D01*
X013759Y017092D02*
X014456Y017092D01*
X014456Y017191D02*
X013759Y017191D01*
X013759Y017289D02*
X014456Y017289D01*
X014456Y017388D02*
X013759Y017388D01*
X013759Y017486D02*
X014456Y017486D01*
X014456Y017585D02*
X013759Y017585D01*
X013759Y017683D02*
X014456Y017683D01*
X014456Y017782D02*
X013759Y017782D01*
X013759Y017880D02*
X014456Y017880D01*
X014490Y017979D02*
X013759Y017979D01*
X013759Y018077D02*
X014540Y018077D01*
X014639Y018176D02*
X013759Y018176D01*
X013759Y018274D02*
X018115Y018274D01*
X018115Y018176D02*
X016181Y018176D01*
X016280Y018077D02*
X018115Y018077D01*
X018129Y017979D02*
X016330Y017979D01*
X016364Y017880D02*
X018170Y017880D01*
X018210Y017782D02*
X016364Y017782D01*
X016364Y017683D02*
X018294Y017683D01*
X018393Y017585D02*
X016364Y017585D01*
X016364Y017486D02*
X018597Y017486D01*
X019023Y017486D02*
X019155Y017486D01*
X019155Y017388D02*
X016364Y017388D01*
X016364Y017289D02*
X019090Y017289D01*
X018965Y017191D02*
X016364Y017191D01*
X016364Y017092D02*
X018910Y017092D01*
X018610Y016994D02*
X016359Y016994D01*
X016319Y016895D02*
X018610Y016895D01*
X018610Y016797D02*
X016260Y016797D01*
X016357Y016698D02*
X018680Y016698D01*
X018610Y016600D02*
X016455Y016600D01*
X016554Y016501D02*
X018610Y016501D01*
X018610Y016403D02*
X016652Y016403D01*
X016725Y016304D02*
X018610Y016304D01*
X018610Y016206D02*
X016760Y016206D01*
X016761Y016104D02*
X018036Y016104D01*
X018095Y016046D01*
X018095Y015097D01*
X018036Y015038D01*
X016760Y015038D01*
X016760Y014610D01*
X016707Y014482D01*
X016608Y014383D01*
X014780Y012555D01*
X014780Y012458D01*
X014804Y012482D01*
X018036Y012482D01*
X018095Y012423D01*
X018095Y012215D01*
X018201Y012319D01*
X018201Y013261D01*
X018254Y013389D01*
X018353Y013488D01*
X018512Y013647D01*
X018640Y013700D01*
X018780Y013700D01*
X018908Y013647D01*
X019007Y013548D01*
X019060Y013420D01*
X019060Y013280D01*
X019007Y013152D01*
X019048Y013251D02*
X019155Y013251D01*
X019155Y013349D02*
X019060Y013349D01*
X019048Y013448D02*
X019155Y013448D01*
X019155Y013546D02*
X019008Y013546D01*
X018910Y013645D02*
X019155Y013645D01*
X019155Y013743D02*
X015968Y013743D01*
X015870Y013645D02*
X018510Y013645D01*
X018411Y013546D02*
X015771Y013546D01*
X015673Y013448D02*
X018313Y013448D01*
X018238Y013349D02*
X015574Y013349D01*
X015476Y013251D02*
X018201Y013251D01*
X018201Y013152D02*
X015377Y013152D01*
X015279Y013054D02*
X018201Y013054D01*
X018201Y012955D02*
X015180Y012955D01*
X015082Y012857D02*
X018201Y012857D01*
X018201Y012758D02*
X014983Y012758D01*
X014885Y012660D02*
X018201Y012660D01*
X018201Y012561D02*
X014786Y012561D01*
X014780Y012463D02*
X014784Y012463D01*
X014780Y011379D02*
X018126Y011379D01*
X018126Y011281D02*
X014780Y011281D01*
X014780Y011182D02*
X018126Y011182D01*
X018126Y011084D02*
X014780Y011084D01*
X014780Y010985D02*
X018126Y010985D01*
X018126Y010887D02*
X014780Y010887D01*
X014780Y010788D02*
X018062Y010788D01*
X018021Y010690D02*
X014780Y010690D01*
X014780Y010591D02*
X018021Y010591D01*
X018021Y010493D02*
X014802Y010493D01*
X015330Y010394D02*
X016316Y010394D01*
X016313Y010392D02*
X016285Y010365D01*
X016265Y010330D01*
X016255Y010292D01*
X016255Y010124D01*
X016947Y010124D01*
X016947Y010027D01*
X017044Y010027D01*
X017044Y010124D01*
X017736Y010124D01*
X017736Y010292D01*
X017726Y010330D01*
X017706Y010365D01*
X017678Y010392D01*
X017644Y010412D01*
X017606Y010422D01*
X017044Y010422D01*
X017044Y010124D01*
X016947Y010124D01*
X016947Y010422D01*
X016385Y010422D01*
X016347Y010412D01*
X016313Y010392D01*
X016256Y010296D02*
X015875Y010296D01*
X015875Y010197D02*
X016255Y010197D01*
X016255Y010027D02*
X016255Y009859D01*
X016265Y009821D01*
X016285Y009787D01*
X016313Y009759D01*
X016347Y009739D01*
X016385Y009729D01*
X016947Y009729D01*
X016947Y010027D01*
X016255Y010027D01*
X016255Y010000D02*
X015875Y010000D01*
X015875Y009902D02*
X016255Y009902D01*
X016275Y009803D02*
X015841Y009803D01*
X015875Y010099D02*
X016947Y010099D01*
X017044Y010099D02*
X018021Y010099D01*
X018021Y010197D02*
X017736Y010197D01*
X017735Y010296D02*
X018021Y010296D01*
X018021Y010394D02*
X017675Y010394D01*
X017736Y010000D02*
X018054Y010000D01*
X018426Y009705D02*
X018526Y009705D01*
X018526Y009606D02*
X018426Y009606D01*
X018426Y009508D02*
X018526Y009508D01*
X018526Y009212D02*
X018426Y009212D01*
X018426Y009114D02*
X018526Y009114D01*
X018526Y009015D02*
X018426Y009015D01*
X018426Y008917D02*
X018526Y008917D01*
X018526Y008818D02*
X018426Y008818D01*
X018058Y008818D02*
X013759Y008818D01*
X013759Y008720D02*
X015225Y008720D01*
X015153Y008689D02*
X015320Y008759D01*
X015500Y008759D01*
X015667Y008689D01*
X015795Y008562D01*
X015864Y008395D01*
X015864Y007505D01*
X015795Y007338D01*
X015667Y007211D01*
X015654Y007205D01*
X016090Y007205D01*
X016081Y007211D01*
X016025Y007267D01*
X015979Y007331D01*
X015943Y007402D01*
X015918Y007478D01*
X015906Y007556D01*
X015906Y007900D01*
X016360Y007900D01*
X016360Y008000D01*
X016360Y008807D01*
X016292Y008796D01*
X016216Y008772D01*
X016146Y008736D01*
X016081Y008689D01*
X016025Y008633D01*
X015979Y008569D01*
X015943Y008498D01*
X015918Y008422D01*
X015906Y008344D01*
X015906Y008000D01*
X016360Y008000D01*
X016460Y008000D01*
X016914Y008000D01*
X016914Y008344D01*
X016902Y008422D01*
X016877Y008498D01*
X016841Y008569D01*
X016795Y008633D01*
X016739Y008689D01*
X016674Y008736D01*
X016604Y008772D01*
X016528Y008796D01*
X016460Y008807D01*
X016460Y008000D01*
X016460Y007900D01*
X016914Y007900D01*
X016914Y007556D01*
X016902Y007478D01*
X016877Y007402D01*
X016841Y007331D01*
X016795Y007267D01*
X016739Y007211D01*
X016730Y007205D01*
X017166Y007205D01*
X017153Y007211D01*
X017025Y007338D01*
X016956Y007505D01*
X016956Y008395D01*
X017025Y008562D01*
X017153Y008689D01*
X017320Y008759D01*
X017500Y008759D01*
X017667Y008689D01*
X017795Y008562D01*
X017864Y008395D01*
X017864Y007505D01*
X017795Y007338D01*
X017667Y007211D01*
X017654Y007205D01*
X019155Y007205D01*
X019155Y014940D01*
X018980Y014940D01*
X018933Y014987D01*
X018927Y014981D01*
X018886Y014940D01*
X018680Y014940D01*
X018610Y015010D01*
X018610Y015110D01*
X018614Y015113D01*
X018610Y015117D01*
X018610Y015217D01*
X018626Y015232D01*
X018610Y015248D01*
X018610Y015347D01*
X018680Y015418D01*
X018787Y015418D01*
X018840Y015471D01*
X018910Y015471D01*
X018910Y015478D01*
X018914Y015482D01*
X018910Y015485D01*
X018910Y015493D01*
X018680Y015493D01*
X018610Y015563D01*
X018610Y015742D01*
X018612Y015745D01*
X018610Y015747D01*
X018610Y015846D01*
X018614Y015850D01*
X018610Y015854D01*
X018610Y016084D01*
X018622Y016096D01*
X018610Y016107D01*
X018610Y016009D02*
X018095Y016009D01*
X018095Y015910D02*
X018610Y015910D01*
X018610Y015812D02*
X018095Y015812D01*
X018095Y015713D02*
X018610Y015713D01*
X018610Y015615D02*
X018095Y015615D01*
X018095Y015516D02*
X018657Y015516D01*
X018680Y015418D02*
X018095Y015418D01*
X018095Y015319D02*
X018610Y015319D01*
X018614Y015221D02*
X018095Y015221D01*
X018095Y015122D02*
X018610Y015122D01*
X018610Y015024D02*
X016760Y015024D01*
X016760Y014925D02*
X019155Y014925D01*
X019155Y014827D02*
X016760Y014827D01*
X016760Y014728D02*
X019155Y014728D01*
X019155Y014630D02*
X016760Y014630D01*
X016727Y014531D02*
X019155Y014531D01*
X019155Y014433D02*
X016658Y014433D01*
X016559Y014334D02*
X019155Y014334D01*
X019155Y014236D02*
X016461Y014236D01*
X016362Y014137D02*
X019155Y014137D01*
X019155Y014039D02*
X016264Y014039D01*
X016165Y013940D02*
X019155Y013940D01*
X019155Y013842D02*
X016067Y013842D01*
X018056Y012463D02*
X018201Y012463D01*
X018201Y012364D02*
X018095Y012364D01*
X018095Y012266D02*
X018147Y012266D01*
X017044Y010394D02*
X016947Y010394D01*
X016947Y010296D02*
X017044Y010296D01*
X017044Y010197D02*
X016947Y010197D01*
X016947Y010000D02*
X017044Y010000D01*
X017044Y009902D02*
X016947Y009902D01*
X016947Y009803D02*
X017044Y009803D01*
X017971Y009212D02*
X013759Y009212D01*
X013759Y009114D02*
X017971Y009114D01*
X017971Y009015D02*
X013759Y009015D01*
X013759Y008917D02*
X017976Y008917D01*
X017736Y008621D02*
X019155Y008621D01*
X019155Y008523D02*
X017811Y008523D01*
X017852Y008424D02*
X019155Y008424D01*
X019155Y008326D02*
X017864Y008326D01*
X017864Y008227D02*
X019155Y008227D01*
X019155Y008129D02*
X017864Y008129D01*
X017864Y008030D02*
X019155Y008030D01*
X019155Y007932D02*
X017864Y007932D01*
X017864Y007833D02*
X019155Y007833D01*
X019155Y007735D02*
X017864Y007735D01*
X017864Y007636D02*
X019155Y007636D01*
X019155Y007538D02*
X017864Y007538D01*
X017837Y007439D02*
X019155Y007439D01*
X019155Y007341D02*
X017796Y007341D01*
X017699Y007242D02*
X019155Y007242D01*
X019155Y008720D02*
X017595Y008720D01*
X017225Y008720D02*
X016697Y008720D01*
X016803Y008621D02*
X017084Y008621D01*
X017009Y008523D02*
X016865Y008523D01*
X016901Y008424D02*
X016968Y008424D01*
X016956Y008326D02*
X016914Y008326D01*
X016914Y008227D02*
X016956Y008227D01*
X016956Y008129D02*
X016914Y008129D01*
X016914Y008030D02*
X016956Y008030D01*
X016956Y007932D02*
X016460Y007932D01*
X016460Y008030D02*
X016360Y008030D01*
X016360Y007932D02*
X015864Y007932D01*
X015864Y008030D02*
X015906Y008030D01*
X015906Y008129D02*
X015864Y008129D01*
X015864Y008227D02*
X015906Y008227D01*
X015906Y008326D02*
X015864Y008326D01*
X015852Y008424D02*
X015919Y008424D01*
X015955Y008523D02*
X015811Y008523D01*
X015736Y008621D02*
X016017Y008621D01*
X016123Y008720D02*
X015595Y008720D01*
X015153Y008689D02*
X015025Y008562D01*
X014956Y008395D01*
X014956Y007505D01*
X015025Y007338D01*
X015153Y007211D01*
X015166Y007205D01*
X014719Y007205D01*
X014735Y007242D02*
X015121Y007242D01*
X015024Y007341D02*
X014775Y007341D01*
X014805Y007439D02*
X014983Y007439D01*
X014956Y007538D02*
X014805Y007538D01*
X014805Y007636D02*
X014956Y007636D01*
X014956Y007735D02*
X014786Y007735D01*
X014745Y007833D02*
X014956Y007833D01*
X014956Y007932D02*
X014704Y007932D01*
X014613Y008030D02*
X014956Y008030D01*
X014956Y008129D02*
X014514Y008129D01*
X014292Y008227D02*
X014956Y008227D01*
X014956Y008326D02*
X013759Y008326D01*
X013759Y008424D02*
X014968Y008424D01*
X015009Y008523D02*
X013759Y008523D01*
X013759Y008621D02*
X015084Y008621D01*
X015864Y007833D02*
X015906Y007833D01*
X015906Y007735D02*
X015864Y007735D01*
X015864Y007636D02*
X015906Y007636D01*
X015909Y007538D02*
X015864Y007538D01*
X015837Y007439D02*
X015931Y007439D01*
X015974Y007341D02*
X015796Y007341D01*
X015699Y007242D02*
X016050Y007242D01*
X016770Y007242D02*
X017121Y007242D01*
X017024Y007341D02*
X016846Y007341D01*
X016889Y007439D02*
X016983Y007439D01*
X016956Y007538D02*
X016911Y007538D01*
X016914Y007636D02*
X016956Y007636D01*
X016956Y007735D02*
X016914Y007735D01*
X016914Y007833D02*
X016956Y007833D01*
X016460Y008129D02*
X016360Y008129D01*
X016360Y008227D02*
X016460Y008227D01*
X016460Y008326D02*
X016360Y008326D01*
X016360Y008424D02*
X016460Y008424D01*
X016460Y008523D02*
X016360Y008523D01*
X016360Y008621D02*
X016460Y008621D01*
X016460Y008720D02*
X016360Y008720D01*
X013928Y008227D02*
X013759Y008227D01*
X012306Y008227D02*
X012252Y008227D01*
X012306Y010099D02*
X011822Y010099D01*
X011944Y010197D02*
X012306Y010197D01*
X012306Y010296D02*
X012011Y010296D01*
X012052Y010394D02*
X012306Y010394D01*
X012306Y010493D02*
X012059Y010493D01*
X012058Y010591D02*
X012306Y010591D01*
X012306Y010690D02*
X012018Y010690D01*
X011959Y010788D02*
X012306Y010788D01*
X010440Y007735D02*
X010382Y007735D01*
X010413Y007636D02*
X010435Y007636D01*
X010435Y007538D02*
X010413Y007538D01*
X012161Y014925D02*
X012306Y014925D01*
X012306Y016797D02*
X011883Y016797D01*
X011982Y016895D02*
X012306Y016895D01*
X012306Y016994D02*
X012027Y016994D01*
X012059Y017092D02*
X012306Y017092D01*
X012306Y017191D02*
X012059Y017191D01*
X012043Y017289D02*
X012306Y017289D01*
X012306Y017388D02*
X012002Y017388D01*
X011921Y017486D02*
X012306Y017486D01*
X013759Y018373D02*
X018150Y018373D01*
X018191Y018471D02*
X013759Y018471D01*
X015181Y018176D02*
X015639Y018176D01*
X015540Y018077D02*
X015280Y018077D01*
X015330Y017979D02*
X015490Y017979D01*
X015456Y017880D02*
X015364Y017880D01*
X015364Y017782D02*
X015456Y017782D01*
X015456Y017683D02*
X015364Y017683D01*
X015364Y017585D02*
X015456Y017585D01*
X015456Y017486D02*
X015364Y017486D01*
X015364Y017388D02*
X015456Y017388D01*
X015456Y017289D02*
X015364Y017289D01*
X015364Y017191D02*
X015456Y017191D01*
X015456Y017092D02*
X015364Y017092D01*
X015359Y016994D02*
X015461Y016994D01*
X015501Y016895D02*
X015319Y016895D01*
X015253Y016797D02*
X015560Y016797D01*
X015560Y016698D02*
X015137Y016698D01*
X018981Y009212D02*
X019155Y009212D01*
X019155Y009114D02*
X018981Y009114D01*
X018981Y009015D02*
X019155Y009015D01*
X019155Y008917D02*
X018975Y008917D01*
X018893Y008818D02*
X019155Y008818D01*
D19*
X018260Y008520D03*
X013960Y008950D03*
X010030Y005840D03*
X007150Y007700D03*
X002760Y006000D03*
X002320Y008150D03*
X002750Y012450D03*
X002320Y014810D03*
X002750Y019110D03*
X007150Y014360D03*
X010020Y012290D03*
X014120Y016220D03*
X010020Y018950D03*
X018710Y013350D03*
X007160Y001250D03*
X002330Y001700D03*
D20*
X004200Y001484D02*
X005348Y001484D01*
X005631Y001768D01*
X005590Y001810D01*
X005590Y002990D01*
X005570Y003010D01*
X005590Y002990D02*
X005590Y003540D01*
X005759Y003540D01*
X005631Y001768D02*
X005981Y001409D01*
X007001Y001409D01*
X007160Y001250D01*
X008490Y003550D02*
X009371Y003550D01*
X009381Y003540D01*
X009960Y003550D01*
X010460Y004050D01*
X011260Y004050D01*
X008490Y003550D02*
X006510Y005530D01*
X004180Y005530D01*
X003886Y005236D01*
X003886Y004776D01*
X005971Y007859D02*
X005621Y008218D01*
X005338Y007934D01*
X004190Y007934D01*
X005580Y008260D02*
X005580Y009440D01*
X005560Y009460D01*
X005580Y009440D02*
X005580Y009990D01*
X005749Y009990D01*
X005580Y008260D02*
X005621Y008218D01*
X005971Y007859D02*
X006991Y007859D01*
X007150Y007700D01*
X008480Y010000D02*
X009361Y010000D01*
X009371Y009990D01*
X009950Y010000D01*
X010450Y010500D01*
X011250Y010500D01*
X008480Y010000D02*
X006500Y011980D01*
X004170Y011980D01*
X003876Y011686D01*
X003876Y011226D01*
X004190Y014594D02*
X005338Y014594D01*
X005621Y014878D01*
X005580Y014920D01*
X005580Y016100D01*
X005560Y016120D01*
X005580Y016100D02*
X005580Y016650D01*
X005749Y016650D01*
X005621Y014878D02*
X005971Y014519D01*
X006991Y014519D01*
X007150Y014360D01*
X009361Y016660D02*
X009371Y016650D01*
X009950Y016660D01*
X010450Y017160D01*
X011250Y017160D01*
X009361Y016660D02*
X008480Y016660D01*
X006500Y018640D01*
X004170Y018640D01*
X003876Y018346D01*
X003876Y017886D01*
X014430Y012700D02*
X014430Y010370D01*
X014724Y010076D01*
X015184Y010076D01*
X016950Y011760D02*
X016970Y011780D01*
X018150Y011780D01*
X018192Y011821D01*
X018476Y011538D01*
X018476Y010390D01*
X018192Y011821D02*
X018551Y012171D01*
X018551Y013191D01*
X018710Y013350D01*
X016970Y011780D02*
X016420Y011780D01*
X016420Y011949D01*
X014430Y012700D02*
X016410Y014680D01*
X016410Y015561D01*
X016420Y015571D01*
X016410Y016150D01*
X015910Y016650D01*
X015910Y017450D01*
M02*
