G75*
G70*
%OFA0B0*%
%FSLAX24Y24*%
%IPPOS*%
%LPD*%
%AMOC8*
5,1,8,0,0,1.08239X$1,22.5*
%
%ADD10C,0.0010*%
%ADD11C,0.0000*%
%ADD12C,0.0100*%
%ADD13C,0.0030*%
D10*
X000760Y000550D02*
X000760Y006456D01*
X012571Y006456D01*
X012571Y000550D01*
X000760Y000550D01*
X000750Y007000D02*
X000750Y012906D01*
X012561Y012906D01*
X012561Y007000D01*
X000750Y007000D01*
X000750Y013660D02*
X000750Y019566D01*
X012561Y019566D01*
X012561Y013660D01*
X000750Y013660D01*
X013504Y018761D02*
X013504Y006950D01*
X019410Y006950D01*
X019410Y018761D01*
X013504Y018761D01*
D11*
X011505Y014260D02*
X011507Y014302D01*
X011513Y014343D01*
X011522Y014384D01*
X011536Y014423D01*
X011553Y014461D01*
X011574Y014497D01*
X011597Y014532D01*
X011624Y014563D01*
X011654Y014593D01*
X011687Y014619D01*
X011722Y014642D01*
X011758Y014662D01*
X011797Y014678D01*
X011837Y014690D01*
X011877Y014699D01*
X011919Y014704D01*
X011960Y014705D01*
X012002Y014702D01*
X012043Y014695D01*
X012084Y014684D01*
X012123Y014670D01*
X012160Y014652D01*
X012196Y014631D01*
X012230Y014606D01*
X012261Y014578D01*
X012289Y014548D01*
X012315Y014515D01*
X012337Y014479D01*
X012356Y014442D01*
X012371Y014403D01*
X012383Y014363D01*
X012391Y014322D01*
X012395Y014281D01*
X012395Y014239D01*
X012391Y014198D01*
X012383Y014157D01*
X012371Y014117D01*
X012356Y014078D01*
X012337Y014041D01*
X012315Y014005D01*
X012289Y013972D01*
X012261Y013942D01*
X012230Y013914D01*
X012196Y013889D01*
X012160Y013868D01*
X012123Y013850D01*
X012084Y013836D01*
X012043Y013825D01*
X012002Y013818D01*
X011960Y013815D01*
X011919Y013816D01*
X011877Y013821D01*
X011837Y013830D01*
X011797Y013842D01*
X011758Y013858D01*
X011722Y013878D01*
X011687Y013901D01*
X011654Y013927D01*
X011624Y013957D01*
X011597Y013988D01*
X011574Y014023D01*
X011553Y014059D01*
X011536Y014097D01*
X011522Y014136D01*
X011513Y014177D01*
X011507Y014218D01*
X011505Y014260D01*
X011505Y007600D02*
X011507Y007642D01*
X011513Y007683D01*
X011522Y007724D01*
X011536Y007763D01*
X011553Y007801D01*
X011574Y007837D01*
X011597Y007872D01*
X011624Y007903D01*
X011654Y007933D01*
X011687Y007959D01*
X011722Y007982D01*
X011758Y008002D01*
X011797Y008018D01*
X011837Y008030D01*
X011877Y008039D01*
X011919Y008044D01*
X011960Y008045D01*
X012002Y008042D01*
X012043Y008035D01*
X012084Y008024D01*
X012123Y008010D01*
X012160Y007992D01*
X012196Y007971D01*
X012230Y007946D01*
X012261Y007918D01*
X012289Y007888D01*
X012315Y007855D01*
X012337Y007819D01*
X012356Y007782D01*
X012371Y007743D01*
X012383Y007703D01*
X012391Y007662D01*
X012395Y007621D01*
X012395Y007579D01*
X012391Y007538D01*
X012383Y007497D01*
X012371Y007457D01*
X012356Y007418D01*
X012337Y007381D01*
X012315Y007345D01*
X012289Y007312D01*
X012261Y007282D01*
X012230Y007254D01*
X012196Y007229D01*
X012160Y007208D01*
X012123Y007190D01*
X012084Y007176D01*
X012043Y007165D01*
X012002Y007158D01*
X011960Y007155D01*
X011919Y007156D01*
X011877Y007161D01*
X011837Y007170D01*
X011797Y007182D01*
X011758Y007198D01*
X011722Y007218D01*
X011687Y007241D01*
X011654Y007267D01*
X011624Y007297D01*
X011597Y007328D01*
X011574Y007363D01*
X011553Y007399D01*
X011536Y007437D01*
X011522Y007476D01*
X011513Y007517D01*
X011507Y007558D01*
X011505Y007600D01*
X013665Y007550D02*
X013667Y007592D01*
X013673Y007633D01*
X013682Y007674D01*
X013696Y007713D01*
X013713Y007751D01*
X013734Y007787D01*
X013757Y007822D01*
X013784Y007853D01*
X013814Y007883D01*
X013847Y007909D01*
X013882Y007932D01*
X013918Y007952D01*
X013957Y007968D01*
X013997Y007980D01*
X014037Y007989D01*
X014079Y007994D01*
X014120Y007995D01*
X014162Y007992D01*
X014203Y007985D01*
X014244Y007974D01*
X014283Y007960D01*
X014320Y007942D01*
X014356Y007921D01*
X014390Y007896D01*
X014421Y007868D01*
X014449Y007838D01*
X014475Y007805D01*
X014497Y007769D01*
X014516Y007732D01*
X014531Y007693D01*
X014543Y007653D01*
X014551Y007612D01*
X014555Y007571D01*
X014555Y007529D01*
X014551Y007488D01*
X014543Y007447D01*
X014531Y007407D01*
X014516Y007368D01*
X014497Y007331D01*
X014475Y007295D01*
X014449Y007262D01*
X014421Y007232D01*
X014390Y007204D01*
X014356Y007179D01*
X014320Y007158D01*
X014283Y007140D01*
X014244Y007126D01*
X014203Y007115D01*
X014162Y007108D01*
X014120Y007105D01*
X014079Y007106D01*
X014037Y007111D01*
X013997Y007120D01*
X013957Y007132D01*
X013918Y007148D01*
X013882Y007168D01*
X013847Y007191D01*
X013814Y007217D01*
X013784Y007247D01*
X013757Y007278D01*
X013734Y007313D01*
X013713Y007349D01*
X013696Y007387D01*
X013682Y007426D01*
X013673Y007467D01*
X013667Y007508D01*
X013665Y007550D01*
X011515Y001150D02*
X011517Y001192D01*
X011523Y001233D01*
X011532Y001274D01*
X011546Y001313D01*
X011563Y001351D01*
X011584Y001387D01*
X011607Y001422D01*
X011634Y001453D01*
X011664Y001483D01*
X011697Y001509D01*
X011732Y001532D01*
X011768Y001552D01*
X011807Y001568D01*
X011847Y001580D01*
X011887Y001589D01*
X011929Y001594D01*
X011970Y001595D01*
X012012Y001592D01*
X012053Y001585D01*
X012094Y001574D01*
X012133Y001560D01*
X012170Y001542D01*
X012206Y001521D01*
X012240Y001496D01*
X012271Y001468D01*
X012299Y001438D01*
X012325Y001405D01*
X012347Y001369D01*
X012366Y001332D01*
X012381Y001293D01*
X012393Y001253D01*
X012401Y001212D01*
X012405Y001171D01*
X012405Y001129D01*
X012401Y001088D01*
X012393Y001047D01*
X012381Y001007D01*
X012366Y000968D01*
X012347Y000931D01*
X012325Y000895D01*
X012299Y000862D01*
X012271Y000832D01*
X012240Y000804D01*
X012206Y000779D01*
X012170Y000758D01*
X012133Y000740D01*
X012094Y000726D01*
X012053Y000715D01*
X012012Y000708D01*
X011970Y000705D01*
X011929Y000706D01*
X011887Y000711D01*
X011847Y000720D01*
X011807Y000732D01*
X011768Y000748D01*
X011732Y000768D01*
X011697Y000791D01*
X011664Y000817D01*
X011634Y000847D01*
X011607Y000878D01*
X011584Y000913D01*
X011563Y000949D01*
X011546Y000987D01*
X011532Y001026D01*
X011523Y001067D01*
X011517Y001108D01*
X011515Y001150D01*
X000915Y005850D02*
X000917Y005892D01*
X000923Y005933D01*
X000932Y005974D01*
X000946Y006013D01*
X000963Y006051D01*
X000984Y006087D01*
X001007Y006122D01*
X001034Y006153D01*
X001064Y006183D01*
X001097Y006209D01*
X001132Y006232D01*
X001168Y006252D01*
X001207Y006268D01*
X001247Y006280D01*
X001287Y006289D01*
X001329Y006294D01*
X001370Y006295D01*
X001412Y006292D01*
X001453Y006285D01*
X001494Y006274D01*
X001533Y006260D01*
X001570Y006242D01*
X001606Y006221D01*
X001640Y006196D01*
X001671Y006168D01*
X001699Y006138D01*
X001725Y006105D01*
X001747Y006069D01*
X001766Y006032D01*
X001781Y005993D01*
X001793Y005953D01*
X001801Y005912D01*
X001805Y005871D01*
X001805Y005829D01*
X001801Y005788D01*
X001793Y005747D01*
X001781Y005707D01*
X001766Y005668D01*
X001747Y005631D01*
X001725Y005595D01*
X001699Y005562D01*
X001671Y005532D01*
X001640Y005504D01*
X001606Y005479D01*
X001570Y005458D01*
X001533Y005440D01*
X001494Y005426D01*
X001453Y005415D01*
X001412Y005408D01*
X001370Y005405D01*
X001329Y005406D01*
X001287Y005411D01*
X001247Y005420D01*
X001207Y005432D01*
X001168Y005448D01*
X001132Y005468D01*
X001097Y005491D01*
X001064Y005517D01*
X001034Y005547D01*
X001007Y005578D01*
X000984Y005613D01*
X000963Y005649D01*
X000946Y005687D01*
X000932Y005726D01*
X000923Y005767D01*
X000917Y005808D01*
X000915Y005850D01*
X000905Y012300D02*
X000907Y012342D01*
X000913Y012383D01*
X000922Y012424D01*
X000936Y012463D01*
X000953Y012501D01*
X000974Y012537D01*
X000997Y012572D01*
X001024Y012603D01*
X001054Y012633D01*
X001087Y012659D01*
X001122Y012682D01*
X001158Y012702D01*
X001197Y012718D01*
X001237Y012730D01*
X001277Y012739D01*
X001319Y012744D01*
X001360Y012745D01*
X001402Y012742D01*
X001443Y012735D01*
X001484Y012724D01*
X001523Y012710D01*
X001560Y012692D01*
X001596Y012671D01*
X001630Y012646D01*
X001661Y012618D01*
X001689Y012588D01*
X001715Y012555D01*
X001737Y012519D01*
X001756Y012482D01*
X001771Y012443D01*
X001783Y012403D01*
X001791Y012362D01*
X001795Y012321D01*
X001795Y012279D01*
X001791Y012238D01*
X001783Y012197D01*
X001771Y012157D01*
X001756Y012118D01*
X001737Y012081D01*
X001715Y012045D01*
X001689Y012012D01*
X001661Y011982D01*
X001630Y011954D01*
X001596Y011929D01*
X001560Y011908D01*
X001523Y011890D01*
X001484Y011876D01*
X001443Y011865D01*
X001402Y011858D01*
X001360Y011855D01*
X001319Y011856D01*
X001277Y011861D01*
X001237Y011870D01*
X001197Y011882D01*
X001158Y011898D01*
X001122Y011918D01*
X001087Y011941D01*
X001054Y011967D01*
X001024Y011997D01*
X000997Y012028D01*
X000974Y012063D01*
X000953Y012099D01*
X000936Y012137D01*
X000922Y012176D01*
X000913Y012217D01*
X000907Y012258D01*
X000905Y012300D01*
X000905Y018960D02*
X000907Y019002D01*
X000913Y019043D01*
X000922Y019084D01*
X000936Y019123D01*
X000953Y019161D01*
X000974Y019197D01*
X000997Y019232D01*
X001024Y019263D01*
X001054Y019293D01*
X001087Y019319D01*
X001122Y019342D01*
X001158Y019362D01*
X001197Y019378D01*
X001237Y019390D01*
X001277Y019399D01*
X001319Y019404D01*
X001360Y019405D01*
X001402Y019402D01*
X001443Y019395D01*
X001484Y019384D01*
X001523Y019370D01*
X001560Y019352D01*
X001596Y019331D01*
X001630Y019306D01*
X001661Y019278D01*
X001689Y019248D01*
X001715Y019215D01*
X001737Y019179D01*
X001756Y019142D01*
X001771Y019103D01*
X001783Y019063D01*
X001791Y019022D01*
X001795Y018981D01*
X001795Y018939D01*
X001791Y018898D01*
X001783Y018857D01*
X001771Y018817D01*
X001756Y018778D01*
X001737Y018741D01*
X001715Y018705D01*
X001689Y018672D01*
X001661Y018642D01*
X001630Y018614D01*
X001596Y018589D01*
X001560Y018568D01*
X001523Y018550D01*
X001484Y018536D01*
X001443Y018525D01*
X001402Y018518D01*
X001360Y018515D01*
X001319Y018516D01*
X001277Y018521D01*
X001237Y018530D01*
X001197Y018542D01*
X001158Y018558D01*
X001122Y018578D01*
X001087Y018601D01*
X001054Y018627D01*
X001024Y018657D01*
X000997Y018688D01*
X000974Y018723D01*
X000953Y018759D01*
X000936Y018797D01*
X000922Y018836D01*
X000913Y018877D01*
X000907Y018918D01*
X000905Y018960D01*
X018365Y018150D02*
X018367Y018192D01*
X018373Y018233D01*
X018382Y018274D01*
X018396Y018313D01*
X018413Y018351D01*
X018434Y018387D01*
X018457Y018422D01*
X018484Y018453D01*
X018514Y018483D01*
X018547Y018509D01*
X018582Y018532D01*
X018618Y018552D01*
X018657Y018568D01*
X018697Y018580D01*
X018737Y018589D01*
X018779Y018594D01*
X018820Y018595D01*
X018862Y018592D01*
X018903Y018585D01*
X018944Y018574D01*
X018983Y018560D01*
X019020Y018542D01*
X019056Y018521D01*
X019090Y018496D01*
X019121Y018468D01*
X019149Y018438D01*
X019175Y018405D01*
X019197Y018369D01*
X019216Y018332D01*
X019231Y018293D01*
X019243Y018253D01*
X019251Y018212D01*
X019255Y018171D01*
X019255Y018129D01*
X019251Y018088D01*
X019243Y018047D01*
X019231Y018007D01*
X019216Y017968D01*
X019197Y017931D01*
X019175Y017895D01*
X019149Y017862D01*
X019121Y017832D01*
X019090Y017804D01*
X019056Y017779D01*
X019020Y017758D01*
X018983Y017740D01*
X018944Y017726D01*
X018903Y017715D01*
X018862Y017708D01*
X018820Y017705D01*
X018779Y017706D01*
X018737Y017711D01*
X018697Y017720D01*
X018657Y017732D01*
X018618Y017748D01*
X018582Y017768D01*
X018547Y017791D01*
X018514Y017817D01*
X018484Y017847D01*
X018457Y017878D01*
X018434Y017913D01*
X018413Y017949D01*
X018396Y017987D01*
X018382Y018026D01*
X018373Y018067D01*
X018367Y018108D01*
X018365Y018150D01*
D12*
X000370Y019835D02*
X000370Y000150D01*
X020055Y000150D01*
X020055Y019835D01*
X000370Y019835D01*
D13*
X003456Y019395D02*
X003456Y019105D01*
X003456Y019202D02*
X003601Y019202D01*
X003649Y019250D01*
X003649Y019347D01*
X003601Y019395D01*
X003456Y019395D01*
X003552Y019202D02*
X003649Y019105D01*
X003750Y019250D02*
X003944Y019250D01*
X003895Y019105D02*
X003895Y019395D01*
X003750Y019250D01*
X004456Y019212D02*
X004601Y019212D01*
X004649Y019260D01*
X004649Y019357D01*
X004601Y019405D01*
X004456Y019405D01*
X004456Y019115D01*
X004552Y019212D02*
X004649Y019115D01*
X004750Y019163D02*
X004799Y019115D01*
X004895Y019115D01*
X004944Y019163D01*
X004944Y019260D01*
X004895Y019308D01*
X004847Y019308D01*
X004750Y019260D01*
X004750Y019405D01*
X004944Y019405D01*
X005495Y019435D02*
X005495Y019145D01*
X005495Y019242D02*
X005640Y019242D01*
X005688Y019290D01*
X005688Y019387D01*
X005640Y019435D01*
X005495Y019435D01*
X005592Y019242D02*
X005688Y019145D01*
X005790Y019145D02*
X005983Y019145D01*
X005886Y019145D02*
X005886Y019435D01*
X005790Y019338D01*
X004026Y016975D02*
X004026Y016685D01*
X003930Y016685D02*
X004123Y016685D01*
X003930Y016878D02*
X004026Y016975D01*
X003828Y016975D02*
X003828Y016733D01*
X003780Y016685D01*
X003683Y016685D01*
X003635Y016733D01*
X003635Y016975D01*
X003445Y014405D02*
X003349Y014405D01*
X003300Y014357D01*
X003199Y014357D02*
X003151Y014405D01*
X003054Y014405D01*
X003006Y014357D01*
X003006Y014163D01*
X003054Y014115D01*
X003151Y014115D01*
X003199Y014163D01*
X003300Y014163D02*
X003349Y014115D01*
X003445Y014115D01*
X003494Y014163D01*
X003494Y014212D01*
X003445Y014260D01*
X003397Y014260D01*
X003445Y014260D02*
X003494Y014308D01*
X003494Y014357D01*
X003445Y014405D01*
X004876Y014357D02*
X004876Y014163D01*
X004924Y014115D01*
X005021Y014115D01*
X005069Y014163D01*
X005170Y014115D02*
X005364Y014308D01*
X005364Y014357D01*
X005315Y014405D01*
X005219Y014405D01*
X005170Y014357D01*
X005069Y014357D02*
X005021Y014405D01*
X004924Y014405D01*
X004876Y014357D01*
X005170Y014115D02*
X005364Y014115D01*
X006133Y015275D02*
X006230Y015275D01*
X006278Y015323D01*
X006278Y015565D01*
X006380Y015517D02*
X006428Y015565D01*
X006525Y015565D01*
X006573Y015517D01*
X006573Y015468D01*
X006380Y015275D01*
X006573Y015275D01*
X006133Y015275D02*
X006085Y015323D01*
X006085Y015565D01*
X006816Y016335D02*
X006816Y016625D01*
X006961Y016625D01*
X007009Y016577D01*
X007009Y016480D01*
X006961Y016432D01*
X006816Y016432D01*
X006912Y016432D02*
X007009Y016335D01*
X007110Y016383D02*
X007159Y016335D01*
X007255Y016335D01*
X007304Y016383D01*
X007304Y016432D01*
X007255Y016480D01*
X007207Y016480D01*
X007255Y016480D02*
X007304Y016528D01*
X007304Y016577D01*
X007255Y016625D01*
X007159Y016625D01*
X007110Y016577D01*
X009685Y018155D02*
X009685Y018445D01*
X009830Y018445D01*
X009878Y018397D01*
X009878Y018300D01*
X009830Y018252D01*
X009685Y018252D01*
X009782Y018252D02*
X009878Y018155D01*
X009980Y018155D02*
X010173Y018348D01*
X010173Y018397D01*
X010125Y018445D01*
X010028Y018445D01*
X009980Y018397D01*
X009980Y018155D02*
X010173Y018155D01*
X010132Y017835D02*
X010132Y017545D01*
X010330Y017545D02*
X010523Y017545D01*
X010426Y017545D02*
X010426Y017835D01*
X010330Y017738D01*
X010228Y017835D02*
X010035Y017835D01*
X010163Y014405D02*
X010260Y014405D01*
X010308Y014357D01*
X010308Y014163D01*
X010260Y014115D01*
X010163Y014115D01*
X010115Y014163D01*
X010115Y014357D01*
X010163Y014405D01*
X010212Y014212D02*
X010308Y014115D01*
X010410Y014115D02*
X010603Y014115D01*
X010506Y014115D02*
X010506Y014405D01*
X010410Y014308D01*
X010125Y011785D02*
X010028Y011785D01*
X009980Y011737D01*
X009878Y011737D02*
X009830Y011785D01*
X009685Y011785D01*
X009685Y011495D01*
X009685Y011592D02*
X009830Y011592D01*
X009878Y011640D01*
X009878Y011737D01*
X009782Y011592D02*
X009878Y011495D01*
X009980Y011495D02*
X010173Y011688D01*
X010173Y011737D01*
X010125Y011785D01*
X010173Y011495D02*
X009980Y011495D01*
X010035Y011175D02*
X010228Y011175D01*
X010132Y011175D02*
X010132Y010885D01*
X010330Y010885D02*
X010523Y010885D01*
X010426Y010885D02*
X010426Y011175D01*
X010330Y011078D01*
X007304Y009917D02*
X007304Y009868D01*
X007255Y009820D01*
X007304Y009772D01*
X007304Y009723D01*
X007255Y009675D01*
X007159Y009675D01*
X007110Y009723D01*
X007009Y009675D02*
X006912Y009772D01*
X006961Y009772D02*
X006816Y009772D01*
X006816Y009675D02*
X006816Y009965D01*
X006961Y009965D01*
X007009Y009917D01*
X007009Y009820D01*
X006961Y009772D01*
X007110Y009917D02*
X007159Y009965D01*
X007255Y009965D01*
X007304Y009917D01*
X007255Y009820D02*
X007207Y009820D01*
X006525Y008905D02*
X006428Y008905D01*
X006380Y008857D01*
X006278Y008905D02*
X006278Y008663D01*
X006230Y008615D01*
X006133Y008615D01*
X006085Y008663D01*
X006085Y008905D01*
X006380Y008615D02*
X006573Y008808D01*
X006573Y008857D01*
X006525Y008905D01*
X006573Y008615D02*
X006380Y008615D01*
X005364Y007697D02*
X005315Y007745D01*
X005219Y007745D01*
X005170Y007697D01*
X005069Y007697D02*
X005021Y007745D01*
X004924Y007745D01*
X004876Y007697D01*
X004876Y007503D01*
X004924Y007455D01*
X005021Y007455D01*
X005069Y007503D01*
X005170Y007455D02*
X005364Y007648D01*
X005364Y007697D01*
X005364Y007455D02*
X005170Y007455D01*
X005505Y006325D02*
X005650Y006325D01*
X005698Y006277D01*
X005698Y006180D01*
X005650Y006132D01*
X005505Y006132D01*
X005602Y006132D02*
X005698Y006035D01*
X005800Y006035D02*
X005993Y006035D01*
X005896Y006035D02*
X005896Y006325D01*
X005800Y006228D01*
X005505Y006325D02*
X005505Y006035D01*
X004954Y006053D02*
X004905Y006005D01*
X004809Y006005D01*
X004760Y006053D01*
X004760Y006150D02*
X004857Y006198D01*
X004905Y006198D01*
X004954Y006150D01*
X004954Y006053D01*
X004760Y006150D02*
X004760Y006295D01*
X004954Y006295D01*
X004659Y006247D02*
X004659Y006150D01*
X004611Y006102D01*
X004466Y006102D01*
X004562Y006102D02*
X004659Y006005D01*
X004466Y006005D02*
X004466Y006295D01*
X004611Y006295D01*
X004659Y006247D01*
X003954Y006140D02*
X003760Y006140D01*
X003905Y006285D01*
X003905Y005995D01*
X003659Y005995D02*
X003562Y006092D01*
X003611Y006092D02*
X003466Y006092D01*
X003466Y005995D02*
X003466Y006285D01*
X003611Y006285D01*
X003659Y006237D01*
X003659Y006140D01*
X003611Y006092D01*
X003445Y007455D02*
X003349Y007455D01*
X003300Y007503D01*
X003199Y007503D02*
X003151Y007455D01*
X003054Y007455D01*
X003006Y007503D01*
X003006Y007697D01*
X003054Y007745D01*
X003151Y007745D01*
X003199Y007697D01*
X003300Y007697D02*
X003349Y007745D01*
X003445Y007745D01*
X003494Y007697D01*
X003494Y007648D01*
X003445Y007600D01*
X003494Y007552D01*
X003494Y007503D01*
X003445Y007455D01*
X003445Y007600D02*
X003397Y007600D01*
X003683Y010025D02*
X003635Y010073D01*
X003635Y010315D01*
X003828Y010315D02*
X003828Y010073D01*
X003780Y010025D01*
X003683Y010025D01*
X003930Y010025D02*
X004123Y010025D01*
X004026Y010025D02*
X004026Y010315D01*
X003930Y010218D01*
X003895Y012445D02*
X003895Y012735D01*
X003750Y012590D01*
X003944Y012590D01*
X003649Y012590D02*
X003649Y012687D01*
X003601Y012735D01*
X003456Y012735D01*
X003456Y012445D01*
X003456Y012542D02*
X003601Y012542D01*
X003649Y012590D01*
X003552Y012542D02*
X003649Y012445D01*
X004456Y012455D02*
X004456Y012745D01*
X004601Y012745D01*
X004649Y012697D01*
X004649Y012600D01*
X004601Y012552D01*
X004456Y012552D01*
X004552Y012552D02*
X004649Y012455D01*
X004750Y012503D02*
X004799Y012455D01*
X004895Y012455D01*
X004944Y012503D01*
X004944Y012600D01*
X004895Y012648D01*
X004847Y012648D01*
X004750Y012600D01*
X004750Y012745D01*
X004944Y012745D01*
X005495Y012775D02*
X005495Y012485D01*
X005495Y012582D02*
X005640Y012582D01*
X005688Y012630D01*
X005688Y012727D01*
X005640Y012775D01*
X005495Y012775D01*
X005592Y012582D02*
X005688Y012485D01*
X005790Y012485D02*
X005983Y012485D01*
X005886Y012485D02*
X005886Y012775D01*
X005790Y012678D01*
X010163Y007745D02*
X010260Y007745D01*
X010308Y007697D01*
X010308Y007503D01*
X010260Y007455D01*
X010163Y007455D01*
X010115Y007503D01*
X010115Y007697D01*
X010163Y007745D01*
X010212Y007552D02*
X010308Y007455D01*
X010410Y007455D02*
X010603Y007455D01*
X010506Y007455D02*
X010506Y007745D01*
X010410Y007648D01*
X010135Y005335D02*
X010038Y005335D01*
X009990Y005287D01*
X009888Y005287D02*
X009888Y005190D01*
X009840Y005142D01*
X009695Y005142D01*
X009792Y005142D02*
X009888Y005045D01*
X009990Y005045D02*
X010183Y005238D01*
X010183Y005287D01*
X010135Y005335D01*
X009888Y005287D02*
X009840Y005335D01*
X009695Y005335D01*
X009695Y005045D01*
X009990Y005045D02*
X010183Y005045D01*
X010142Y004725D02*
X010142Y004435D01*
X010340Y004435D02*
X010533Y004435D01*
X010436Y004435D02*
X010436Y004725D01*
X010340Y004628D01*
X010238Y004725D02*
X010045Y004725D01*
X007314Y003467D02*
X007314Y003418D01*
X007265Y003370D01*
X007314Y003322D01*
X007314Y003273D01*
X007265Y003225D01*
X007169Y003225D01*
X007120Y003273D01*
X007019Y003225D02*
X006922Y003322D01*
X006971Y003322D02*
X006826Y003322D01*
X006826Y003225D02*
X006826Y003515D01*
X006971Y003515D01*
X007019Y003467D01*
X007019Y003370D01*
X006971Y003322D01*
X007120Y003467D02*
X007169Y003515D01*
X007265Y003515D01*
X007314Y003467D01*
X007265Y003370D02*
X007217Y003370D01*
X006535Y002455D02*
X006438Y002455D01*
X006390Y002407D01*
X006288Y002455D02*
X006288Y002213D01*
X006240Y002165D01*
X006143Y002165D01*
X006095Y002213D01*
X006095Y002455D01*
X006390Y002165D02*
X006583Y002358D01*
X006583Y002407D01*
X006535Y002455D01*
X006583Y002165D02*
X006390Y002165D01*
X005374Y001247D02*
X005374Y001198D01*
X005180Y001005D01*
X005374Y001005D01*
X005079Y001053D02*
X005031Y001005D01*
X004934Y001005D01*
X004886Y001053D01*
X004886Y001247D01*
X004934Y001295D01*
X005031Y001295D01*
X005079Y001247D01*
X005180Y001247D02*
X005229Y001295D01*
X005325Y001295D01*
X005374Y001247D01*
X003504Y001247D02*
X003504Y001198D01*
X003455Y001150D01*
X003504Y001102D01*
X003504Y001053D01*
X003455Y001005D01*
X003359Y001005D01*
X003310Y001053D01*
X003209Y001053D02*
X003161Y001005D01*
X003064Y001005D01*
X003016Y001053D01*
X003016Y001247D01*
X003064Y001295D01*
X003161Y001295D01*
X003209Y001247D01*
X003310Y001247D02*
X003359Y001295D01*
X003455Y001295D01*
X003504Y001247D01*
X003455Y001150D02*
X003407Y001150D01*
X003693Y003575D02*
X003790Y003575D01*
X003838Y003623D01*
X003838Y003865D01*
X003940Y003768D02*
X004036Y003865D01*
X004036Y003575D01*
X003940Y003575D02*
X004133Y003575D01*
X003693Y003575D02*
X003645Y003623D01*
X003645Y003865D01*
X010125Y001247D02*
X010125Y001053D01*
X010173Y001005D01*
X010270Y001005D01*
X010318Y001053D01*
X010318Y001247D01*
X010270Y001295D01*
X010173Y001295D01*
X010125Y001247D01*
X010222Y001102D02*
X010318Y001005D01*
X010420Y001005D02*
X010613Y001005D01*
X010516Y001005D02*
X010516Y001295D01*
X010420Y001198D01*
X018665Y009254D02*
X018665Y009351D01*
X018713Y009399D01*
X018713Y009500D02*
X018665Y009549D01*
X018665Y009645D01*
X018713Y009694D01*
X018762Y009694D01*
X018810Y009645D01*
X018858Y009694D01*
X018907Y009694D01*
X018955Y009645D01*
X018955Y009549D01*
X018907Y009500D01*
X018907Y009399D02*
X018955Y009351D01*
X018955Y009254D01*
X018907Y009206D01*
X018713Y009206D01*
X018665Y009254D01*
X018810Y009597D02*
X018810Y009645D01*
X018713Y011076D02*
X018907Y011076D01*
X018955Y011124D01*
X018955Y011221D01*
X018907Y011269D01*
X018955Y011370D02*
X018762Y011564D01*
X018713Y011564D01*
X018665Y011515D01*
X018665Y011419D01*
X018713Y011370D01*
X018713Y011269D02*
X018665Y011221D01*
X018665Y011124D01*
X018713Y011076D01*
X018955Y011370D02*
X018955Y011564D01*
X017795Y012333D02*
X017795Y012430D01*
X017747Y012478D01*
X017505Y012478D01*
X017553Y012580D02*
X017505Y012628D01*
X017505Y012725D01*
X017553Y012773D01*
X017602Y012773D01*
X017795Y012580D01*
X017795Y012773D01*
X017795Y012333D02*
X017747Y012285D01*
X017505Y012285D01*
X016735Y013016D02*
X016445Y013016D01*
X016445Y013161D01*
X016493Y013209D01*
X016590Y013209D01*
X016638Y013161D01*
X016638Y013016D01*
X016638Y013112D02*
X016735Y013209D01*
X016687Y013310D02*
X016735Y013359D01*
X016735Y013455D01*
X016687Y013504D01*
X016638Y013504D01*
X016590Y013455D01*
X016590Y013407D01*
X016590Y013455D02*
X016542Y013504D01*
X016493Y013504D01*
X016445Y013455D01*
X016445Y013359D01*
X016493Y013310D01*
X013955Y011095D02*
X013955Y010999D01*
X013907Y010950D01*
X013810Y010950D02*
X013762Y011047D01*
X013762Y011095D01*
X013810Y011144D01*
X013907Y011144D01*
X013955Y011095D01*
X013810Y010950D02*
X013665Y010950D01*
X013665Y011144D01*
X013713Y010849D02*
X013810Y010849D01*
X013858Y010801D01*
X013858Y010656D01*
X013858Y010752D02*
X013955Y010849D01*
X013955Y010656D02*
X013665Y010656D01*
X013665Y010801D01*
X013713Y010849D01*
X013820Y010144D02*
X013820Y009950D01*
X013675Y010095D01*
X013965Y010095D01*
X013965Y009849D02*
X013868Y009752D01*
X013868Y009801D02*
X013868Y009656D01*
X013965Y009656D02*
X013675Y009656D01*
X013675Y009801D01*
X013723Y009849D01*
X013820Y009849D01*
X013868Y009801D01*
X013828Y011695D02*
X013828Y011840D01*
X013780Y011888D01*
X013683Y011888D01*
X013635Y011840D01*
X013635Y011695D01*
X013925Y011695D01*
X013828Y011792D02*
X013925Y011888D01*
X013925Y011990D02*
X013925Y012183D01*
X013925Y012086D02*
X013635Y012086D01*
X013732Y011990D01*
X016095Y010226D02*
X016385Y010226D01*
X016385Y010130D02*
X016385Y010323D01*
X016192Y010130D02*
X016095Y010226D01*
X016095Y010028D02*
X016337Y010028D01*
X016385Y009980D01*
X016385Y009883D01*
X016337Y009835D01*
X016095Y009835D01*
X014915Y015885D02*
X014625Y015885D01*
X014625Y016030D01*
X014673Y016078D01*
X014770Y016078D01*
X014818Y016030D01*
X014818Y015885D01*
X014818Y015982D02*
X014915Y016078D01*
X014915Y016180D02*
X014722Y016373D01*
X014673Y016373D01*
X014625Y016325D01*
X014625Y016228D01*
X014673Y016180D01*
X014915Y016180D02*
X014915Y016373D01*
X015235Y016332D02*
X015525Y016332D01*
X015525Y016530D02*
X015525Y016723D01*
X015525Y016626D02*
X015235Y016626D01*
X015332Y016530D01*
X015235Y016428D02*
X015235Y016235D01*
X018665Y016363D02*
X018665Y016460D01*
X018713Y016508D01*
X018907Y016508D01*
X018955Y016460D01*
X018955Y016363D01*
X018907Y016315D01*
X018713Y016315D01*
X018665Y016363D01*
X018858Y016412D02*
X018955Y016508D01*
X018955Y016610D02*
X018955Y016803D01*
X018955Y016706D02*
X018665Y016706D01*
X018762Y016610D01*
M02*
