G75*
G70*
%OFA0B0*%
%FSLAX24Y24*%
%IPPOS*%
%LPD*%
%AMOC8*
5,1,8,0,0,1.08239X$1,22.5*
%
%ADD10C,0.1330*%
%ADD11C,0.0789*%
%ADD12R,0.0946X0.3230*%
%ADD13R,0.0790X0.0710*%
%ADD14R,0.0671X0.0592*%
%ADD15R,0.3230X0.0946*%
%ADD16R,0.0710X0.0790*%
%ADD17R,0.0592X0.0671*%
%ADD18C,0.0476*%
D10*
X001084Y005804D03*
X001045Y012182D03*
X001045Y018678D03*
X011645Y013978D03*
X011645Y007482D03*
X013787Y004864D03*
X011684Y001104D03*
X018487Y015464D03*
D11*
X015587Y015118D02*
X015587Y014410D01*
X014587Y014410D02*
X014587Y015118D01*
X011299Y016878D02*
X010591Y016878D01*
X010591Y017878D02*
X011299Y017878D01*
X011299Y011382D02*
X010591Y011382D01*
X010591Y010382D02*
X011299Y010382D01*
X015087Y005618D02*
X015087Y004910D01*
X016087Y004910D02*
X016087Y005618D01*
X017087Y005618D02*
X017087Y004910D01*
X011339Y005004D02*
X010630Y005004D01*
X010630Y004004D02*
X011339Y004004D01*
X001839Y004504D02*
X001130Y004504D01*
X001130Y003504D02*
X001839Y003504D01*
X001839Y002504D02*
X001130Y002504D01*
X001091Y008882D02*
X001799Y008882D01*
X001799Y009882D02*
X001091Y009882D01*
X001091Y010882D02*
X001799Y010882D01*
X001799Y015378D02*
X001091Y015378D01*
X001091Y016378D02*
X001799Y016378D01*
X001799Y017378D02*
X001091Y017378D01*
D12*
X004934Y016378D03*
X008556Y016378D03*
X008556Y009882D03*
X004934Y009882D03*
X004973Y003504D03*
X008596Y003504D03*
D13*
X003160Y002564D03*
X003160Y001444D03*
X003121Y007822D03*
X003121Y008942D03*
X003121Y014318D03*
X003121Y015438D03*
D14*
X003121Y016443D03*
X003121Y017113D03*
X003121Y010616D03*
X003121Y009947D03*
X003160Y004239D03*
X003160Y003569D03*
D15*
X016087Y008753D03*
X016087Y012375D03*
D16*
X017028Y006940D03*
X018147Y006940D03*
D17*
X016022Y006940D03*
X015353Y006940D03*
D18*
X002054Y001654D03*
X002484Y005954D03*
X002015Y008032D03*
X002445Y012332D03*
X002015Y014528D03*
X002445Y018828D03*
X006845Y014078D03*
X009345Y012182D03*
X013787Y013164D03*
X018387Y010664D03*
X017937Y005834D03*
X013637Y006264D03*
X009384Y005804D03*
X006845Y007582D03*
X006884Y001204D03*
X009345Y018678D03*
M02*
